0
SECTION
2
HEADER
9
$ACADVER
1
AC1009
9
$INSBASE
10
0
20
0
30
0
9
$MEASUREMENT
70
1
0
ENDSEC
0
SECTION
2
TABLES
0
TABLE
2
LTYPE
70
1
0
LTYPE
2
CONTINUOUS
70
0
3
Solid line
72
65
73
0
40
0
0
ENDTAB
0
TABLE
2
LAYER
70
14
0
LAYER
2
0
70
0
62
7
6
CONTINUOUS
0
LAYER
2
A-WALL
70
0
62
7
6
CONTINUOUS
0
LAYER
2
A-GLAZ
70
0
62
4
6
CONTINUOUS
0
LAYER
2
A-DOOR
70
0
62
3
6
CONTINUOUS
0
LAYER
2
S-COLS
70
0
62
1
6
CONTINUOUS
0
LAYER
2
P-DUCT
70
0
62
5
6
CONTINUOUS
0
LAYER
2
A-STRS
70
0
62
8
6
CONTINUOUS
0
LAYER
2
A-LIFT
70
0
62
8
6
CONTINUOUS
0
LAYER
2
A-FURN
70
0
62
9
6
CONTINUOUS
0
LAYER
2
A-PRKG
70
0
62
8
6
CONTINUOUS
0
LAYER
2
A-SLAB-ABOVE
70
0
62
8
6
CONTINUOUS
0
LAYER
2
A-ANNO-ROOM
70
0
62
2
6
CONTINUOUS
0
LAYER
2
A-DIMS
70
0
62
6
6
CONTINUOUS
0
LAYER
2
A-ANNO-TTLB
70
0
62
7
6
CONTINUOUS
0
ENDTAB
0
TABLE
2
STYLE
70
1
0
STYLE
2
STANDARD
70
0
40
0
41
1
50
0
71
0
42
2.5
3
txt
4

0
ENDTAB
0
ENDSEC
0
SECTION
2
BLOCKS
0
BLOCK
8
0
2
*D1
70
1
10
0
20
0
30
0
3
*D1
0
LINE
8
0
10
0
20
13300
30
0
11
2700
21
13300
31
0
0
LINE
8
0
10
0
20
12090
30
0
11
0
21
13408
31
0
0
LINE
8
0
10
-63.6396
20
13236.3604
30
0
11
63.6396
21
13363.6396
31
0
0
LINE
8
0
10
2700
20
12090
30
0
11
2700
21
13408
31
0
0
LINE
8
0
10
2636.3604
20
13236.3604
30
0
11
2763.6396
21
13363.6396
31
0
0
TEXT
8
0
10
1350
20
13444
30
0
40
180
1
2700
50
0
72
4
11
1350
21
13444
31
0
0
ENDBLK
8
0
0
BLOCK
8
0
2
*D2
70
1
10
0
20
0
30
0
3
*D2
0
LINE
8
0
10
2700
20
13300
30
0
11
6300
21
13300
31
0
0
LINE
8
0
10
2700
20
12090
30
0
11
2700
21
13408
31
0
0
LINE
8
0
10
2636.3604
20
13236.3604
30
0
11
2763.6396
21
13363.6396
31
0
0
LINE
8
0
10
6300
20
12090
30
0
11
6300
21
13408
31
0
0
LINE
8
0
10
6236.3604
20
13236.3604
30
0
11
6363.6396
21
13363.6396
31
0
0
TEXT
8
0
10
4500
20
13444
30
0
40
180
1
3600
50
0
72
4
11
4500
21
13444
31
0
0
ENDBLK
8
0
0
BLOCK
8
0
2
*D3
70
1
10
0
20
0
30
0
3
*D3
0
LINE
8
0
10
6300
20
13300
30
0
11
8700
21
13300
31
0
0
LINE
8
0
10
6300
20
12090
30
0
11
6300
21
13408
31
0
0
LINE
8
0
10
6236.3604
20
13236.3604
30
0
11
6363.6396
21
13363.6396
31
0
0
LINE
8
0
10
8700
20
12090
30
0
11
8700
21
13408
31
0
0
LINE
8
0
10
8636.3604
20
13236.3604
30
0
11
8763.6396
21
13363.6396
31
0
0
TEXT
8
0
10
7500
20
13444
30
0
40
180
1
2400
50
0
72
4
11
7500
21
13444
31
0
0
ENDBLK
8
0
0
BLOCK
8
0
2
*D4
70
1
10
0
20
0
30
0
3
*D4
0
LINE
8
0
10
8700
20
13300
30
0
11
12300
21
13300
31
0
0
LINE
8
0
10
8700
20
12090
30
0
11
8700
21
13408
31
0
0
LINE
8
0
10
8636.3604
20
13236.3604
30
0
11
8763.6396
21
13363.6396
31
0
0
LINE
8
0
10
12300
20
12090
30
0
11
12300
21
13408
31
0
0
LINE
8
0
10
12236.3604
20
13236.3604
30
0
11
12363.6396
21
13363.6396
31
0
0
TEXT
8
0
10
10500
20
13444
30
0
40
180
1
3600
50
0
72
4
11
10500
21
13444
31
0
0
ENDBLK
8
0
0
BLOCK
8
0
2
*D5
70
1
10
0
20
0
30
0
3
*D5
0
LINE
8
0
10
12300
20
13300
30
0
11
14700
21
13300
31
0
0
LINE
8
0
10
12300
20
12090
30
0
11
12300
21
13408
31
0
0
LINE
8
0
10
12236.3604
20
13236.3604
30
0
11
12363.6396
21
13363.6396
31
0
0
LINE
8
0
10
14700
20
12090
30
0
11
14700
21
13408
31
0
0
LINE
8
0
10
14636.3604
20
13236.3604
30
0
11
14763.6396
21
13363.6396
31
0
0
TEXT
8
0
10
13500
20
13444
30
0
40
180
1
2400
50
0
72
4
11
13500
21
13444
31
0
0
ENDBLK
8
0
0
BLOCK
8
0
2
*D6
70
1
10
0
20
0
30
0
3
*D6
0
LINE
8
0
10
14700
20
13300
30
0
11
18300
21
13300
31
0
0
LINE
8
0
10
14700
20
12090
30
0
11
14700
21
13408
31
0
0
LINE
8
0
10
14636.3604
20
13236.3604
30
0
11
14763.6396
21
13363.6396
31
0
0
LINE
8
0
10
18300
20
12090
30
0
11
18300
21
13408
31
0
0
LINE
8
0
10
18236.3604
20
13236.3604
30
0
11
18363.6396
21
13363.6396
31
0
0
TEXT
8
0
10
16500
20
13444
30
0
40
180
1
3600
50
0
72
4
11
16500
21
13444
31
0
0
ENDBLK
8
0
0
BLOCK
8
0
2
*D7
70
1
10
0
20
0
30
0
3
*D7
0
LINE
8
0
10
18300
20
13300
30
0
11
21000
21
13300
31
0
0
LINE
8
0
10
18300
20
12090
30
0
11
18300
21
13408
31
0
0
LINE
8
0
10
18236.3604
20
13236.3604
30
0
11
18363.6396
21
13363.6396
31
0
0
LINE
8
0
10
21000
20
12090
30
0
11
21000
21
13408
31
0
0
LINE
8
0
10
20936.3604
20
13236.3604
30
0
11
21063.6396
21
13363.6396
31
0
0
TEXT
8
0
10
19650
20
13444
30
0
40
180
1
2700
50
0
72
4
11
19650
21
13444
31
0
0
ENDBLK
8
0
0
BLOCK
8
0
2
*D8
70
1
10
0
20
0
30
0
3
*D8
0
LINE
8
0
10
0
20
14300
30
0
11
21000
21
14300
31
0
0
LINE
8
0
10
0
20
12090
30
0
11
0
21
14408
31
0
0
LINE
8
0
10
-63.6396
20
14236.3604
30
0
11
63.6396
21
14363.6396
31
0
0
LINE
8
0
10
21000
20
12090
30
0
11
21000
21
14408
31
0
0
LINE
8
0
10
20936.3604
20
14236.3604
30
0
11
21063.6396
21
14363.6396
31
0
0
TEXT
8
0
10
10500
20
14444
30
0
40
180
1
21000
50
0
72
4
11
10500
21
14444
31
0
0
ENDBLK
8
0
0
BLOCK
8
0
2
*D9
70
1
10
0
20
0
30
0
3
*D9
0
LINE
8
0
10
-1300
20
0
30
0
11
-1300
21
4800
31
0
0
LINE
8
0
10
-90
20
0
30
0
11
-1408
21
0
31
0
0
LINE
8
0
10
-1236.3604
20
-63.6396
30
0
11
-1363.6396
21
63.6396
31
0
0
LINE
8
0
10
-90
20
4800
30
0
11
-1408
21
4800
31
0
0
LINE
8
0
10
-1236.3604
20
4736.3604
30
0
11
-1363.6396
21
4863.6396
31
0
0
TEXT
8
0
10
-1444
20
2400
30
0
40
180
1
4800
50
90
72
4
11
-1444
21
2400
31
0
0
ENDBLK
8
0
0
BLOCK
8
0
2
*D10
70
1
10
0
20
0
30
0
3
*D10
0
LINE
8
0
10
-1300
20
4800
30
0
11
-1300
21
8400
31
0
0
LINE
8
0
10
-90
20
4800
30
0
11
-1408
21
4800
31
0
0
LINE
8
0
10
-1236.3604
20
4736.3604
30
0
11
-1363.6396
21
4863.6396
31
0
0
LINE
8
0
10
-90
20
8400
30
0
11
-1408
21
8400
31
0
0
LINE
8
0
10
-1236.3604
20
8336.3604
30
0
11
-1363.6396
21
8463.6396
31
0
0
TEXT
8
0
10
-1444
20
6600
30
0
40
180
1
3600
50
90
72
4
11
-1444
21
6600
31
0
0
ENDBLK
8
0
0
BLOCK
8
0
2
*D11
70
1
10
0
20
0
30
0
3
*D11
0
LINE
8
0
10
-1300
20
8400
30
0
11
-1300
21
12000
31
0
0
LINE
8
0
10
-90
20
8400
30
0
11
-1408
21
8400
31
0
0
LINE
8
0
10
-1236.3604
20
8336.3604
30
0
11
-1363.6396
21
8463.6396
31
0
0
LINE
8
0
10
-90
20
12000
30
0
11
-1408
21
12000
31
0
0
LINE
8
0
10
-1236.3604
20
11936.3604
30
0
11
-1363.6396
21
12063.6396
31
0
0
TEXT
8
0
10
-1444
20
10200
30
0
40
180
1
3600
50
90
72
4
11
-1444
21
10200
31
0
0
ENDBLK
8
0
0
BLOCK
8
0
2
*D12
70
1
10
0
20
0
30
0
3
*D12
0
LINE
8
0
10
-2300
20
0
30
0
11
-2300
21
12000
31
0
0
LINE
8
0
10
-90
20
0
30
0
11
-2408
21
0
31
0
0
LINE
8
0
10
-2236.3604
20
-63.6396
30
0
11
-2363.6396
21
63.6396
31
0
0
LINE
8
0
10
-90
20
12000
30
0
11
-2408
21
12000
31
0
0
LINE
8
0
10
-2236.3604
20
11936.3604
30
0
11
-2363.6396
21
12063.6396
31
0
0
TEXT
8
0
10
-2444
20
6000
30
0
40
180
1
12000
50
90
72
4
11
-2444
21
6000
31
0
0
ENDBLK
8
0
0
BLOCK
8
0
2
*D13
70
1
10
0
20
0
30
0
3
*D13
0
LINE
8
0
10
0
20
-3100
30
0
11
21000
21
-3100
31
0
0
LINE
8
0
10
0
20
-90
30
0
11
0
21
-3208
31
0
0
LINE
8
0
10
-63.6396
20
-3163.6396
30
0
11
63.6396
21
-3036.3604
31
0
0
LINE
8
0
10
21000
20
-90
30
0
11
21000
21
-3208
31
0
0
LINE
8
0
10
20936.3604
20
-3163.6396
30
0
11
21063.6396
21
-3036.3604
31
0
0
TEXT
8
0
10
10500
20
-2956
30
0
40
180
1
21000
50
0
72
4
11
10500
21
-2956
31
0
0
ENDBLK
8
0
0
BLOCK
8
0
2
*D14
70
1
10
0
20
0
30
0
3
*D14
0
LINE
8
0
10
33000
20
13300
30
0
11
35700
21
13300
31
0
0
LINE
8
0
10
33000
20
12090
30
0
11
33000
21
13408
31
0
0
LINE
8
0
10
32936.3604
20
13236.3604
30
0
11
33063.6396
21
13363.6396
31
0
0
LINE
8
0
10
35700
20
12090
30
0
11
35700
21
13408
31
0
0
LINE
8
0
10
35636.3604
20
13236.3604
30
0
11
35763.6396
21
13363.6396
31
0
0
TEXT
8
0
10
34350
20
13444
30
0
40
180
1
2700
50
0
72
4
11
34350
21
13444
31
0
0
ENDBLK
8
0
0
BLOCK
8
0
2
*D15
70
1
10
0
20
0
30
0
3
*D15
0
LINE
8
0
10
35700
20
13300
30
0
11
39300
21
13300
31
0
0
LINE
8
0
10
35700
20
12090
30
0
11
35700
21
13408
31
0
0
LINE
8
0
10
35636.3604
20
13236.3604
30
0
11
35763.6396
21
13363.6396
31
0
0
LINE
8
0
10
39300
20
12090
30
0
11
39300
21
13408
31
0
0
LINE
8
0
10
39236.3604
20
13236.3604
30
0
11
39363.6396
21
13363.6396
31
0
0
TEXT
8
0
10
37500
20
13444
30
0
40
180
1
3600
50
0
72
4
11
37500
21
13444
31
0
0
ENDBLK
8
0
0
BLOCK
8
0
2
*D16
70
1
10
0
20
0
30
0
3
*D16
0
LINE
8
0
10
39300
20
13300
30
0
11
41700
21
13300
31
0
0
LINE
8
0
10
39300
20
12090
30
0
11
39300
21
13408
31
0
0
LINE
8
0
10
39236.3604
20
13236.3604
30
0
11
39363.6396
21
13363.6396
31
0
0
LINE
8
0
10
41700
20
12090
30
0
11
41700
21
13408
31
0
0
LINE
8
0
10
41636.3604
20
13236.3604
30
0
11
41763.6396
21
13363.6396
31
0
0
TEXT
8
0
10
40500
20
13444
30
0
40
180
1
2400
50
0
72
4
11
40500
21
13444
31
0
0
ENDBLK
8
0
0
BLOCK
8
0
2
*D17
70
1
10
0
20
0
30
0
3
*D17
0
LINE
8
0
10
41700
20
13300
30
0
11
45300
21
13300
31
0
0
LINE
8
0
10
41700
20
12090
30
0
11
41700
21
13408
31
0
0
LINE
8
0
10
41636.3604
20
13236.3604
30
0
11
41763.6396
21
13363.6396
31
0
0
LINE
8
0
10
45300
20
12090
30
0
11
45300
21
13408
31
0
0
LINE
8
0
10
45236.3604
20
13236.3604
30
0
11
45363.6396
21
13363.6396
31
0
0
TEXT
8
0
10
43500
20
13444
30
0
40
180
1
3600
50
0
72
4
11
43500
21
13444
31
0
0
ENDBLK
8
0
0
BLOCK
8
0
2
*D18
70
1
10
0
20
0
30
0
3
*D18
0
LINE
8
0
10
45300
20
13300
30
0
11
47700
21
13300
31
0
0
LINE
8
0
10
45300
20
12090
30
0
11
45300
21
13408
31
0
0
LINE
8
0
10
45236.3604
20
13236.3604
30
0
11
45363.6396
21
13363.6396
31
0
0
LINE
8
0
10
47700
20
12090
30
0
11
47700
21
13408
31
0
0
LINE
8
0
10
47636.3604
20
13236.3604
30
0
11
47763.6396
21
13363.6396
31
0
0
TEXT
8
0
10
46500
20
13444
30
0
40
180
1
2400
50
0
72
4
11
46500
21
13444
31
0
0
ENDBLK
8
0
0
BLOCK
8
0
2
*D19
70
1
10
0
20
0
30
0
3
*D19
0
LINE
8
0
10
47700
20
13300
30
0
11
51300
21
13300
31
0
0
LINE
8
0
10
47700
20
12090
30
0
11
47700
21
13408
31
0
0
LINE
8
0
10
47636.3604
20
13236.3604
30
0
11
47763.6396
21
13363.6396
31
0
0
LINE
8
0
10
51300
20
12090
30
0
11
51300
21
13408
31
0
0
LINE
8
0
10
51236.3604
20
13236.3604
30
0
11
51363.6396
21
13363.6396
31
0
0
TEXT
8
0
10
49500
20
13444
30
0
40
180
1
3600
50
0
72
4
11
49500
21
13444
31
0
0
ENDBLK
8
0
0
BLOCK
8
0
2
*D20
70
1
10
0
20
0
30
0
3
*D20
0
LINE
8
0
10
51300
20
13300
30
0
11
54000
21
13300
31
0
0
LINE
8
0
10
51300
20
12090
30
0
11
51300
21
13408
31
0
0
LINE
8
0
10
51236.3604
20
13236.3604
30
0
11
51363.6396
21
13363.6396
31
0
0
LINE
8
0
10
54000
20
12090
30
0
11
54000
21
13408
31
0
0
LINE
8
0
10
53936.3604
20
13236.3604
30
0
11
54063.6396
21
13363.6396
31
0
0
TEXT
8
0
10
52650
20
13444
30
0
40
180
1
2700
50
0
72
4
11
52650
21
13444
31
0
0
ENDBLK
8
0
0
BLOCK
8
0
2
*D21
70
1
10
0
20
0
30
0
3
*D21
0
LINE
8
0
10
33000
20
14300
30
0
11
54000
21
14300
31
0
0
LINE
8
0
10
33000
20
12090
30
0
11
33000
21
14408
31
0
0
LINE
8
0
10
32936.3604
20
14236.3604
30
0
11
33063.6396
21
14363.6396
31
0
0
LINE
8
0
10
54000
20
12090
30
0
11
54000
21
14408
31
0
0
LINE
8
0
10
53936.3604
20
14236.3604
30
0
11
54063.6396
21
14363.6396
31
0
0
TEXT
8
0
10
43500
20
14444
30
0
40
180
1
21000
50
0
72
4
11
43500
21
14444
31
0
0
ENDBLK
8
0
0
BLOCK
8
0
2
*D22
70
1
10
0
20
0
30
0
3
*D22
0
LINE
8
0
10
31700
20
0
30
0
11
31700
21
4800
31
0
0
LINE
8
0
10
32910
20
0
30
0
11
31592
21
0
31
0
0
LINE
8
0
10
31763.6396
20
-63.6396
30
0
11
31636.3604
21
63.6396
31
0
0
LINE
8
0
10
32910
20
4800
30
0
11
31592
21
4800
31
0
0
LINE
8
0
10
31763.6396
20
4736.3604
30
0
11
31636.3604
21
4863.6396
31
0
0
TEXT
8
0
10
31556
20
2400
30
0
40
180
1
4800
50
90
72
4
11
31556
21
2400
31
0
0
ENDBLK
8
0
0
BLOCK
8
0
2
*D23
70
1
10
0
20
0
30
0
3
*D23
0
LINE
8
0
10
31700
20
4800
30
0
11
31700
21
8400
31
0
0
LINE
8
0
10
32910
20
4800
30
0
11
31592
21
4800
31
0
0
LINE
8
0
10
31763.6396
20
4736.3604
30
0
11
31636.3604
21
4863.6396
31
0
0
LINE
8
0
10
32910
20
8400
30
0
11
31592
21
8400
31
0
0
LINE
8
0
10
31763.6396
20
8336.3604
30
0
11
31636.3604
21
8463.6396
31
0
0
TEXT
8
0
10
31556
20
6600
30
0
40
180
1
3600
50
90
72
4
11
31556
21
6600
31
0
0
ENDBLK
8
0
0
BLOCK
8
0
2
*D24
70
1
10
0
20
0
30
0
3
*D24
0
LINE
8
0
10
31700
20
8400
30
0
11
31700
21
12000
31
0
0
LINE
8
0
10
32910
20
8400
30
0
11
31592
21
8400
31
0
0
LINE
8
0
10
31763.6396
20
8336.3604
30
0
11
31636.3604
21
8463.6396
31
0
0
LINE
8
0
10
32910
20
12000
30
0
11
31592
21
12000
31
0
0
LINE
8
0
10
31763.6396
20
11936.3604
30
0
11
31636.3604
21
12063.6396
31
0
0
TEXT
8
0
10
31556
20
10200
30
0
40
180
1
3600
50
90
72
4
11
31556
21
10200
31
0
0
ENDBLK
8
0
0
BLOCK
8
0
2
*D25
70
1
10
0
20
0
30
0
3
*D25
0
LINE
8
0
10
30700
20
0
30
0
11
30700
21
12000
31
0
0
LINE
8
0
10
32910
20
0
30
0
11
30592
21
0
31
0
0
LINE
8
0
10
30763.6396
20
-63.6396
30
0
11
30636.3604
21
63.6396
31
0
0
LINE
8
0
10
32910
20
12000
30
0
11
30592
21
12000
31
0
0
LINE
8
0
10
30763.6396
20
11936.3604
30
0
11
30636.3604
21
12063.6396
31
0
0
TEXT
8
0
10
30556
20
6000
30
0
40
180
1
12000
50
90
72
4
11
30556
21
6000
31
0
0
ENDBLK
8
0
0
BLOCK
8
0
2
*D26
70
1
10
0
20
0
30
0
3
*D26
0
LINE
8
0
10
33000
20
-3100
30
0
11
54000
21
-3100
31
0
0
LINE
8
0
10
33000
20
-90
30
0
11
33000
21
-3208
31
0
0
LINE
8
0
10
32936.3604
20
-3163.6396
30
0
11
33063.6396
21
-3036.3604
31
0
0
LINE
8
0
10
54000
20
-90
30
0
11
54000
21
-3208
31
0
0
LINE
8
0
10
53936.3604
20
-3163.6396
30
0
11
54063.6396
21
-3036.3604
31
0
0
TEXT
8
0
10
43500
20
-2956
30
0
40
180
1
21000
50
0
72
4
11
43500
21
-2956
31
0
0
ENDBLK
8
0
0
BLOCK
8
0
2
*D27
70
1
10
0
20
0
30
0
3
*D27
0
LINE
8
0
10
66000
20
13300
30
0
11
68700
21
13300
31
0
0
LINE
8
0
10
66000
20
12090
30
0
11
66000
21
13408
31
0
0
LINE
8
0
10
65936.3604
20
13236.3604
30
0
11
66063.6396
21
13363.6396
31
0
0
LINE
8
0
10
68700
20
12090
30
0
11
68700
21
13408
31
0
0
LINE
8
0
10
68636.3604
20
13236.3604
30
0
11
68763.6396
21
13363.6396
31
0
0
TEXT
8
0
10
67350
20
13444
30
0
40
180
1
2700
50
0
72
4
11
67350
21
13444
31
0
0
ENDBLK
8
0
0
BLOCK
8
0
2
*D28
70
1
10
0
20
0
30
0
3
*D28
0
LINE
8
0
10
68700
20
13300
30
0
11
72300
21
13300
31
0
0
LINE
8
0
10
68700
20
12090
30
0
11
68700
21
13408
31
0
0
LINE
8
0
10
68636.3604
20
13236.3604
30
0
11
68763.6396
21
13363.6396
31
0
0
LINE
8
0
10
72300
20
12090
30
0
11
72300
21
13408
31
0
0
LINE
8
0
10
72236.3604
20
13236.3604
30
0
11
72363.6396
21
13363.6396
31
0
0
TEXT
8
0
10
70500
20
13444
30
0
40
180
1
3600
50
0
72
4
11
70500
21
13444
31
0
0
ENDBLK
8
0
0
BLOCK
8
0
2
*D29
70
1
10
0
20
0
30
0
3
*D29
0
LINE
8
0
10
72300
20
13300
30
0
11
74700
21
13300
31
0
0
LINE
8
0
10
72300
20
12090
30
0
11
72300
21
13408
31
0
0
LINE
8
0
10
72236.3604
20
13236.3604
30
0
11
72363.6396
21
13363.6396
31
0
0
LINE
8
0
10
74700
20
12090
30
0
11
74700
21
13408
31
0
0
LINE
8
0
10
74636.3604
20
13236.3604
30
0
11
74763.6396
21
13363.6396
31
0
0
TEXT
8
0
10
73500
20
13444
30
0
40
180
1
2400
50
0
72
4
11
73500
21
13444
31
0
0
ENDBLK
8
0
0
BLOCK
8
0
2
*D30
70
1
10
0
20
0
30
0
3
*D30
0
LINE
8
0
10
74700
20
13300
30
0
11
78300
21
13300
31
0
0
LINE
8
0
10
74700
20
12090
30
0
11
74700
21
13408
31
0
0
LINE
8
0
10
74636.3604
20
13236.3604
30
0
11
74763.6396
21
13363.6396
31
0
0
LINE
8
0
10
78300
20
12090
30
0
11
78300
21
13408
31
0
0
LINE
8
0
10
78236.3604
20
13236.3604
30
0
11
78363.6396
21
13363.6396
31
0
0
TEXT
8
0
10
76500
20
13444
30
0
40
180
1
3600
50
0
72
4
11
76500
21
13444
31
0
0
ENDBLK
8
0
0
BLOCK
8
0
2
*D31
70
1
10
0
20
0
30
0
3
*D31
0
LINE
8
0
10
78300
20
13300
30
0
11
80700
21
13300
31
0
0
LINE
8
0
10
78300
20
12090
30
0
11
78300
21
13408
31
0
0
LINE
8
0
10
78236.3604
20
13236.3604
30
0
11
78363.6396
21
13363.6396
31
0
0
LINE
8
0
10
80700
20
12090
30
0
11
80700
21
13408
31
0
0
LINE
8
0
10
80636.3604
20
13236.3604
30
0
11
80763.6396
21
13363.6396
31
0
0
TEXT
8
0
10
79500
20
13444
30
0
40
180
1
2400
50
0
72
4
11
79500
21
13444
31
0
0
ENDBLK
8
0
0
BLOCK
8
0
2
*D32
70
1
10
0
20
0
30
0
3
*D32
0
LINE
8
0
10
80700
20
13300
30
0
11
84300
21
13300
31
0
0
LINE
8
0
10
80700
20
12090
30
0
11
80700
21
13408
31
0
0
LINE
8
0
10
80636.3604
20
13236.3604
30
0
11
80763.6396
21
13363.6396
31
0
0
LINE
8
0
10
84300
20
12090
30
0
11
84300
21
13408
31
0
0
LINE
8
0
10
84236.3604
20
13236.3604
30
0
11
84363.6396
21
13363.6396
31
0
0
TEXT
8
0
10
82500
20
13444
30
0
40
180
1
3600
50
0
72
4
11
82500
21
13444
31
0
0
ENDBLK
8
0
0
BLOCK
8
0
2
*D33
70
1
10
0
20
0
30
0
3
*D33
0
LINE
8
0
10
84300
20
13300
30
0
11
87000
21
13300
31
0
0
LINE
8
0
10
84300
20
12090
30
0
11
84300
21
13408
31
0
0
LINE
8
0
10
84236.3604
20
13236.3604
30
0
11
84363.6396
21
13363.6396
31
0
0
LINE
8
0
10
87000
20
12090
30
0
11
87000
21
13408
31
0
0
LINE
8
0
10
86936.3604
20
13236.3604
30
0
11
87063.6396
21
13363.6396
31
0
0
TEXT
8
0
10
85650
20
13444
30
0
40
180
1
2700
50
0
72
4
11
85650
21
13444
31
0
0
ENDBLK
8
0
0
BLOCK
8
0
2
*D34
70
1
10
0
20
0
30
0
3
*D34
0
LINE
8
0
10
66000
20
14300
30
0
11
87000
21
14300
31
0
0
LINE
8
0
10
66000
20
12090
30
0
11
66000
21
14408
31
0
0
LINE
8
0
10
65936.3604
20
14236.3604
30
0
11
66063.6396
21
14363.6396
31
0
0
LINE
8
0
10
87000
20
12090
30
0
11
87000
21
14408
31
0
0
LINE
8
0
10
86936.3604
20
14236.3604
30
0
11
87063.6396
21
14363.6396
31
0
0
TEXT
8
0
10
76500
20
14444
30
0
40
180
1
21000
50
0
72
4
11
76500
21
14444
31
0
0
ENDBLK
8
0
0
BLOCK
8
0
2
*D35
70
1
10
0
20
0
30
0
3
*D35
0
LINE
8
0
10
64700
20
0
30
0
11
64700
21
4800
31
0
0
LINE
8
0
10
65910
20
0
30
0
11
64592
21
0
31
0
0
LINE
8
0
10
64763.6396
20
-63.6396
30
0
11
64636.3604
21
63.6396
31
0
0
LINE
8
0
10
65910
20
4800
30
0
11
64592
21
4800
31
0
0
LINE
8
0
10
64763.6396
20
4736.3604
30
0
11
64636.3604
21
4863.6396
31
0
0
TEXT
8
0
10
64556
20
2400
30
0
40
180
1
4800
50
90
72
4
11
64556
21
2400
31
0
0
ENDBLK
8
0
0
BLOCK
8
0
2
*D36
70
1
10
0
20
0
30
0
3
*D36
0
LINE
8
0
10
64700
20
4800
30
0
11
64700
21
8400
31
0
0
LINE
8
0
10
65910
20
4800
30
0
11
64592
21
4800
31
0
0
LINE
8
0
10
64763.6396
20
4736.3604
30
0
11
64636.3604
21
4863.6396
31
0
0
LINE
8
0
10
65910
20
8400
30
0
11
64592
21
8400
31
0
0
LINE
8
0
10
64763.6396
20
8336.3604
30
0
11
64636.3604
21
8463.6396
31
0
0
TEXT
8
0
10
64556
20
6600
30
0
40
180
1
3600
50
90
72
4
11
64556
21
6600
31
0
0
ENDBLK
8
0
0
BLOCK
8
0
2
*D37
70
1
10
0
20
0
30
0
3
*D37
0
LINE
8
0
10
64700
20
8400
30
0
11
64700
21
12000
31
0
0
LINE
8
0
10
65910
20
8400
30
0
11
64592
21
8400
31
0
0
LINE
8
0
10
64763.6396
20
8336.3604
30
0
11
64636.3604
21
8463.6396
31
0
0
LINE
8
0
10
65910
20
12000
30
0
11
64592
21
12000
31
0
0
LINE
8
0
10
64763.6396
20
11936.3604
30
0
11
64636.3604
21
12063.6396
31
0
0
TEXT
8
0
10
64556
20
10200
30
0
40
180
1
3600
50
90
72
4
11
64556
21
10200
31
0
0
ENDBLK
8
0
0
BLOCK
8
0
2
*D38
70
1
10
0
20
0
30
0
3
*D38
0
LINE
8
0
10
63700
20
0
30
0
11
63700
21
12000
31
0
0
LINE
8
0
10
65910
20
0
30
0
11
63592
21
0
31
0
0
LINE
8
0
10
63763.6396
20
-63.6396
30
0
11
63636.3604
21
63.6396
31
0
0
LINE
8
0
10
65910
20
12000
30
0
11
63592
21
12000
31
0
0
LINE
8
0
10
63763.6396
20
11936.3604
30
0
11
63636.3604
21
12063.6396
31
0
0
TEXT
8
0
10
63556
20
6000
30
0
40
180
1
12000
50
90
72
4
11
63556
21
6000
31
0
0
ENDBLK
8
0
0
BLOCK
8
0
2
*D39
70
1
10
0
20
0
30
0
3
*D39
0
LINE
8
0
10
66000
20
-3100
30
0
11
87000
21
-3100
31
0
0
LINE
8
0
10
66000
20
-90
30
0
11
66000
21
-3208
31
0
0
LINE
8
0
10
65936.3604
20
-3163.6396
30
0
11
66063.6396
21
-3036.3604
31
0
0
LINE
8
0
10
87000
20
-90
30
0
11
87000
21
-3208
31
0
0
LINE
8
0
10
86936.3604
20
-3163.6396
30
0
11
87063.6396
21
-3036.3604
31
0
0
TEXT
8
0
10
76500
20
-2956
30
0
40
180
1
21000
50
0
72
4
11
76500
21
-2956
31
0
0
ENDBLK
8
0
0
BLOCK
8
0
2
*D40
70
1
10
0
20
0
30
0
3
*D40
0
LINE
8
0
10
99000
20
13300
30
0
11
101700
21
13300
31
0
0
LINE
8
0
10
99000
20
12090
30
0
11
99000
21
13408
31
0
0
LINE
8
0
10
98936.3604
20
13236.3604
30
0
11
99063.6396
21
13363.6396
31
0
0
LINE
8
0
10
101700
20
12090
30
0
11
101700
21
13408
31
0
0
LINE
8
0
10
101636.3604
20
13236.3604
30
0
11
101763.6396
21
13363.6396
31
0
0
TEXT
8
0
10
100350
20
13444
30
0
40
180
1
2700
50
0
72
4
11
100350
21
13444
31
0
0
ENDBLK
8
0
0
BLOCK
8
0
2
*D41
70
1
10
0
20
0
30
0
3
*D41
0
LINE
8
0
10
101700
20
13300
30
0
11
105300
21
13300
31
0
0
LINE
8
0
10
101700
20
12090
30
0
11
101700
21
13408
31
0
0
LINE
8
0
10
101636.3604
20
13236.3604
30
0
11
101763.6396
21
13363.6396
31
0
0
LINE
8
0
10
105300
20
12090
30
0
11
105300
21
13408
31
0
0
LINE
8
0
10
105236.3604
20
13236.3604
30
0
11
105363.6396
21
13363.6396
31
0
0
TEXT
8
0
10
103500
20
13444
30
0
40
180
1
3600
50
0
72
4
11
103500
21
13444
31
0
0
ENDBLK
8
0
0
BLOCK
8
0
2
*D42
70
1
10
0
20
0
30
0
3
*D42
0
LINE
8
0
10
105300
20
13300
30
0
11
107700
21
13300
31
0
0
LINE
8
0
10
105300
20
12090
30
0
11
105300
21
13408
31
0
0
LINE
8
0
10
105236.3604
20
13236.3604
30
0
11
105363.6396
21
13363.6396
31
0
0
LINE
8
0
10
107700
20
12090
30
0
11
107700
21
13408
31
0
0
LINE
8
0
10
107636.3604
20
13236.3604
30
0
11
107763.6396
21
13363.6396
31
0
0
TEXT
8
0
10
106500
20
13444
30
0
40
180
1
2400
50
0
72
4
11
106500
21
13444
31
0
0
ENDBLK
8
0
0
BLOCK
8
0
2
*D43
70
1
10
0
20
0
30
0
3
*D43
0
LINE
8
0
10
107700
20
13300
30
0
11
111300
21
13300
31
0
0
LINE
8
0
10
107700
20
12090
30
0
11
107700
21
13408
31
0
0
LINE
8
0
10
107636.3604
20
13236.3604
30
0
11
107763.6396
21
13363.6396
31
0
0
LINE
8
0
10
111300
20
12090
30
0
11
111300
21
13408
31
0
0
LINE
8
0
10
111236.3604
20
13236.3604
30
0
11
111363.6396
21
13363.6396
31
0
0
TEXT
8
0
10
109500
20
13444
30
0
40
180
1
3600
50
0
72
4
11
109500
21
13444
31
0
0
ENDBLK
8
0
0
BLOCK
8
0
2
*D44
70
1
10
0
20
0
30
0
3
*D44
0
LINE
8
0
10
111300
20
13300
30
0
11
113700
21
13300
31
0
0
LINE
8
0
10
111300
20
12090
30
0
11
111300
21
13408
31
0
0
LINE
8
0
10
111236.3604
20
13236.3604
30
0
11
111363.6396
21
13363.6396
31
0
0
LINE
8
0
10
113700
20
12090
30
0
11
113700
21
13408
31
0
0
LINE
8
0
10
113636.3604
20
13236.3604
30
0
11
113763.6396
21
13363.6396
31
0
0
TEXT
8
0
10
112500
20
13444
30
0
40
180
1
2400
50
0
72
4
11
112500
21
13444
31
0
0
ENDBLK
8
0
0
BLOCK
8
0
2
*D45
70
1
10
0
20
0
30
0
3
*D45
0
LINE
8
0
10
113700
20
13300
30
0
11
117300
21
13300
31
0
0
LINE
8
0
10
113700
20
12090
30
0
11
113700
21
13408
31
0
0
LINE
8
0
10
113636.3604
20
13236.3604
30
0
11
113763.6396
21
13363.6396
31
0
0
LINE
8
0
10
117300
20
12090
30
0
11
117300
21
13408
31
0
0
LINE
8
0
10
117236.3604
20
13236.3604
30
0
11
117363.6396
21
13363.6396
31
0
0
TEXT
8
0
10
115500
20
13444
30
0
40
180
1
3600
50
0
72
4
11
115500
21
13444
31
0
0
ENDBLK
8
0
0
BLOCK
8
0
2
*D46
70
1
10
0
20
0
30
0
3
*D46
0
LINE
8
0
10
117300
20
13300
30
0
11
120000
21
13300
31
0
0
LINE
8
0
10
117300
20
12090
30
0
11
117300
21
13408
31
0
0
LINE
8
0
10
117236.3604
20
13236.3604
30
0
11
117363.6396
21
13363.6396
31
0
0
LINE
8
0
10
120000
20
12090
30
0
11
120000
21
13408
31
0
0
LINE
8
0
10
119936.3604
20
13236.3604
30
0
11
120063.6396
21
13363.6396
31
0
0
TEXT
8
0
10
118650
20
13444
30
0
40
180
1
2700
50
0
72
4
11
118650
21
13444
31
0
0
ENDBLK
8
0
0
BLOCK
8
0
2
*D47
70
1
10
0
20
0
30
0
3
*D47
0
LINE
8
0
10
99000
20
14300
30
0
11
120000
21
14300
31
0
0
LINE
8
0
10
99000
20
12090
30
0
11
99000
21
14408
31
0
0
LINE
8
0
10
98936.3604
20
14236.3604
30
0
11
99063.6396
21
14363.6396
31
0
0
LINE
8
0
10
120000
20
12090
30
0
11
120000
21
14408
31
0
0
LINE
8
0
10
119936.3604
20
14236.3604
30
0
11
120063.6396
21
14363.6396
31
0
0
TEXT
8
0
10
109500
20
14444
30
0
40
180
1
21000
50
0
72
4
11
109500
21
14444
31
0
0
ENDBLK
8
0
0
BLOCK
8
0
2
*D48
70
1
10
0
20
0
30
0
3
*D48
0
LINE
8
0
10
97700
20
0
30
0
11
97700
21
4800
31
0
0
LINE
8
0
10
98910
20
0
30
0
11
97592
21
0
31
0
0
LINE
8
0
10
97763.6396
20
-63.6396
30
0
11
97636.3604
21
63.6396
31
0
0
LINE
8
0
10
98910
20
4800
30
0
11
97592
21
4800
31
0
0
LINE
8
0
10
97763.6396
20
4736.3604
30
0
11
97636.3604
21
4863.6396
31
0
0
TEXT
8
0
10
97556
20
2400
30
0
40
180
1
4800
50
90
72
4
11
97556
21
2400
31
0
0
ENDBLK
8
0
0
BLOCK
8
0
2
*D49
70
1
10
0
20
0
30
0
3
*D49
0
LINE
8
0
10
97700
20
4800
30
0
11
97700
21
8400
31
0
0
LINE
8
0
10
98910
20
4800
30
0
11
97592
21
4800
31
0
0
LINE
8
0
10
97763.6396
20
4736.3604
30
0
11
97636.3604
21
4863.6396
31
0
0
LINE
8
0
10
98910
20
8400
30
0
11
97592
21
8400
31
0
0
LINE
8
0
10
97763.6396
20
8336.3604
30
0
11
97636.3604
21
8463.6396
31
0
0
TEXT
8
0
10
97556
20
6600
30
0
40
180
1
3600
50
90
72
4
11
97556
21
6600
31
0
0
ENDBLK
8
0
0
BLOCK
8
0
2
*D50
70
1
10
0
20
0
30
0
3
*D50
0
LINE
8
0
10
97700
20
8400
30
0
11
97700
21
12000
31
0
0
LINE
8
0
10
98910
20
8400
30
0
11
97592
21
8400
31
0
0
LINE
8
0
10
97763.6396
20
8336.3604
30
0
11
97636.3604
21
8463.6396
31
0
0
LINE
8
0
10
98910
20
12000
30
0
11
97592
21
12000
31
0
0
LINE
8
0
10
97763.6396
20
11936.3604
30
0
11
97636.3604
21
12063.6396
31
0
0
TEXT
8
0
10
97556
20
10200
30
0
40
180
1
3600
50
90
72
4
11
97556
21
10200
31
0
0
ENDBLK
8
0
0
BLOCK
8
0
2
*D51
70
1
10
0
20
0
30
0
3
*D51
0
LINE
8
0
10
96700
20
0
30
0
11
96700
21
12000
31
0
0
LINE
8
0
10
98910
20
0
30
0
11
96592
21
0
31
0
0
LINE
8
0
10
96763.6396
20
-63.6396
30
0
11
96636.3604
21
63.6396
31
0
0
LINE
8
0
10
98910
20
12000
30
0
11
96592
21
12000
31
0
0
LINE
8
0
10
96763.6396
20
11936.3604
30
0
11
96636.3604
21
12063.6396
31
0
0
TEXT
8
0
10
96556
20
6000
30
0
40
180
1
12000
50
90
72
4
11
96556
21
6000
31
0
0
ENDBLK
8
0
0
BLOCK
8
0
2
*D52
70
1
10
0
20
0
30
0
3
*D52
0
LINE
8
0
10
99000
20
-3100
30
0
11
120000
21
-3100
31
0
0
LINE
8
0
10
99000
20
-90
30
0
11
99000
21
-3208
31
0
0
LINE
8
0
10
98936.3604
20
-3163.6396
30
0
11
99063.6396
21
-3036.3604
31
0
0
LINE
8
0
10
120000
20
-90
30
0
11
120000
21
-3208
31
0
0
LINE
8
0
10
119936.3604
20
-3163.6396
30
0
11
120063.6396
21
-3036.3604
31
0
0
TEXT
8
0
10
109500
20
-2956
30
0
40
180
1
21000
50
0
72
4
11
109500
21
-2956
31
0
0
ENDBLK
8
0
0
ENDSEC
0
SECTION
2
ENTITIES
0
POLYLINE
8
A-WALL
66
1
10
0
20
0
30
0
70
1
0
VERTEX
8
A-WALL
10
8580
20
-120
30
0
0
VERTEX
8
A-WALL
10
8580
20
7740
30
0
0
VERTEX
8
A-WALL
10
7740
20
7740
30
0
0
VERTEX
8
A-WALL
10
7740
20
8460
30
0
0
VERTEX
8
A-WALL
10
8580
20
8460
30
0
0
VERTEX
8
A-WALL
10
8580
20
12110
30
0
0
VERTEX
8
A-WALL
10
12420
20
12110
30
0
0
VERTEX
8
A-WALL
10
12420
20
8460
30
0
0
VERTEX
8
A-WALL
10
13260
20
8460
30
0
0
VERTEX
8
A-WALL
10
13260
20
7740
30
0
0
VERTEX
8
A-WALL
10
12420
20
7740
30
0
0
VERTEX
8
A-WALL
10
12420
20
-120
30
0
0
VERTEX
8
A-WALL
10
11100
20
-120
30
0
0
VERTEX
8
A-WALL
10
11100
20
110
30
0
0
VERTEX
8
A-WALL
10
12180
20
110
30
0
0
VERTEX
8
A-WALL
10
12180
20
7140
30
0
0
VERTEX
8
A-WALL
10
12000
20
7140
30
0
0
VERTEX
8
A-WALL
10
12000
20
7260
30
0
0
VERTEX
8
A-WALL
10
12180
20
7260
30
0
0
VERTEX
8
A-WALL
10
12180
20
11880
30
0
0
VERTEX
8
A-WALL
10
8820
20
11880
30
0
0
VERTEX
8
A-WALL
10
8820
20
7260
30
0
0
VERTEX
8
A-WALL
10
9000
20
7260
30
0
0
VERTEX
8
A-WALL
10
9000
20
7140
30
0
0
VERTEX
8
A-WALL
10
8820
20
7140
30
0
0
VERTEX
8
A-WALL
10
8820
20
110
30
0
0
VERTEX
8
A-WALL
10
9900
20
110
30
0
0
VERTEX
8
A-WALL
10
9900
20
-120
30
0
0
SEQEND
8
A-WALL
0
POLYLINE
8
A-WALL
66
1
10
0
20
0
30
0
70
1
0
VERTEX
8
A-WALL
10
9480
20
4980
30
0
0
VERTEX
8
A-WALL
10
9480
20
7000
30
0
0
VERTEX
8
A-WALL
10
11520
20
7000
30
0
0
VERTEX
8
A-WALL
10
11520
20
4980
30
0
0
VERTEX
8
A-WALL
10
10950
20
4980
30
0
0
VERTEX
8
A-WALL
10
10950
20
5210
30
0
0
VERTEX
8
A-WALL
10
11280
20
5210
30
0
0
VERTEX
8
A-WALL
10
11280
20
6780
30
0
0
VERTEX
8
A-WALL
10
9720
20
6780
30
0
0
VERTEX
8
A-WALL
10
9720
20
5210
30
0
0
VERTEX
8
A-WALL
10
10050
20
5210
30
0
0
VERTEX
8
A-WALL
10
10050
20
4980
30
0
0
SEQEND
8
A-WALL
0
POLYLINE
8
A-WALL
66
1
10
0
20
0
30
0
70
1
0
VERTEX
8
A-WALL
10
8580
20
7860
30
0
0
VERTEX
8
A-WALL
10
8580
20
8340
30
0
0
VERTEX
8
A-WALL
10
7860
20
8340
30
0
0
VERTEX
8
A-WALL
10
7860
20
7860
30
0
0
SEQEND
8
A-WALL
0
POLYLINE
8
A-WALL
66
1
10
0
20
0
30
0
70
1
0
VERTEX
8
A-WALL
10
13140
20
7860
30
0
0
VERTEX
8
A-WALL
10
13140
20
8340
30
0
0
VERTEX
8
A-WALL
10
12420
20
8340
30
0
0
VERTEX
8
A-WALL
10
12420
20
7860
30
0
0
SEQEND
8
A-WALL
0
POLYLINE
8
A-WALL
66
1
10
0
20
0
30
0
70
1
0
VERTEX
8
A-WALL
10
-120
20
9480
30
0
0
VERTEX
8
A-WALL
10
-120
20
12110
30
0
0
VERTEX
8
A-WALL
10
2820
20
12110
30
0
0
VERTEX
8
A-WALL
10
2820
20
11880
30
0
0
VERTEX
8
A-WALL
10
2760
20
11880
30
0
0
VERTEX
8
A-WALL
10
2760
20
10700
30
0
0
VERTEX
8
A-WALL
10
2640
20
10700
30
0
0
VERTEX
8
A-WALL
10
2640
20
11880
30
0
0
VERTEX
8
A-WALL
10
120
20
11880
30
0
0
VERTEX
8
A-WALL
10
120
20
9660
30
0
0
VERTEX
8
A-WALL
10
2640
20
9660
30
0
0
VERTEX
8
A-WALL
10
2640
20
9900
30
0
0
VERTEX
8
A-WALL
10
2760
20
9900
30
0
0
VERTEX
8
A-WALL
10
2760
20
9540
30
0
0
VERTEX
8
A-WALL
10
120
20
9540
30
0
0
VERTEX
8
A-WALL
10
120
20
9480
30
0
0
SEQEND
8
A-WALL
0
POLYLINE
8
A-WALL
66
1
10
0
20
0
30
0
70
1
0
VERTEX
8
A-WALL
10
20880
20
9480
30
0
0
VERTEX
8
A-WALL
10
20880
20
9540
30
0
0
VERTEX
8
A-WALL
10
18240
20
9540
30
0
0
VERTEX
8
A-WALL
10
18240
20
9900
30
0
0
VERTEX
8
A-WALL
10
18360
20
9900
30
0
0
VERTEX
8
A-WALL
10
18360
20
9660
30
0
0
VERTEX
8
A-WALL
10
20880
20
9660
30
0
0
VERTEX
8
A-WALL
10
20880
20
11880
30
0
0
VERTEX
8
A-WALL
10
18360
20
11880
30
0
0
VERTEX
8
A-WALL
10
18360
20
10700
30
0
0
VERTEX
8
A-WALL
10
18240
20
10700
30
0
0
VERTEX
8
A-WALL
10
18240
20
11880
30
0
0
VERTEX
8
A-WALL
10
18180
20
11880
30
0
0
VERTEX
8
A-WALL
10
18180
20
12110
30
0
0
VERTEX
8
A-WALL
10
21120
20
12110
30
0
0
VERTEX
8
A-WALL
10
21120
20
9480
30
0
0
SEQEND
8
A-WALL
0
POLYLINE
8
A-WALL
66
1
10
0
20
0
30
0
70
1
0
VERTEX
8
A-WALL
10
5640
20
11340
30
0
0
VERTEX
8
A-WALL
10
5640
20
12060
30
0
0
VERTEX
8
A-WALL
10
6360
20
12060
30
0
0
VERTEX
8
A-WALL
10
6360
20
11340
30
0
0
SEQEND
8
A-WALL
0
POLYLINE
8
A-WALL
66
1
10
0
20
0
30
0
70
1
0
VERTEX
8
A-WALL
10
14640
20
11340
30
0
0
VERTEX
8
A-WALL
10
14640
20
12060
30
0
0
VERTEX
8
A-WALL
10
15360
20
12060
30
0
0
VERTEX
8
A-WALL
10
15360
20
11340
30
0
0
SEQEND
8
A-WALL
0
POLYLINE
8
A-WALL
66
1
10
0
20
0
30
0
70
1
0
VERTEX
8
A-WALL
10
6240
20
11460
30
0
0
VERTEX
8
A-WALL
10
6240
20
11940
30
0
0
VERTEX
8
A-WALL
10
5760
20
11940
30
0
0
VERTEX
8
A-WALL
10
5760
20
11460
30
0
0
SEQEND
8
A-WALL
0
POLYLINE
8
A-WALL
66
1
10
0
20
0
30
0
70
1
0
VERTEX
8
A-WALL
10
15240
20
11460
30
0
0
VERTEX
8
A-WALL
10
15240
20
11940
30
0
0
VERTEX
8
A-WALL
10
14760
20
11940
30
0
0
VERTEX
8
A-WALL
10
14760
20
11460
30
0
0
SEQEND
8
A-WALL
0
LINE
8
A-DOOR
10
2700
20
9900
30
0
11
3500
21
9900
31
0
0
ARC
8
A-DOOR
10
2700
20
9900
30
0
40
800
50
0
51
90
0
LINE
8
A-DOOR
10
18300
20
9900
30
0
11
17500
21
9900
31
0
0
ARC
8
A-DOOR
10
18300
20
9900
30
0
40
800
50
90
51
180
0
SOLID
8
S-COLS
10
-225
20
-115
30
0
11
225
21
-115
31
0
12
-225
22
115
32
0
13
225
23
115
33
0
0
POLYLINE
8
S-COLS
66
1
10
0
20
0
30
0
70
1
0
VERTEX
8
S-COLS
10
-225
20
-115
30
0
0
VERTEX
8
S-COLS
10
225
20
-115
30
0
0
VERTEX
8
S-COLS
10
225
20
115
30
0
0
VERTEX
8
S-COLS
10
-225
20
115
30
0
0
SEQEND
8
S-COLS
0
SOLID
8
S-COLS
10
-115
20
4575
30
0
11
115
21
4575
31
0
12
-115
22
5025
32
0
13
115
23
5025
33
0
0
POLYLINE
8
S-COLS
66
1
10
0
20
0
30
0
70
1
0
VERTEX
8
S-COLS
10
-115
20
4575
30
0
0
VERTEX
8
S-COLS
10
115
20
4575
30
0
0
VERTEX
8
S-COLS
10
115
20
5025
30
0
0
VERTEX
8
S-COLS
10
-115
20
5025
30
0
0
SEQEND
8
S-COLS
0
SOLID
8
S-COLS
10
-115
20
8175
30
0
11
115
21
8175
31
0
12
-115
22
8625
32
0
13
115
23
8625
33
0
0
POLYLINE
8
S-COLS
66
1
10
0
20
0
30
0
70
1
0
VERTEX
8
S-COLS
10
-115
20
8175
30
0
0
VERTEX
8
S-COLS
10
115
20
8175
30
0
0
VERTEX
8
S-COLS
10
115
20
8625
30
0
0
VERTEX
8
S-COLS
10
-115
20
8625
30
0
0
SEQEND
8
S-COLS
0
SOLID
8
S-COLS
10
-225
20
11885
30
0
11
225
21
11885
31
0
12
-225
22
12115
32
0
13
225
23
12115
33
0
0
POLYLINE
8
S-COLS
66
1
10
0
20
0
30
0
70
1
0
VERTEX
8
S-COLS
10
-225
20
11885
30
0
0
VERTEX
8
S-COLS
10
225
20
11885
30
0
0
VERTEX
8
S-COLS
10
225
20
12115
30
0
0
VERTEX
8
S-COLS
10
-225
20
12115
30
0
0
SEQEND
8
S-COLS
0
SOLID
8
S-COLS
10
2475
20
-115
30
0
11
2925
21
-115
31
0
12
2475
22
115
32
0
13
2925
23
115
33
0
0
POLYLINE
8
S-COLS
66
1
10
0
20
0
30
0
70
1
0
VERTEX
8
S-COLS
10
2475
20
-115
30
0
0
VERTEX
8
S-COLS
10
2925
20
-115
30
0
0
VERTEX
8
S-COLS
10
2925
20
115
30
0
0
VERTEX
8
S-COLS
10
2475
20
115
30
0
0
SEQEND
8
S-COLS
0
SOLID
8
S-COLS
10
2585
20
8175
30
0
11
2815
21
8175
31
0
12
2585
22
8625
32
0
13
2815
23
8625
33
0
0
POLYLINE
8
S-COLS
66
1
10
0
20
0
30
0
70
1
0
VERTEX
8
S-COLS
10
2585
20
8175
30
0
0
VERTEX
8
S-COLS
10
2815
20
8175
30
0
0
VERTEX
8
S-COLS
10
2815
20
8625
30
0
0
VERTEX
8
S-COLS
10
2585
20
8625
30
0
0
SEQEND
8
S-COLS
0
SOLID
8
S-COLS
10
2475
20
11885
30
0
11
2925
21
11885
31
0
12
2475
22
12115
32
0
13
2925
23
12115
33
0
0
POLYLINE
8
S-COLS
66
1
10
0
20
0
30
0
70
1
0
VERTEX
8
S-COLS
10
2475
20
11885
30
0
0
VERTEX
8
S-COLS
10
2925
20
11885
30
0
0
VERTEX
8
S-COLS
10
2925
20
12115
30
0
0
VERTEX
8
S-COLS
10
2475
20
12115
30
0
0
SEQEND
8
S-COLS
0
SOLID
8
S-COLS
10
6075
20
-115
30
0
11
6525
21
-115
31
0
12
6075
22
115
32
0
13
6525
23
115
33
0
0
POLYLINE
8
S-COLS
66
1
10
0
20
0
30
0
70
1
0
VERTEX
8
S-COLS
10
6075
20
-115
30
0
0
VERTEX
8
S-COLS
10
6525
20
-115
30
0
0
VERTEX
8
S-COLS
10
6525
20
115
30
0
0
VERTEX
8
S-COLS
10
6075
20
115
30
0
0
SEQEND
8
S-COLS
0
SOLID
8
S-COLS
10
6185
20
4575
30
0
11
6415
21
4575
31
0
12
6185
22
5025
32
0
13
6415
23
5025
33
0
0
POLYLINE
8
S-COLS
66
1
10
0
20
0
30
0
70
1
0
VERTEX
8
S-COLS
10
6185
20
4575
30
0
0
VERTEX
8
S-COLS
10
6415
20
4575
30
0
0
VERTEX
8
S-COLS
10
6415
20
5025
30
0
0
VERTEX
8
S-COLS
10
6185
20
5025
30
0
0
SEQEND
8
S-COLS
0
SOLID
8
S-COLS
10
6185
20
8175
30
0
11
6415
21
8175
31
0
12
6185
22
8625
32
0
13
6415
23
8625
33
0
0
POLYLINE
8
S-COLS
66
1
10
0
20
0
30
0
70
1
0
VERTEX
8
S-COLS
10
6185
20
8175
30
0
0
VERTEX
8
S-COLS
10
6415
20
8175
30
0
0
VERTEX
8
S-COLS
10
6415
20
8625
30
0
0
VERTEX
8
S-COLS
10
6185
20
8625
30
0
0
SEQEND
8
S-COLS
0
SOLID
8
S-COLS
10
6075
20
11885
30
0
11
6525
21
11885
31
0
12
6075
22
12115
32
0
13
6525
23
12115
33
0
0
POLYLINE
8
S-COLS
66
1
10
0
20
0
30
0
70
1
0
VERTEX
8
S-COLS
10
6075
20
11885
30
0
0
VERTEX
8
S-COLS
10
6525
20
11885
30
0
0
VERTEX
8
S-COLS
10
6525
20
12115
30
0
0
VERTEX
8
S-COLS
10
6075
20
12115
30
0
0
SEQEND
8
S-COLS
0
SOLID
8
S-COLS
10
8475
20
-115
30
0
11
8925
21
-115
31
0
12
8475
22
115
32
0
13
8925
23
115
33
0
0
POLYLINE
8
S-COLS
66
1
10
0
20
0
30
0
70
1
0
VERTEX
8
S-COLS
10
8475
20
-115
30
0
0
VERTEX
8
S-COLS
10
8925
20
-115
30
0
0
VERTEX
8
S-COLS
10
8925
20
115
30
0
0
VERTEX
8
S-COLS
10
8475
20
115
30
0
0
SEQEND
8
S-COLS
0
SOLID
8
S-COLS
10
8585
20
4575
30
0
11
8815
21
4575
31
0
12
8585
22
5025
32
0
13
8815
23
5025
33
0
0
POLYLINE
8
S-COLS
66
1
10
0
20
0
30
0
70
1
0
VERTEX
8
S-COLS
10
8585
20
4575
30
0
0
VERTEX
8
S-COLS
10
8815
20
4575
30
0
0
VERTEX
8
S-COLS
10
8815
20
5025
30
0
0
VERTEX
8
S-COLS
10
8585
20
5025
30
0
0
SEQEND
8
S-COLS
0
SOLID
8
S-COLS
10
8585
20
8175
30
0
11
8815
21
8175
31
0
12
8585
22
8625
32
0
13
8815
23
8625
33
0
0
POLYLINE
8
S-COLS
66
1
10
0
20
0
30
0
70
1
0
VERTEX
8
S-COLS
10
8585
20
8175
30
0
0
VERTEX
8
S-COLS
10
8815
20
8175
30
0
0
VERTEX
8
S-COLS
10
8815
20
8625
30
0
0
VERTEX
8
S-COLS
10
8585
20
8625
30
0
0
SEQEND
8
S-COLS
0
SOLID
8
S-COLS
10
8475
20
11885
30
0
11
8925
21
11885
31
0
12
8475
22
12115
32
0
13
8925
23
12115
33
0
0
POLYLINE
8
S-COLS
66
1
10
0
20
0
30
0
70
1
0
VERTEX
8
S-COLS
10
8475
20
11885
30
0
0
VERTEX
8
S-COLS
10
8925
20
11885
30
0
0
VERTEX
8
S-COLS
10
8925
20
12115
30
0
0
VERTEX
8
S-COLS
10
8475
20
12115
30
0
0
SEQEND
8
S-COLS
0
SOLID
8
S-COLS
10
12075
20
-115
30
0
11
12525
21
-115
31
0
12
12075
22
115
32
0
13
12525
23
115
33
0
0
POLYLINE
8
S-COLS
66
1
10
0
20
0
30
0
70
1
0
VERTEX
8
S-COLS
10
12075
20
-115
30
0
0
VERTEX
8
S-COLS
10
12525
20
-115
30
0
0
VERTEX
8
S-COLS
10
12525
20
115
30
0
0
VERTEX
8
S-COLS
10
12075
20
115
30
0
0
SEQEND
8
S-COLS
0
SOLID
8
S-COLS
10
12185
20
4575
30
0
11
12415
21
4575
31
0
12
12185
22
5025
32
0
13
12415
23
5025
33
0
0
POLYLINE
8
S-COLS
66
1
10
0
20
0
30
0
70
1
0
VERTEX
8
S-COLS
10
12185
20
4575
30
0
0
VERTEX
8
S-COLS
10
12415
20
4575
30
0
0
VERTEX
8
S-COLS
10
12415
20
5025
30
0
0
VERTEX
8
S-COLS
10
12185
20
5025
30
0
0
SEQEND
8
S-COLS
0
SOLID
8
S-COLS
10
12185
20
8175
30
0
11
12415
21
8175
31
0
12
12185
22
8625
32
0
13
12415
23
8625
33
0
0
POLYLINE
8
S-COLS
66
1
10
0
20
0
30
0
70
1
0
VERTEX
8
S-COLS
10
12185
20
8175
30
0
0
VERTEX
8
S-COLS
10
12415
20
8175
30
0
0
VERTEX
8
S-COLS
10
12415
20
8625
30
0
0
VERTEX
8
S-COLS
10
12185
20
8625
30
0
0
SEQEND
8
S-COLS
0
SOLID
8
S-COLS
10
12075
20
11885
30
0
11
12525
21
11885
31
0
12
12075
22
12115
32
0
13
12525
23
12115
33
0
0
POLYLINE
8
S-COLS
66
1
10
0
20
0
30
0
70
1
0
VERTEX
8
S-COLS
10
12075
20
11885
30
0
0
VERTEX
8
S-COLS
10
12525
20
11885
30
0
0
VERTEX
8
S-COLS
10
12525
20
12115
30
0
0
VERTEX
8
S-COLS
10
12075
20
12115
30
0
0
SEQEND
8
S-COLS
0
SOLID
8
S-COLS
10
14475
20
-115
30
0
11
14925
21
-115
31
0
12
14475
22
115
32
0
13
14925
23
115
33
0
0
POLYLINE
8
S-COLS
66
1
10
0
20
0
30
0
70
1
0
VERTEX
8
S-COLS
10
14475
20
-115
30
0
0
VERTEX
8
S-COLS
10
14925
20
-115
30
0
0
VERTEX
8
S-COLS
10
14925
20
115
30
0
0
VERTEX
8
S-COLS
10
14475
20
115
30
0
0
SEQEND
8
S-COLS
0
SOLID
8
S-COLS
10
14585
20
4575
30
0
11
14815
21
4575
31
0
12
14585
22
5025
32
0
13
14815
23
5025
33
0
0
POLYLINE
8
S-COLS
66
1
10
0
20
0
30
0
70
1
0
VERTEX
8
S-COLS
10
14585
20
4575
30
0
0
VERTEX
8
S-COLS
10
14815
20
4575
30
0
0
VERTEX
8
S-COLS
10
14815
20
5025
30
0
0
VERTEX
8
S-COLS
10
14585
20
5025
30
0
0
SEQEND
8
S-COLS
0
SOLID
8
S-COLS
10
14585
20
8175
30
0
11
14815
21
8175
31
0
12
14585
22
8625
32
0
13
14815
23
8625
33
0
0
POLYLINE
8
S-COLS
66
1
10
0
20
0
30
0
70
1
0
VERTEX
8
S-COLS
10
14585
20
8175
30
0
0
VERTEX
8
S-COLS
10
14815
20
8175
30
0
0
VERTEX
8
S-COLS
10
14815
20
8625
30
0
0
VERTEX
8
S-COLS
10
14585
20
8625
30
0
0
SEQEND
8
S-COLS
0
SOLID
8
S-COLS
10
14475
20
11885
30
0
11
14925
21
11885
31
0
12
14475
22
12115
32
0
13
14925
23
12115
33
0
0
POLYLINE
8
S-COLS
66
1
10
0
20
0
30
0
70
1
0
VERTEX
8
S-COLS
10
14475
20
11885
30
0
0
VERTEX
8
S-COLS
10
14925
20
11885
30
0
0
VERTEX
8
S-COLS
10
14925
20
12115
30
0
0
VERTEX
8
S-COLS
10
14475
20
12115
30
0
0
SEQEND
8
S-COLS
0
SOLID
8
S-COLS
10
18075
20
-115
30
0
11
18525
21
-115
31
0
12
18075
22
115
32
0
13
18525
23
115
33
0
0
POLYLINE
8
S-COLS
66
1
10
0
20
0
30
0
70
1
0
VERTEX
8
S-COLS
10
18075
20
-115
30
0
0
VERTEX
8
S-COLS
10
18525
20
-115
30
0
0
VERTEX
8
S-COLS
10
18525
20
115
30
0
0
VERTEX
8
S-COLS
10
18075
20
115
30
0
0
SEQEND
8
S-COLS
0
SOLID
8
S-COLS
10
18185
20
4575
30
0
11
18415
21
4575
31
0
12
18185
22
5025
32
0
13
18415
23
5025
33
0
0
POLYLINE
8
S-COLS
66
1
10
0
20
0
30
0
70
1
0
VERTEX
8
S-COLS
10
18185
20
4575
30
0
0
VERTEX
8
S-COLS
10
18415
20
4575
30
0
0
VERTEX
8
S-COLS
10
18415
20
5025
30
0
0
VERTEX
8
S-COLS
10
18185
20
5025
30
0
0
SEQEND
8
S-COLS
0
SOLID
8
S-COLS
10
18185
20
8175
30
0
11
18415
21
8175
31
0
12
18185
22
8625
32
0
13
18415
23
8625
33
0
0
POLYLINE
8
S-COLS
66
1
10
0
20
0
30
0
70
1
0
VERTEX
8
S-COLS
10
18185
20
8175
30
0
0
VERTEX
8
S-COLS
10
18415
20
8175
30
0
0
VERTEX
8
S-COLS
10
18415
20
8625
30
0
0
VERTEX
8
S-COLS
10
18185
20
8625
30
0
0
SEQEND
8
S-COLS
0
SOLID
8
S-COLS
10
18075
20
11885
30
0
11
18525
21
11885
31
0
12
18075
22
12115
32
0
13
18525
23
12115
33
0
0
POLYLINE
8
S-COLS
66
1
10
0
20
0
30
0
70
1
0
VERTEX
8
S-COLS
10
18075
20
11885
30
0
0
VERTEX
8
S-COLS
10
18525
20
11885
30
0
0
VERTEX
8
S-COLS
10
18525
20
12115
30
0
0
VERTEX
8
S-COLS
10
18075
20
12115
30
0
0
SEQEND
8
S-COLS
0
SOLID
8
S-COLS
10
20775
20
-115
30
0
11
21225
21
-115
31
0
12
20775
22
115
32
0
13
21225
23
115
33
0
0
POLYLINE
8
S-COLS
66
1
10
0
20
0
30
0
70
1
0
VERTEX
8
S-COLS
10
20775
20
-115
30
0
0
VERTEX
8
S-COLS
10
21225
20
-115
30
0
0
VERTEX
8
S-COLS
10
21225
20
115
30
0
0
VERTEX
8
S-COLS
10
20775
20
115
30
0
0
SEQEND
8
S-COLS
0
SOLID
8
S-COLS
10
20885
20
4575
30
0
11
21115
21
4575
31
0
12
20885
22
5025
32
0
13
21115
23
5025
33
0
0
POLYLINE
8
S-COLS
66
1
10
0
20
0
30
0
70
1
0
VERTEX
8
S-COLS
10
20885
20
4575
30
0
0
VERTEX
8
S-COLS
10
21115
20
4575
30
0
0
VERTEX
8
S-COLS
10
21115
20
5025
30
0
0
VERTEX
8
S-COLS
10
20885
20
5025
30
0
0
SEQEND
8
S-COLS
0
SOLID
8
S-COLS
10
20885
20
8175
30
0
11
21115
21
8175
31
0
12
20885
22
8625
32
0
13
21115
23
8625
33
0
0
POLYLINE
8
S-COLS
66
1
10
0
20
0
30
0
70
1
0
VERTEX
8
S-COLS
10
20885
20
8175
30
0
0
VERTEX
8
S-COLS
10
21115
20
8175
30
0
0
VERTEX
8
S-COLS
10
21115
20
8625
30
0
0
VERTEX
8
S-COLS
10
20885
20
8625
30
0
0
SEQEND
8
S-COLS
0
SOLID
8
S-COLS
10
20775
20
11885
30
0
11
21225
21
11885
31
0
12
20775
22
12115
32
0
13
21225
23
12115
33
0
0
POLYLINE
8
S-COLS
66
1
10
0
20
0
30
0
70
1
0
VERTEX
8
S-COLS
10
20775
20
11885
30
0
0
VERTEX
8
S-COLS
10
21225
20
11885
30
0
0
VERTEX
8
S-COLS
10
21225
20
12115
30
0
0
VERTEX
8
S-COLS
10
20775
20
12115
30
0
0
SEQEND
8
S-COLS
0
LINE
8
P-DUCT
10
5760
20
11460
30
0
11
6240
21
11940
31
0
0
LINE
8
P-DUCT
10
5760
20
11940
30
0
11
6240
21
11460
31
0
0
LINE
8
P-DUCT
10
7860
20
7860
30
0
11
8640
21
8340
31
0
0
LINE
8
P-DUCT
10
7860
20
8340
30
0
11
8640
21
7860
31
0
0
LINE
8
P-DUCT
10
14760
20
11460
30
0
11
15240
21
11940
31
0
0
LINE
8
P-DUCT
10
14760
20
11940
30
0
11
15240
21
11460
31
0
0
LINE
8
P-DUCT
10
12360
20
7860
30
0
11
13140
21
8340
31
0
0
LINE
8
P-DUCT
10
12360
20
8340
30
0
11
13140
21
7860
31
0
0
LINE
8
A-STRS
10
8950
20
8400
30
0
11
10450
21
8400
31
0
0
LINE
8
A-STRS
10
10550
20
8400
30
0
11
12050
21
8400
31
0
0
LINE
8
A-STRS
10
8950
20
8650
30
0
11
10450
21
8650
31
0
0
LINE
8
A-STRS
10
10550
20
8650
30
0
11
12050
21
8650
31
0
0
LINE
8
A-STRS
10
8950
20
8900
30
0
11
10450
21
8900
31
0
0
LINE
8
A-STRS
10
10550
20
8900
30
0
11
12050
21
8900
31
0
0
LINE
8
A-STRS
10
8950
20
9150
30
0
11
10450
21
9150
31
0
0
LINE
8
A-STRS
10
10550
20
9150
30
0
11
12050
21
9150
31
0
0
LINE
8
A-STRS
10
8950
20
9400
30
0
11
10450
21
9400
31
0
0
LINE
8
A-STRS
10
10550
20
9400
30
0
11
12050
21
9400
31
0
0
LINE
8
A-STRS
10
8950
20
9650
30
0
11
10450
21
9650
31
0
0
LINE
8
A-STRS
10
10550
20
9650
30
0
11
12050
21
9650
31
0
0
LINE
8
A-STRS
10
8950
20
9900
30
0
11
10450
21
9900
31
0
0
LINE
8
A-STRS
10
10550
20
9900
30
0
11
12050
21
9900
31
0
0
LINE
8
A-STRS
10
8950
20
10150
30
0
11
10450
21
10150
31
0
0
LINE
8
A-STRS
10
10550
20
10150
30
0
11
12050
21
10150
31
0
0
LINE
8
A-STRS
10
8950
20
10400
30
0
11
10450
21
10400
31
0
0
LINE
8
A-STRS
10
10550
20
10400
30
0
11
12050
21
10400
31
0
0
LINE
8
A-STRS
10
8950
20
10650
30
0
11
10450
21
10650
31
0
0
LINE
8
A-STRS
10
10550
20
10650
30
0
11
12050
21
10650
31
0
0
LINE
8
A-STRS
10
8950
20
10900
30
0
11
10450
21
10900
31
0
0
LINE
8
A-STRS
10
10550
20
10900
30
0
11
12050
21
10900
31
0
0
LINE
8
A-STRS
10
8950
20
11150
30
0
11
10450
21
11150
31
0
0
LINE
8
A-STRS
10
10550
20
11150
30
0
11
12050
21
11150
31
0
0
LINE
8
A-STRS
10
8950
20
11400
30
0
11
10450
21
11400
31
0
0
LINE
8
A-STRS
10
10550
20
11400
30
0
11
12050
21
11400
31
0
0
LINE
8
A-STRS
10
10450
20
8400
30
0
11
10450
21
11400
31
0
0
LINE
8
A-STRS
10
10550
20
8400
30
0
11
10550
21
11400
31
0
0
LINE
8
A-LIFT
10
9800
20
5300
30
0
11
11200
21
6700
31
0
0
LINE
8
A-LIFT
10
9800
20
6700
30
0
11
11200
21
5300
31
0
0
POLYLINE
8
A-PRKG
66
1
10
0
20
0
30
0
70
1
0
VERTEX
8
A-PRKG
10
300
20
700
30
0
0
VERTEX
8
A-PRKG
10
2800
20
700
30
0
0
VERTEX
8
A-PRKG
10
2800
20
5700
30
0
0
VERTEX
8
A-PRKG
10
300
20
5700
30
0
0
SEQEND
8
A-PRKG
0
POLYLINE
8
A-PRKG
66
1
10
0
20
0
30
0
70
1
0
VERTEX
8
A-PRKG
10
2800
20
700
30
0
0
VERTEX
8
A-PRKG
10
5300
20
700
30
0
0
VERTEX
8
A-PRKG
10
5300
20
5700
30
0
0
VERTEX
8
A-PRKG
10
2800
20
5700
30
0
0
SEQEND
8
A-PRKG
0
POLYLINE
8
A-PRKG
66
1
10
0
20
0
30
0
70
1
0
VERTEX
8
A-PRKG
10
5300
20
700
30
0
0
VERTEX
8
A-PRKG
10
7800
20
700
30
0
0
VERTEX
8
A-PRKG
10
7800
20
5700
30
0
0
VERTEX
8
A-PRKG
10
5300
20
5700
30
0
0
SEQEND
8
A-PRKG
0
POLYLINE
8
A-PRKG
66
1
10
0
20
0
30
0
70
1
0
VERTEX
8
A-PRKG
10
13000
20
700
30
0
0
VERTEX
8
A-PRKG
10
15500
20
700
30
0
0
VERTEX
8
A-PRKG
10
15500
20
5700
30
0
0
VERTEX
8
A-PRKG
10
13000
20
5700
30
0
0
SEQEND
8
A-PRKG
0
POLYLINE
8
A-PRKG
66
1
10
0
20
0
30
0
70
1
0
VERTEX
8
A-PRKG
10
15500
20
700
30
0
0
VERTEX
8
A-PRKG
10
18000
20
700
30
0
0
VERTEX
8
A-PRKG
10
18000
20
5700
30
0
0
VERTEX
8
A-PRKG
10
15500
20
5700
30
0
0
SEQEND
8
A-PRKG
0
POLYLINE
8
A-PRKG
66
1
10
0
20
0
30
0
70
1
0
VERTEX
8
A-PRKG
10
18000
20
700
30
0
0
VERTEX
8
A-PRKG
10
20500
20
700
30
0
0
VERTEX
8
A-PRKG
10
20500
20
5700
30
0
0
VERTEX
8
A-PRKG
10
18000
20
5700
30
0
0
SEQEND
8
A-PRKG
0
POLYLINE
8
A-SLAB-ABOVE
66
1
10
0
20
0
30
0
70
1
0
VERTEX
8
A-SLAB-ABOVE
10
0
20
0
30
0
0
VERTEX
8
A-SLAB-ABOVE
10
21000
20
0
30
0
0
VERTEX
8
A-SLAB-ABOVE
10
21000
20
12000
30
0
0
VERTEX
8
A-SLAB-ABOVE
10
0
20
12000
30
0
0
SEQEND
8
A-SLAB-ABOVE
0
TEXT
8
A-ANNO-ROOM
10
10500
20
9730
30
0
40
200
1
STAIRCASE
50
0
72
4
11
10500
21
9730
31
0
0
TEXT
8
A-ANNO-ROOM
10
10500
20
6130
30
0
40
200
1
LIFT
50
0
72
4
11
10500
21
6130
31
0
0
TEXT
8
A-ANNO-ROOM
10
10500
20
5830
30
0
40
150
1
5'6" X 5'6"
50
0
72
4
11
10500
21
5830
31
0
0
TEXT
8
A-ANNO-ROOM
10
10500
20
2680
30
0
40
200
1
LOBBY
50
0
72
4
11
10500
21
2680
31
0
0
TEXT
8
A-ANNO-ROOM
10
1350
20
10930
30
0
40
200
1
GUARD ROOM
50
0
72
4
11
1350
21
10930
31
0
0
TEXT
8
A-ANNO-ROOM
10
1350
20
10630
30
0
40
150
1
8'6" X 7'6"
50
0
72
4
11
1350
21
10630
31
0
0
TEXT
8
A-ANNO-ROOM
10
19650
20
10930
30
0
40
200
1
ELECTRICAL ROOM
50
0
72
4
11
19650
21
10930
31
0
0
TEXT
8
A-ANNO-ROOM
10
19650
20
10630
30
0
40
150
1
8'6" X 7'6"
50
0
72
4
11
19650
21
10630
31
0
0
TEXT
8
A-ANNO-ROOM
10
4350
20
4930
30
0
40
200
1
PARKING
50
0
72
4
11
4350
21
4930
31
0
0
TEXT
8
A-ANNO-ROOM
10
16650
20
4930
30
0
40
200
1
PARKING
50
0
72
4
11
16650
21
4930
31
0
0
DIMENSION
8
A-DIMS
2
*D1
10
2700
20
13300
30
0
11
1350
21
13444
31
0
70
0
1

13
0
23
12000
33
0
14
2700
24
12000
34
0
50
0
0
DIMENSION
8
A-DIMS
2
*D2
10
6300
20
13300
30
0
11
4500
21
13444
31
0
70
0
1

13
2700
23
12000
33
0
14
6300
24
12000
34
0
50
0
0
DIMENSION
8
A-DIMS
2
*D3
10
8700
20
13300
30
0
11
7500
21
13444
31
0
70
0
1

13
6300
23
12000
33
0
14
8700
24
12000
34
0
50
0
0
DIMENSION
8
A-DIMS
2
*D4
10
12300
20
13300
30
0
11
10500
21
13444
31
0
70
0
1

13
8700
23
12000
33
0
14
12300
24
12000
34
0
50
0
0
DIMENSION
8
A-DIMS
2
*D5
10
14700
20
13300
30
0
11
13500
21
13444
31
0
70
0
1

13
12300
23
12000
33
0
14
14700
24
12000
34
0
50
0
0
DIMENSION
8
A-DIMS
2
*D6
10
18300
20
13300
30
0
11
16500
21
13444
31
0
70
0
1

13
14700
23
12000
33
0
14
18300
24
12000
34
0
50
0
0
DIMENSION
8
A-DIMS
2
*D7
10
21000
20
13300
30
0
11
19650
21
13444
31
0
70
0
1

13
18300
23
12000
33
0
14
21000
24
12000
34
0
50
0
0
DIMENSION
8
A-DIMS
2
*D8
10
21000
20
14300
30
0
11
10500
21
14444
31
0
70
0
1

13
0
23
12000
33
0
14
21000
24
12000
34
0
50
0
0
DIMENSION
8
A-DIMS
2
*D9
10
-1300
20
4800
30
0
11
-1444
21
2400
31
0
70
0
1

13
0
23
0
33
0
14
0
24
4800
34
0
50
90
0
DIMENSION
8
A-DIMS
2
*D10
10
-1300
20
8400
30
0
11
-1444
21
6600
31
0
70
0
1

13
0
23
4800
33
0
14
0
24
8400
34
0
50
90
0
DIMENSION
8
A-DIMS
2
*D11
10
-1300
20
12000
30
0
11
-1444
21
10200
31
0
70
0
1

13
0
23
8400
33
0
14
0
24
12000
34
0
50
90
0
DIMENSION
8
A-DIMS
2
*D12
10
-2300
20
12000
30
0
11
-2444
21
6000
31
0
70
0
1

13
0
23
0
33
0
14
0
24
12000
34
0
50
90
0
DIMENSION
8
A-DIMS
2
*D13
10
21000
20
-3100
30
0
11
10500
21
-2956
31
0
70
0
1

13
0
23
0
33
0
14
21000
24
0
34
0
50
0
0
TEXT
8
A-ANNO-TTLB
10
10500
20
-4700
30
0
40
450
1
STILT FLOOR PLAN
50
0
72
1
11
10500
21
-4700
31
0
0
TEXT
8
A-ANNO-TTLB
10
10500
20
-5400
30
0
40
250
1
SCALE 1:100
50
0
72
1
11
10500
21
-5400
31
0
0
POLYLINE
8
A-WALL
66
1
10
0
20
0
30
0
70
1
0
VERTEX
8
A-WALL
10
33520
20
-1580
30
0
0
VERTEX
8
A-WALL
10
33520
20
-120
30
0
0
VERTEX
8
A-WALL
10
32880
20
-120
30
0
0
VERTEX
8
A-WALL
10
32880
20
1200
30
0
0
VERTEX
8
A-WALL
10
33120
20
1200
30
0
0
VERTEX
8
A-WALL
10
33120
20
110
30
0
0
VERTEX
8
A-WALL
10
34500
20
110
30
0
0
VERTEX
8
A-WALL
10
34500
20
-120
30
0
0
VERTEX
8
A-WALL
10
33680
20
-120
30
0
0
VERTEX
8
A-WALL
10
33680
20
-1430
30
0
0
VERTEX
8
A-WALL
10
38020
20
-1430
30
0
0
VERTEX
8
A-WALL
10
38020
20
-120
30
0
0
VERTEX
8
A-WALL
10
37500
20
-120
30
0
0
VERTEX
8
A-WALL
10
37500
20
110
30
0
0
VERTEX
8
A-WALL
10
38340
20
110
30
0
0
VERTEX
8
A-WALL
10
38340
20
1200
30
0
0
VERTEX
8
A-WALL
10
38460
20
1200
30
0
0
VERTEX
8
A-WALL
10
38460
20
110
30
0
0
VERTEX
8
A-WALL
10
41580
20
110
30
0
0
VERTEX
8
A-WALL
10
41580
20
2000
30
0
0
VERTEX
8
A-WALL
10
41820
20
2000
30
0
0
VERTEX
8
A-WALL
10
41820
20
110
30
0
0
VERTEX
8
A-WALL
10
42900
20
110
30
0
0
VERTEX
8
A-WALL
10
42900
20
-120
30
0
0
VERTEX
8
A-WALL
10
38180
20
-120
30
0
0
VERTEX
8
A-WALL
10
38180
20
-1580
30
0
0
SEQEND
8
A-WALL
0
POLYLINE
8
A-WALL
66
1
10
0
20
0
30
0
70
1
0
VERTEX
8
A-WALL
10
48820
20
-1580
30
0
0
VERTEX
8
A-WALL
10
48820
20
-120
30
0
0
VERTEX
8
A-WALL
10
44100
20
-120
30
0
0
VERTEX
8
A-WALL
10
44100
20
110
30
0
0
VERTEX
8
A-WALL
10
45180
20
110
30
0
0
VERTEX
8
A-WALL
10
45180
20
2000
30
0
0
VERTEX
8
A-WALL
10
45420
20
2000
30
0
0
VERTEX
8
A-WALL
10
45420
20
110
30
0
0
VERTEX
8
A-WALL
10
48540
20
110
30
0
0
VERTEX
8
A-WALL
10
48540
20
1200
30
0
0
VERTEX
8
A-WALL
10
48660
20
1200
30
0
0
VERTEX
8
A-WALL
10
48660
20
110
30
0
0
VERTEX
8
A-WALL
10
49500
20
110
30
0
0
VERTEX
8
A-WALL
10
49500
20
-120
30
0
0
VERTEX
8
A-WALL
10
48980
20
-120
30
0
0
VERTEX
8
A-WALL
10
48980
20
-1430
30
0
0
VERTEX
8
A-WALL
10
53320
20
-1430
30
0
0
VERTEX
8
A-WALL
10
53320
20
-120
30
0
0
VERTEX
8
A-WALL
10
52500
20
-120
30
0
0
VERTEX
8
A-WALL
10
52500
20
110
30
0
0
VERTEX
8
A-WALL
10
53880
20
110
30
0
0
VERTEX
8
A-WALL
10
53880
20
1200
30
0
0
VERTEX
8
A-WALL
10
54120
20
1200
30
0
0
VERTEX
8
A-WALL
10
54120
20
-120
30
0
0
VERTEX
8
A-WALL
10
53480
20
-120
30
0
0
VERTEX
8
A-WALL
10
53480
20
-1580
30
0
0
SEQEND
8
A-WALL
0
POLYLINE
8
A-WALL
66
1
10
0
20
0
30
0
70
1
0
VERTEX
8
A-WALL
10
41580
20
3000
30
0
0
VERTEX
8
A-WALL
10
41580
20
4740
30
0
0
VERTEX
8
A-WALL
10
41350
20
4740
30
0
0
VERTEX
8
A-WALL
10
41350
20
4860
30
0
0
VERTEX
8
A-WALL
10
41580
20
4860
30
0
0
VERTEX
8
A-WALL
10
41580
20
5940
30
0
0
VERTEX
8
A-WALL
10
39360
20
5940
30
0
0
VERTEX
8
A-WALL
10
39360
20
4860
30
0
0
VERTEX
8
A-WALL
10
40600
20
4860
30
0
0
VERTEX
8
A-WALL
10
40600
20
4740
30
0
0
VERTEX
8
A-WALL
10
39000
20
4740
30
0
0
VERTEX
8
A-WALL
10
39000
20
4860
30
0
0
VERTEX
8
A-WALL
10
39240
20
4860
30
0
0
VERTEX
8
A-WALL
10
39240
20
6600
30
0
0
VERTEX
8
A-WALL
10
39360
20
6600
30
0
0
VERTEX
8
A-WALL
10
39360
20
6060
30
0
0
VERTEX
8
A-WALL
10
41580
20
6060
30
0
0
VERTEX
8
A-WALL
10
41580
20
7740
30
0
0
VERTEX
8
A-WALL
10
40740
20
7740
30
0
0
VERTEX
8
A-WALL
10
40740
20
8340
30
0
0
VERTEX
8
A-WALL
10
39360
20
8340
30
0
0
VERTEX
8
A-WALL
10
39360
20
7350
30
0
0
VERTEX
8
A-WALL
10
39240
20
7350
30
0
0
VERTEX
8
A-WALL
10
39240
20
8340
30
0
0
VERTEX
8
A-WALL
10
39000
20
8340
30
0
0
VERTEX
8
A-WALL
10
39000
20
8460
30
0
0
VERTEX
8
A-WALL
10
39240
20
8460
30
0
0
VERTEX
8
A-WALL
10
39240
20
8700
30
0
0
VERTEX
8
A-WALL
10
39360
20
8700
30
0
0
VERTEX
8
A-WALL
10
39360
20
8460
30
0
0
VERTEX
8
A-WALL
10
41580
20
8460
30
0
0
VERTEX
8
A-WALL
10
41580
20
11880
30
0
0
VERTEX
8
A-WALL
10
41400
20
11880
30
0
0
VERTEX
8
A-WALL
10
41400
20
12110
30
0
0
VERTEX
8
A-WALL
10
45600
20
12110
30
0
0
VERTEX
8
A-WALL
10
45600
20
11880
30
0
0
VERTEX
8
A-WALL
10
45420
20
11880
30
0
0
VERTEX
8
A-WALL
10
45420
20
8460
30
0
0
VERTEX
8
A-WALL
10
47640
20
8460
30
0
0
VERTEX
8
A-WALL
10
47640
20
8700
30
0
0
VERTEX
8
A-WALL
10
47760
20
8700
30
0
0
VERTEX
8
A-WALL
10
47760
20
8460
30
0
0
VERTEX
8
A-WALL
10
48000
20
8460
30
0
0
VERTEX
8
A-WALL
10
48000
20
8340
30
0
0
VERTEX
8
A-WALL
10
47760
20
8340
30
0
0
VERTEX
8
A-WALL
10
47760
20
7350
30
0
0
VERTEX
8
A-WALL
10
47640
20
7350
30
0
0
VERTEX
8
A-WALL
10
47640
20
8340
30
0
0
VERTEX
8
A-WALL
10
46260
20
8340
30
0
0
VERTEX
8
A-WALL
10
46260
20
7740
30
0
0
VERTEX
8
A-WALL
10
45420
20
7740
30
0
0
VERTEX
8
A-WALL
10
45420
20
6060
30
0
0
VERTEX
8
A-WALL
10
47640
20
6060
30
0
0
VERTEX
8
A-WALL
10
47640
20
6600
30
0
0
VERTEX
8
A-WALL
10
47760
20
6600
30
0
0
VERTEX
8
A-WALL
10
47760
20
4860
30
0
0
VERTEX
8
A-WALL
10
48000
20
4860
30
0
0
VERTEX
8
A-WALL
10
48000
20
4740
30
0
0
VERTEX
8
A-WALL
10
46400
20
4740
30
0
0
VERTEX
8
A-WALL
10
46400
20
4860
30
0
0
VERTEX
8
A-WALL
10
47640
20
4860
30
0
0
VERTEX
8
A-WALL
10
47640
20
5940
30
0
0
VERTEX
8
A-WALL
10
45420
20
5940
30
0
0
VERTEX
8
A-WALL
10
45420
20
4860
30
0
0
VERTEX
8
A-WALL
10
45650
20
4860
30
0
0
VERTEX
8
A-WALL
10
45650
20
4740
30
0
0
VERTEX
8
A-WALL
10
45420
20
4740
30
0
0
VERTEX
8
A-WALL
10
45420
20
3000
30
0
0
VERTEX
8
A-WALL
10
45180
20
3000
30
0
0
VERTEX
8
A-WALL
10
45180
20
7140
30
0
0
VERTEX
8
A-WALL
10
45000
20
7140
30
0
0
VERTEX
8
A-WALL
10
45000
20
7260
30
0
0
VERTEX
8
A-WALL
10
45180
20
7260
30
0
0
VERTEX
8
A-WALL
10
45180
20
11880
30
0
0
VERTEX
8
A-WALL
10
41820
20
11880
30
0
0
VERTEX
8
A-WALL
10
41820
20
7260
30
0
0
VERTEX
8
A-WALL
10
42000
20
7260
30
0
0
VERTEX
8
A-WALL
10
42000
20
7140
30
0
0
VERTEX
8
A-WALL
10
41820
20
7140
30
0
0
VERTEX
8
A-WALL
10
41820
20
3000
30
0
0
SEQEND
8
A-WALL
0
POLYLINE
8
A-WALL
66
1
10
0
20
0
30
0
70
1
0
VERTEX
8
A-WALL
10
32880
20
3600
30
0
0
VERTEX
8
A-WALL
10
32880
20
6000
30
0
0
VERTEX
8
A-WALL
10
33120
20
6000
30
0
0
VERTEX
8
A-WALL
10
33120
20
4860
30
0
0
VERTEX
8
A-WALL
10
35640
20
4860
30
0
0
VERTEX
8
A-WALL
10
35640
20
5400
30
0
0
VERTEX
8
A-WALL
10
35760
20
5400
30
0
0
VERTEX
8
A-WALL
10
35760
20
4860
30
0
0
VERTEX
8
A-WALL
10
36000
20
4860
30
0
0
VERTEX
8
A-WALL
10
36000
20
4740
30
0
0
VERTEX
8
A-WALL
10
33120
20
4740
30
0
0
VERTEX
8
A-WALL
10
33120
20
3600
30
0
0
SEQEND
8
A-WALL
0
POLYLINE
8
A-WALL
66
1
10
0
20
0
30
0
70
1
0
VERTEX
8
A-WALL
10
53880
20
3600
30
0
0
VERTEX
8
A-WALL
10
53880
20
4740
30
0
0
VERTEX
8
A-WALL
10
51000
20
4740
30
0
0
VERTEX
8
A-WALL
10
51000
20
4860
30
0
0
VERTEX
8
A-WALL
10
51240
20
4860
30
0
0
VERTEX
8
A-WALL
10
51240
20
5400
30
0
0
VERTEX
8
A-WALL
10
51360
20
5400
30
0
0
VERTEX
8
A-WALL
10
51360
20
4860
30
0
0
VERTEX
8
A-WALL
10
53880
20
4860
30
0
0
VERTEX
8
A-WALL
10
53880
20
6000
30
0
0
VERTEX
8
A-WALL
10
54120
20
6000
30
0
0
VERTEX
8
A-WALL
10
54120
20
3600
30
0
0
SEQEND
8
A-WALL
0
POLYLINE
8
A-WALL
66
1
10
0
20
0
30
0
70
1
0
VERTEX
8
A-WALL
10
38340
20
3800
30
0
0
VERTEX
8
A-WALL
10
38340
20
4600
30
0
0
VERTEX
8
A-WALL
10
38460
20
4600
30
0
0
VERTEX
8
A-WALL
10
38460
20
3800
30
0
0
SEQEND
8
A-WALL
0
POLYLINE
8
A-WALL
66
1
10
0
20
0
30
0
70
1
0
VERTEX
8
A-WALL
10
48540
20
3800
30
0
0
VERTEX
8
A-WALL
10
48540
20
4600
30
0
0
VERTEX
8
A-WALL
10
48660
20
4600
30
0
0
VERTEX
8
A-WALL
10
48660
20
3800
30
0
0
SEQEND
8
A-WALL
0
POLYLINE
8
A-WALL
66
1
10
0
20
0
30
0
70
1
0
VERTEX
8
A-WALL
10
42480
20
4980
30
0
0
VERTEX
8
A-WALL
10
42480
20
7000
30
0
0
VERTEX
8
A-WALL
10
44520
20
7000
30
0
0
VERTEX
8
A-WALL
10
44520
20
4980
30
0
0
VERTEX
8
A-WALL
10
43950
20
4980
30
0
0
VERTEX
8
A-WALL
10
43950
20
5210
30
0
0
VERTEX
8
A-WALL
10
44280
20
5210
30
0
0
VERTEX
8
A-WALL
10
44280
20
6780
30
0
0
VERTEX
8
A-WALL
10
42720
20
6780
30
0
0
VERTEX
8
A-WALL
10
42720
20
5210
30
0
0
VERTEX
8
A-WALL
10
43050
20
5210
30
0
0
VERTEX
8
A-WALL
10
43050
20
4980
30
0
0
SEQEND
8
A-WALL
0
POLYLINE
8
A-WALL
66
1
10
0
20
0
30
0
70
1
0
VERTEX
8
A-WALL
10
35640
20
6300
30
0
0
VERTEX
8
A-WALL
10
35640
20
8340
30
0
0
VERTEX
8
A-WALL
10
33120
20
8340
30
0
0
VERTEX
8
A-WALL
10
33120
20
7200
30
0
0
VERTEX
8
A-WALL
10
32880
20
7200
30
0
0
VERTEX
8
A-WALL
10
32880
20
9600
30
0
0
VERTEX
8
A-WALL
10
33120
20
9600
30
0
0
VERTEX
8
A-WALL
10
33120
20
8460
30
0
0
VERTEX
8
A-WALL
10
36840
20
8460
30
0
0
VERTEX
8
A-WALL
10
36840
20
8700
30
0
0
VERTEX
8
A-WALL
10
36960
20
8700
30
0
0
VERTEX
8
A-WALL
10
36960
20
8460
30
0
0
VERTEX
8
A-WALL
10
37200
20
8460
30
0
0
VERTEX
8
A-WALL
10
37200
20
8340
30
0
0
VERTEX
8
A-WALL
10
35760
20
8340
30
0
0
VERTEX
8
A-WALL
10
35760
20
6300
30
0
0
SEQEND
8
A-WALL
0
POLYLINE
8
A-WALL
66
1
10
0
20
0
30
0
70
1
0
VERTEX
8
A-WALL
10
51240
20
6300
30
0
0
VERTEX
8
A-WALL
10
51240
20
8340
30
0
0
VERTEX
8
A-WALL
10
49800
20
8340
30
0
0
VERTEX
8
A-WALL
10
49800
20
8460
30
0
0
VERTEX
8
A-WALL
10
50040
20
8460
30
0
0
VERTEX
8
A-WALL
10
50040
20
8700
30
0
0
VERTEX
8
A-WALL
10
50160
20
8700
30
0
0
VERTEX
8
A-WALL
10
50160
20
8460
30
0
0
VERTEX
8
A-WALL
10
53880
20
8460
30
0
0
VERTEX
8
A-WALL
10
53880
20
9600
30
0
0
VERTEX
8
A-WALL
10
54120
20
9600
30
0
0
VERTEX
8
A-WALL
10
54120
20
7200
30
0
0
VERTEX
8
A-WALL
10
53880
20
7200
30
0
0
VERTEX
8
A-WALL
10
53880
20
8340
30
0
0
VERTEX
8
A-WALL
10
51360
20
8340
30
0
0
VERTEX
8
A-WALL
10
51360
20
6300
30
0
0
SEQEND
8
A-WALL
0
POLYLINE
8
A-WALL
66
1
10
0
20
0
30
0
70
1
0
VERTEX
8
A-WALL
10
41580
20
7860
30
0
0
VERTEX
8
A-WALL
10
41580
20
8340
30
0
0
VERTEX
8
A-WALL
10
40860
20
8340
30
0
0
VERTEX
8
A-WALL
10
40860
20
7860
30
0
0
SEQEND
8
A-WALL
0
POLYLINE
8
A-WALL
66
1
10
0
20
0
30
0
70
1
0
VERTEX
8
A-WALL
10
46140
20
7860
30
0
0
VERTEX
8
A-WALL
10
46140
20
8340
30
0
0
VERTEX
8
A-WALL
10
45420
20
8340
30
0
0
VERTEX
8
A-WALL
10
45420
20
7860
30
0
0
SEQEND
8
A-WALL
0
POLYLINE
8
A-WALL
66
1
10
0
20
0
30
0
70
1
0
VERTEX
8
A-WALL
10
37100
20
9540
30
0
0
VERTEX
8
A-WALL
10
37100
20
9550
30
0
0
VERTEX
8
A-WALL
10
36840
20
9550
30
0
0
VERTEX
8
A-WALL
10
36840
20
11880
30
0
0
VERTEX
8
A-WALL
10
35700
20
11880
30
0
0
VERTEX
8
A-WALL
10
35700
20
12110
30
0
0
VERTEX
8
A-WALL
10
37500
20
12110
30
0
0
VERTEX
8
A-WALL
10
37500
20
11880
30
0
0
VERTEX
8
A-WALL
10
36960
20
11880
30
0
0
VERTEX
8
A-WALL
10
36960
20
9660
30
0
0
VERTEX
8
A-WALL
10
37200
20
9660
30
0
0
VERTEX
8
A-WALL
10
37200
20
9540
30
0
0
SEQEND
8
A-WALL
0
POLYLINE
8
A-WALL
66
1
10
0
20
0
30
0
70
1
0
VERTEX
8
A-WALL
10
37950
20
9540
30
0
0
VERTEX
8
A-WALL
10
37950
20
9660
30
0
0
VERTEX
8
A-WALL
10
39240
20
9660
30
0
0
VERTEX
8
A-WALL
10
39240
20
11340
30
0
0
VERTEX
8
A-WALL
10
38640
20
11340
30
0
0
VERTEX
8
A-WALL
10
38640
20
11880
30
0
0
VERTEX
8
A-WALL
10
38100
20
11880
30
0
0
VERTEX
8
A-WALL
10
38100
20
12110
30
0
0
VERTEX
8
A-WALL
10
40200
20
12110
30
0
0
VERTEX
8
A-WALL
10
40200
20
11880
30
0
0
VERTEX
8
A-WALL
10
39360
20
11880
30
0
0
VERTEX
8
A-WALL
10
39360
20
9550
30
0
0
VERTEX
8
A-WALL
10
39100
20
9550
30
0
0
VERTEX
8
A-WALL
10
39100
20
9540
30
0
0
SEQEND
8
A-WALL
0
POLYLINE
8
A-WALL
66
1
10
0
20
0
30
0
70
1
0
VERTEX
8
A-WALL
10
47900
20
9540
30
0
0
VERTEX
8
A-WALL
10
47900
20
9550
30
0
0
VERTEX
8
A-WALL
10
47640
20
9550
30
0
0
VERTEX
8
A-WALL
10
47640
20
11880
30
0
0
VERTEX
8
A-WALL
10
46800
20
11880
30
0
0
VERTEX
8
A-WALL
10
46800
20
12110
30
0
0
VERTEX
8
A-WALL
10
48900
20
12110
30
0
0
VERTEX
8
A-WALL
10
48900
20
11880
30
0
0
VERTEX
8
A-WALL
10
48360
20
11880
30
0
0
VERTEX
8
A-WALL
10
48360
20
11340
30
0
0
VERTEX
8
A-WALL
10
47760
20
11340
30
0
0
VERTEX
8
A-WALL
10
47760
20
9660
30
0
0
VERTEX
8
A-WALL
10
49050
20
9660
30
0
0
VERTEX
8
A-WALL
10
49050
20
9540
30
0
0
SEQEND
8
A-WALL
0
POLYLINE
8
A-WALL
66
1
10
0
20
0
30
0
70
1
0
VERTEX
8
A-WALL
10
49800
20
9540
30
0
0
VERTEX
8
A-WALL
10
49800
20
9660
30
0
0
VERTEX
8
A-WALL
10
50040
20
9660
30
0
0
VERTEX
8
A-WALL
10
50040
20
11880
30
0
0
VERTEX
8
A-WALL
10
49500
20
11880
30
0
0
VERTEX
8
A-WALL
10
49500
20
12110
30
0
0
VERTEX
8
A-WALL
10
51300
20
12110
30
0
0
VERTEX
8
A-WALL
10
51300
20
11880
30
0
0
VERTEX
8
A-WALL
10
50160
20
11880
30
0
0
VERTEX
8
A-WALL
10
50160
20
9550
30
0
0
VERTEX
8
A-WALL
10
49900
20
9550
30
0
0
VERTEX
8
A-WALL
10
49900
20
9540
30
0
0
SEQEND
8
A-WALL
0
POLYLINE
8
A-WALL
66
1
10
0
20
0
30
0
70
1
0
VERTEX
8
A-WALL
10
32880
20
11100
30
0
0
VERTEX
8
A-WALL
10
32880
20
12110
30
0
0
VERTEX
8
A-WALL
10
34200
20
12110
30
0
0
VERTEX
8
A-WALL
10
34200
20
11880
30
0
0
VERTEX
8
A-WALL
10
33120
20
11880
30
0
0
VERTEX
8
A-WALL
10
33120
20
11100
30
0
0
SEQEND
8
A-WALL
0
POLYLINE
8
A-WALL
66
1
10
0
20
0
30
0
70
1
0
VERTEX
8
A-WALL
10
53880
20
11100
30
0
0
VERTEX
8
A-WALL
10
53880
20
11880
30
0
0
VERTEX
8
A-WALL
10
52800
20
11880
30
0
0
VERTEX
8
A-WALL
10
52800
20
12110
30
0
0
VERTEX
8
A-WALL
10
54120
20
12110
30
0
0
VERTEX
8
A-WALL
10
54120
20
11100
30
0
0
SEQEND
8
A-WALL
0
POLYLINE
8
A-WALL
66
1
10
0
20
0
30
0
70
1
0
VERTEX
8
A-WALL
10
39240
20
11460
30
0
0
VERTEX
8
A-WALL
10
39240
20
11880
30
0
0
VERTEX
8
A-WALL
10
38760
20
11880
30
0
0
VERTEX
8
A-WALL
10
38760
20
11460
30
0
0
SEQEND
8
A-WALL
0
POLYLINE
8
A-WALL
66
1
10
0
20
0
30
0
70
1
0
VERTEX
8
A-WALL
10
48240
20
11460
30
0
0
VERTEX
8
A-WALL
10
48240
20
11880
30
0
0
VERTEX
8
A-WALL
10
47760
20
11880
30
0
0
VERTEX
8
A-WALL
10
47760
20
11460
30
0
0
SEQEND
8
A-WALL
0
LINE
8
A-GLAZ
10
32885
20
1200
30
0
11
32885
21
3600
31
0
0
LINE
8
A-GLAZ
10
32975
20
1200
30
0
11
32975
21
3600
31
0
0
LINE
8
A-GLAZ
10
33025
20
1200
30
0
11
33025
21
3600
31
0
0
LINE
8
A-GLAZ
10
33115
20
1200
30
0
11
33115
21
3600
31
0
0
LINE
8
A-GLAZ
10
32885
20
6000
30
0
11
32885
21
7200
31
0
0
LINE
8
A-GLAZ
10
32975
20
6000
30
0
11
32975
21
7200
31
0
0
LINE
8
A-GLAZ
10
33025
20
6000
30
0
11
33025
21
7200
31
0
0
LINE
8
A-GLAZ
10
33115
20
6000
30
0
11
33115
21
7200
31
0
0
LINE
8
A-GLAZ
10
32885
20
9600
30
0
11
32885
21
11100
31
0
0
LINE
8
A-GLAZ
10
32975
20
9600
30
0
11
32975
21
11100
31
0
0
LINE
8
A-GLAZ
10
33025
20
9600
30
0
11
33025
21
11100
31
0
0
LINE
8
A-GLAZ
10
33115
20
9600
30
0
11
33115
21
11100
31
0
0
LINE
8
A-GLAZ
10
34200
20
11885
30
0
11
35700
21
11885
31
0
0
LINE
8
A-GLAZ
10
34200
20
11975
30
0
11
35700
21
11975
31
0
0
LINE
8
A-GLAZ
10
34200
20
12025
30
0
11
35700
21
12025
31
0
0
LINE
8
A-GLAZ
10
34200
20
12115
30
0
11
35700
21
12115
31
0
0
LINE
8
A-GLAZ
10
37500
20
11885
30
0
11
38100
21
11885
31
0
0
LINE
8
A-GLAZ
10
37500
20
11975
30
0
11
38100
21
11975
31
0
0
LINE
8
A-GLAZ
10
37500
20
12025
30
0
11
38100
21
12025
31
0
0
LINE
8
A-GLAZ
10
37500
20
12115
30
0
11
38100
21
12115
31
0
0
LINE
8
A-GLAZ
10
40200
20
11885
30
0
11
41400
21
11885
31
0
0
LINE
8
A-GLAZ
10
40200
20
11975
30
0
11
41400
21
11975
31
0
0
LINE
8
A-GLAZ
10
40200
20
12025
30
0
11
41400
21
12025
31
0
0
LINE
8
A-GLAZ
10
40200
20
12115
30
0
11
41400
21
12115
31
0
0
LINE
8
A-GLAZ
10
34500
20
-115
30
0
11
37500
21
-115
31
0
0
LINE
8
A-GLAZ
10
34500
20
-25
30
0
11
37500
21
-25
31
0
0
LINE
8
A-GLAZ
10
34500
20
25
30
0
11
37500
21
25
31
0
0
LINE
8
A-GLAZ
10
34500
20
115
30
0
11
37500
21
115
31
0
0
LINE
8
A-GLAZ
10
53885
20
1200
30
0
11
53885
21
3600
31
0
0
LINE
8
A-GLAZ
10
53975
20
1200
30
0
11
53975
21
3600
31
0
0
LINE
8
A-GLAZ
10
54025
20
1200
30
0
11
54025
21
3600
31
0
0
LINE
8
A-GLAZ
10
54115
20
1200
30
0
11
54115
21
3600
31
0
0
LINE
8
A-GLAZ
10
53885
20
6000
30
0
11
53885
21
7200
31
0
0
LINE
8
A-GLAZ
10
53975
20
6000
30
0
11
53975
21
7200
31
0
0
LINE
8
A-GLAZ
10
54025
20
6000
30
0
11
54025
21
7200
31
0
0
LINE
8
A-GLAZ
10
54115
20
6000
30
0
11
54115
21
7200
31
0
0
LINE
8
A-GLAZ
10
53885
20
9600
30
0
11
53885
21
11100
31
0
0
LINE
8
A-GLAZ
10
53975
20
9600
30
0
11
53975
21
11100
31
0
0
LINE
8
A-GLAZ
10
54025
20
9600
30
0
11
54025
21
11100
31
0
0
LINE
8
A-GLAZ
10
54115
20
9600
30
0
11
54115
21
11100
31
0
0
LINE
8
A-GLAZ
10
51300
20
11885
30
0
11
52800
21
11885
31
0
0
LINE
8
A-GLAZ
10
51300
20
11975
30
0
11
52800
21
11975
31
0
0
LINE
8
A-GLAZ
10
51300
20
12025
30
0
11
52800
21
12025
31
0
0
LINE
8
A-GLAZ
10
51300
20
12115
30
0
11
52800
21
12115
31
0
0
LINE
8
A-GLAZ
10
48900
20
11885
30
0
11
49500
21
11885
31
0
0
LINE
8
A-GLAZ
10
48900
20
11975
30
0
11
49500
21
11975
31
0
0
LINE
8
A-GLAZ
10
48900
20
12025
30
0
11
49500
21
12025
31
0
0
LINE
8
A-GLAZ
10
48900
20
12115
30
0
11
49500
21
12115
31
0
0
LINE
8
A-GLAZ
10
45600
20
11885
30
0
11
46800
21
11885
31
0
0
LINE
8
A-GLAZ
10
45600
20
11975
30
0
11
46800
21
11975
31
0
0
LINE
8
A-GLAZ
10
45600
20
12025
30
0
11
46800
21
12025
31
0
0
LINE
8
A-GLAZ
10
45600
20
12115
30
0
11
46800
21
12115
31
0
0
LINE
8
A-GLAZ
10
49500
20
-115
30
0
11
52500
21
-115
31
0
0
LINE
8
A-GLAZ
10
49500
20
-25
30
0
11
52500
21
-25
31
0
0
LINE
8
A-GLAZ
10
49500
20
25
30
0
11
52500
21
25
31
0
0
LINE
8
A-GLAZ
10
49500
20
115
30
0
11
52500
21
115
31
0
0
LINE
8
A-GLAZ
10
42900
20
-115
30
0
11
44100
21
-115
31
0
0
LINE
8
A-GLAZ
10
42900
20
-25
30
0
11
44100
21
-25
31
0
0
LINE
8
A-GLAZ
10
42900
20
25
30
0
11
44100
21
25
31
0
0
LINE
8
A-GLAZ
10
42900
20
115
30
0
11
44100
21
115
31
0
0
LINE
8
A-DOOR
10
36900
20
8700
30
0
11
36050
21
8700
31
0
0
ARC
8
A-DOOR
10
36900
20
8700
30
0
40
850
50
90
51
180
0
LINE
8
A-DOOR
10
37200
20
9600
30
0
11
37200
21
10350
31
0
0
ARC
8
A-DOOR
10
37200
20
9600
30
0
40
750
50
0
51
90
0
LINE
8
A-DOOR
10
39300
20
8700
30
0
11
40150
21
8700
31
0
0
ARC
8
A-DOOR
10
39300
20
8700
30
0
40
850
50
0
51
90
0
LINE
8
A-DOOR
10
39300
20
6600
30
0
11
40050
21
6600
31
0
0
ARC
8
A-DOOR
10
39300
20
6600
30
0
40
750
50
0
51
90
0
LINE
8
A-DOOR
10
40600
20
4800
30
0
11
40600
21
5550
31
0
0
ARC
8
A-DOOR
10
40600
20
4800
30
0
40
750
50
0
51
90
0
LINE
8
A-DOOR
10
41700
20
2000
30
0
11
40700
21
2000
31
0
0
ARC
8
A-DOOR
10
41700
20
2000
30
0
40
1000
50
90
51
180
0
LINE
8
A-DOOR
10
50100
20
8700
30
0
11
50950
21
8700
31
0
0
ARC
8
A-DOOR
10
50100
20
8700
30
0
40
850
50
0
51
90
0
LINE
8
A-DOOR
10
49800
20
9600
30
0
11
49800
21
10350
31
0
0
ARC
8
A-DOOR
10
49800
20
9600
30
0
40
750
50
90
51
180
0
LINE
8
A-DOOR
10
47700
20
8700
30
0
11
46850
21
8700
31
0
0
ARC
8
A-DOOR
10
47700
20
8700
30
0
40
850
50
90
51
180
0
LINE
8
A-DOOR
10
47700
20
6600
30
0
11
46950
21
6600
31
0
0
ARC
8
A-DOOR
10
47700
20
6600
30
0
40
750
50
90
51
180
0
LINE
8
A-DOOR
10
46400
20
4800
30
0
11
46400
21
5550
31
0
0
ARC
8
A-DOOR
10
46400
20
4800
30
0
40
750
50
90
51
180
0
LINE
8
A-DOOR
10
45300
20
2000
30
0
11
46300
21
2000
31
0
0
ARC
8
A-DOOR
10
45300
20
2000
30
0
40
1000
50
0
51
90
0
SOLID
8
S-COLS
10
32775
20
-115
30
0
11
33225
21
-115
31
0
12
32775
22
115
32
0
13
33225
23
115
33
0
0
POLYLINE
8
S-COLS
66
1
10
0
20
0
30
0
70
1
0
VERTEX
8
S-COLS
10
32775
20
-115
30
0
0
VERTEX
8
S-COLS
10
33225
20
-115
30
0
0
VERTEX
8
S-COLS
10
33225
20
115
30
0
0
VERTEX
8
S-COLS
10
32775
20
115
30
0
0
SEQEND
8
S-COLS
0
SOLID
8
S-COLS
10
32885
20
4575
30
0
11
33115
21
4575
31
0
12
32885
22
5025
32
0
13
33115
23
5025
33
0
0
POLYLINE
8
S-COLS
66
1
10
0
20
0
30
0
70
1
0
VERTEX
8
S-COLS
10
32885
20
4575
30
0
0
VERTEX
8
S-COLS
10
33115
20
4575
30
0
0
VERTEX
8
S-COLS
10
33115
20
5025
30
0
0
VERTEX
8
S-COLS
10
32885
20
5025
30
0
0
SEQEND
8
S-COLS
0
SOLID
8
S-COLS
10
32885
20
8175
30
0
11
33115
21
8175
31
0
12
32885
22
8625
32
0
13
33115
23
8625
33
0
0
POLYLINE
8
S-COLS
66
1
10
0
20
0
30
0
70
1
0
VERTEX
8
S-COLS
10
32885
20
8175
30
0
0
VERTEX
8
S-COLS
10
33115
20
8175
30
0
0
VERTEX
8
S-COLS
10
33115
20
8625
30
0
0
VERTEX
8
S-COLS
10
32885
20
8625
30
0
0
SEQEND
8
S-COLS
0
SOLID
8
S-COLS
10
32775
20
11885
30
0
11
33225
21
11885
31
0
12
32775
22
12115
32
0
13
33225
23
12115
33
0
0
POLYLINE
8
S-COLS
66
1
10
0
20
0
30
0
70
1
0
VERTEX
8
S-COLS
10
32775
20
11885
30
0
0
VERTEX
8
S-COLS
10
33225
20
11885
30
0
0
VERTEX
8
S-COLS
10
33225
20
12115
30
0
0
VERTEX
8
S-COLS
10
32775
20
12115
30
0
0
SEQEND
8
S-COLS
0
SOLID
8
S-COLS
10
35475
20
-115
30
0
11
35925
21
-115
31
0
12
35475
22
115
32
0
13
35925
23
115
33
0
0
POLYLINE
8
S-COLS
66
1
10
0
20
0
30
0
70
1
0
VERTEX
8
S-COLS
10
35475
20
-115
30
0
0
VERTEX
8
S-COLS
10
35925
20
-115
30
0
0
VERTEX
8
S-COLS
10
35925
20
115
30
0
0
VERTEX
8
S-COLS
10
35475
20
115
30
0
0
SEQEND
8
S-COLS
0
SOLID
8
S-COLS
10
35585
20
4575
30
0
11
35815
21
4575
31
0
12
35585
22
5025
32
0
13
35815
23
5025
33
0
0
POLYLINE
8
S-COLS
66
1
10
0
20
0
30
0
70
1
0
VERTEX
8
S-COLS
10
35585
20
4575
30
0
0
VERTEX
8
S-COLS
10
35815
20
4575
30
0
0
VERTEX
8
S-COLS
10
35815
20
5025
30
0
0
VERTEX
8
S-COLS
10
35585
20
5025
30
0
0
SEQEND
8
S-COLS
0
SOLID
8
S-COLS
10
35585
20
8175
30
0
11
35815
21
8175
31
0
12
35585
22
8625
32
0
13
35815
23
8625
33
0
0
POLYLINE
8
S-COLS
66
1
10
0
20
0
30
0
70
1
0
VERTEX
8
S-COLS
10
35585
20
8175
30
0
0
VERTEX
8
S-COLS
10
35815
20
8175
30
0
0
VERTEX
8
S-COLS
10
35815
20
8625
30
0
0
VERTEX
8
S-COLS
10
35585
20
8625
30
0
0
SEQEND
8
S-COLS
0
SOLID
8
S-COLS
10
35475
20
11885
30
0
11
35925
21
11885
31
0
12
35475
22
12115
32
0
13
35925
23
12115
33
0
0
POLYLINE
8
S-COLS
66
1
10
0
20
0
30
0
70
1
0
VERTEX
8
S-COLS
10
35475
20
11885
30
0
0
VERTEX
8
S-COLS
10
35925
20
11885
30
0
0
VERTEX
8
S-COLS
10
35925
20
12115
30
0
0
VERTEX
8
S-COLS
10
35475
20
12115
30
0
0
SEQEND
8
S-COLS
0
SOLID
8
S-COLS
10
39075
20
-115
30
0
11
39525
21
-115
31
0
12
39075
22
115
32
0
13
39525
23
115
33
0
0
POLYLINE
8
S-COLS
66
1
10
0
20
0
30
0
70
1
0
VERTEX
8
S-COLS
10
39075
20
-115
30
0
0
VERTEX
8
S-COLS
10
39525
20
-115
30
0
0
VERTEX
8
S-COLS
10
39525
20
115
30
0
0
VERTEX
8
S-COLS
10
39075
20
115
30
0
0
SEQEND
8
S-COLS
0
SOLID
8
S-COLS
10
39185
20
4575
30
0
11
39415
21
4575
31
0
12
39185
22
5025
32
0
13
39415
23
5025
33
0
0
POLYLINE
8
S-COLS
66
1
10
0
20
0
30
0
70
1
0
VERTEX
8
S-COLS
10
39185
20
4575
30
0
0
VERTEX
8
S-COLS
10
39415
20
4575
30
0
0
VERTEX
8
S-COLS
10
39415
20
5025
30
0
0
VERTEX
8
S-COLS
10
39185
20
5025
30
0
0
SEQEND
8
S-COLS
0
SOLID
8
S-COLS
10
39185
20
8175
30
0
11
39415
21
8175
31
0
12
39185
22
8625
32
0
13
39415
23
8625
33
0
0
POLYLINE
8
S-COLS
66
1
10
0
20
0
30
0
70
1
0
VERTEX
8
S-COLS
10
39185
20
8175
30
0
0
VERTEX
8
S-COLS
10
39415
20
8175
30
0
0
VERTEX
8
S-COLS
10
39415
20
8625
30
0
0
VERTEX
8
S-COLS
10
39185
20
8625
30
0
0
SEQEND
8
S-COLS
0
SOLID
8
S-COLS
10
39075
20
11885
30
0
11
39525
21
11885
31
0
12
39075
22
12115
32
0
13
39525
23
12115
33
0
0
POLYLINE
8
S-COLS
66
1
10
0
20
0
30
0
70
1
0
VERTEX
8
S-COLS
10
39075
20
11885
30
0
0
VERTEX
8
S-COLS
10
39525
20
11885
30
0
0
VERTEX
8
S-COLS
10
39525
20
12115
30
0
0
VERTEX
8
S-COLS
10
39075
20
12115
30
0
0
SEQEND
8
S-COLS
0
SOLID
8
S-COLS
10
41475
20
-115
30
0
11
41925
21
-115
31
0
12
41475
22
115
32
0
13
41925
23
115
33
0
0
POLYLINE
8
S-COLS
66
1
10
0
20
0
30
0
70
1
0
VERTEX
8
S-COLS
10
41475
20
-115
30
0
0
VERTEX
8
S-COLS
10
41925
20
-115
30
0
0
VERTEX
8
S-COLS
10
41925
20
115
30
0
0
VERTEX
8
S-COLS
10
41475
20
115
30
0
0
SEQEND
8
S-COLS
0
SOLID
8
S-COLS
10
41585
20
4575
30
0
11
41815
21
4575
31
0
12
41585
22
5025
32
0
13
41815
23
5025
33
0
0
POLYLINE
8
S-COLS
66
1
10
0
20
0
30
0
70
1
0
VERTEX
8
S-COLS
10
41585
20
4575
30
0
0
VERTEX
8
S-COLS
10
41815
20
4575
30
0
0
VERTEX
8
S-COLS
10
41815
20
5025
30
0
0
VERTEX
8
S-COLS
10
41585
20
5025
30
0
0
SEQEND
8
S-COLS
0
SOLID
8
S-COLS
10
41585
20
8175
30
0
11
41815
21
8175
31
0
12
41585
22
8625
32
0
13
41815
23
8625
33
0
0
POLYLINE
8
S-COLS
66
1
10
0
20
0
30
0
70
1
0
VERTEX
8
S-COLS
10
41585
20
8175
30
0
0
VERTEX
8
S-COLS
10
41815
20
8175
30
0
0
VERTEX
8
S-COLS
10
41815
20
8625
30
0
0
VERTEX
8
S-COLS
10
41585
20
8625
30
0
0
SEQEND
8
S-COLS
0
SOLID
8
S-COLS
10
41475
20
11885
30
0
11
41925
21
11885
31
0
12
41475
22
12115
32
0
13
41925
23
12115
33
0
0
POLYLINE
8
S-COLS
66
1
10
0
20
0
30
0
70
1
0
VERTEX
8
S-COLS
10
41475
20
11885
30
0
0
VERTEX
8
S-COLS
10
41925
20
11885
30
0
0
VERTEX
8
S-COLS
10
41925
20
12115
30
0
0
VERTEX
8
S-COLS
10
41475
20
12115
30
0
0
SEQEND
8
S-COLS
0
SOLID
8
S-COLS
10
45075
20
-115
30
0
11
45525
21
-115
31
0
12
45075
22
115
32
0
13
45525
23
115
33
0
0
POLYLINE
8
S-COLS
66
1
10
0
20
0
30
0
70
1
0
VERTEX
8
S-COLS
10
45075
20
-115
30
0
0
VERTEX
8
S-COLS
10
45525
20
-115
30
0
0
VERTEX
8
S-COLS
10
45525
20
115
30
0
0
VERTEX
8
S-COLS
10
45075
20
115
30
0
0
SEQEND
8
S-COLS
0
SOLID
8
S-COLS
10
45185
20
4575
30
0
11
45415
21
4575
31
0
12
45185
22
5025
32
0
13
45415
23
5025
33
0
0
POLYLINE
8
S-COLS
66
1
10
0
20
0
30
0
70
1
0
VERTEX
8
S-COLS
10
45185
20
4575
30
0
0
VERTEX
8
S-COLS
10
45415
20
4575
30
0
0
VERTEX
8
S-COLS
10
45415
20
5025
30
0
0
VERTEX
8
S-COLS
10
45185
20
5025
30
0
0
SEQEND
8
S-COLS
0
SOLID
8
S-COLS
10
45185
20
8175
30
0
11
45415
21
8175
31
0
12
45185
22
8625
32
0
13
45415
23
8625
33
0
0
POLYLINE
8
S-COLS
66
1
10
0
20
0
30
0
70
1
0
VERTEX
8
S-COLS
10
45185
20
8175
30
0
0
VERTEX
8
S-COLS
10
45415
20
8175
30
0
0
VERTEX
8
S-COLS
10
45415
20
8625
30
0
0
VERTEX
8
S-COLS
10
45185
20
8625
30
0
0
SEQEND
8
S-COLS
0
SOLID
8
S-COLS
10
45075
20
11885
30
0
11
45525
21
11885
31
0
12
45075
22
12115
32
0
13
45525
23
12115
33
0
0
POLYLINE
8
S-COLS
66
1
10
0
20
0
30
0
70
1
0
VERTEX
8
S-COLS
10
45075
20
11885
30
0
0
VERTEX
8
S-COLS
10
45525
20
11885
30
0
0
VERTEX
8
S-COLS
10
45525
20
12115
30
0
0
VERTEX
8
S-COLS
10
45075
20
12115
30
0
0
SEQEND
8
S-COLS
0
SOLID
8
S-COLS
10
47475
20
-115
30
0
11
47925
21
-115
31
0
12
47475
22
115
32
0
13
47925
23
115
33
0
0
POLYLINE
8
S-COLS
66
1
10
0
20
0
30
0
70
1
0
VERTEX
8
S-COLS
10
47475
20
-115
30
0
0
VERTEX
8
S-COLS
10
47925
20
-115
30
0
0
VERTEX
8
S-COLS
10
47925
20
115
30
0
0
VERTEX
8
S-COLS
10
47475
20
115
30
0
0
SEQEND
8
S-COLS
0
SOLID
8
S-COLS
10
47585
20
4575
30
0
11
47815
21
4575
31
0
12
47585
22
5025
32
0
13
47815
23
5025
33
0
0
POLYLINE
8
S-COLS
66
1
10
0
20
0
30
0
70
1
0
VERTEX
8
S-COLS
10
47585
20
4575
30
0
0
VERTEX
8
S-COLS
10
47815
20
4575
30
0
0
VERTEX
8
S-COLS
10
47815
20
5025
30
0
0
VERTEX
8
S-COLS
10
47585
20
5025
30
0
0
SEQEND
8
S-COLS
0
SOLID
8
S-COLS
10
47585
20
8175
30
0
11
47815
21
8175
31
0
12
47585
22
8625
32
0
13
47815
23
8625
33
0
0
POLYLINE
8
S-COLS
66
1
10
0
20
0
30
0
70
1
0
VERTEX
8
S-COLS
10
47585
20
8175
30
0
0
VERTEX
8
S-COLS
10
47815
20
8175
30
0
0
VERTEX
8
S-COLS
10
47815
20
8625
30
0
0
VERTEX
8
S-COLS
10
47585
20
8625
30
0
0
SEQEND
8
S-COLS
0
SOLID
8
S-COLS
10
47475
20
11885
30
0
11
47925
21
11885
31
0
12
47475
22
12115
32
0
13
47925
23
12115
33
0
0
POLYLINE
8
S-COLS
66
1
10
0
20
0
30
0
70
1
0
VERTEX
8
S-COLS
10
47475
20
11885
30
0
0
VERTEX
8
S-COLS
10
47925
20
11885
30
0
0
VERTEX
8
S-COLS
10
47925
20
12115
30
0
0
VERTEX
8
S-COLS
10
47475
20
12115
30
0
0
SEQEND
8
S-COLS
0
SOLID
8
S-COLS
10
51075
20
-115
30
0
11
51525
21
-115
31
0
12
51075
22
115
32
0
13
51525
23
115
33
0
0
POLYLINE
8
S-COLS
66
1
10
0
20
0
30
0
70
1
0
VERTEX
8
S-COLS
10
51075
20
-115
30
0
0
VERTEX
8
S-COLS
10
51525
20
-115
30
0
0
VERTEX
8
S-COLS
10
51525
20
115
30
0
0
VERTEX
8
S-COLS
10
51075
20
115
30
0
0
SEQEND
8
S-COLS
0
SOLID
8
S-COLS
10
51185
20
4575
30
0
11
51415
21
4575
31
0
12
51185
22
5025
32
0
13
51415
23
5025
33
0
0
POLYLINE
8
S-COLS
66
1
10
0
20
0
30
0
70
1
0
VERTEX
8
S-COLS
10
51185
20
4575
30
0
0
VERTEX
8
S-COLS
10
51415
20
4575
30
0
0
VERTEX
8
S-COLS
10
51415
20
5025
30
0
0
VERTEX
8
S-COLS
10
51185
20
5025
30
0
0
SEQEND
8
S-COLS
0
SOLID
8
S-COLS
10
51185
20
8175
30
0
11
51415
21
8175
31
0
12
51185
22
8625
32
0
13
51415
23
8625
33
0
0
POLYLINE
8
S-COLS
66
1
10
0
20
0
30
0
70
1
0
VERTEX
8
S-COLS
10
51185
20
8175
30
0
0
VERTEX
8
S-COLS
10
51415
20
8175
30
0
0
VERTEX
8
S-COLS
10
51415
20
8625
30
0
0
VERTEX
8
S-COLS
10
51185
20
8625
30
0
0
SEQEND
8
S-COLS
0
SOLID
8
S-COLS
10
51075
20
11885
30
0
11
51525
21
11885
31
0
12
51075
22
12115
32
0
13
51525
23
12115
33
0
0
POLYLINE
8
S-COLS
66
1
10
0
20
0
30
0
70
1
0
VERTEX
8
S-COLS
10
51075
20
11885
30
0
0
VERTEX
8
S-COLS
10
51525
20
11885
30
0
0
VERTEX
8
S-COLS
10
51525
20
12115
30
0
0
VERTEX
8
S-COLS
10
51075
20
12115
30
0
0
SEQEND
8
S-COLS
0
SOLID
8
S-COLS
10
53775
20
-115
30
0
11
54225
21
-115
31
0
12
53775
22
115
32
0
13
54225
23
115
33
0
0
POLYLINE
8
S-COLS
66
1
10
0
20
0
30
0
70
1
0
VERTEX
8
S-COLS
10
53775
20
-115
30
0
0
VERTEX
8
S-COLS
10
54225
20
-115
30
0
0
VERTEX
8
S-COLS
10
54225
20
115
30
0
0
VERTEX
8
S-COLS
10
53775
20
115
30
0
0
SEQEND
8
S-COLS
0
SOLID
8
S-COLS
10
53885
20
4575
30
0
11
54115
21
4575
31
0
12
53885
22
5025
32
0
13
54115
23
5025
33
0
0
POLYLINE
8
S-COLS
66
1
10
0
20
0
30
0
70
1
0
VERTEX
8
S-COLS
10
53885
20
4575
30
0
0
VERTEX
8
S-COLS
10
54115
20
4575
30
0
0
VERTEX
8
S-COLS
10
54115
20
5025
30
0
0
VERTEX
8
S-COLS
10
53885
20
5025
30
0
0
SEQEND
8
S-COLS
0
SOLID
8
S-COLS
10
53885
20
8175
30
0
11
54115
21
8175
31
0
12
53885
22
8625
32
0
13
54115
23
8625
33
0
0
POLYLINE
8
S-COLS
66
1
10
0
20
0
30
0
70
1
0
VERTEX
8
S-COLS
10
53885
20
8175
30
0
0
VERTEX
8
S-COLS
10
54115
20
8175
30
0
0
VERTEX
8
S-COLS
10
54115
20
8625
30
0
0
VERTEX
8
S-COLS
10
53885
20
8625
30
0
0
SEQEND
8
S-COLS
0
SOLID
8
S-COLS
10
53775
20
11885
30
0
11
54225
21
11885
31
0
12
53775
22
12115
32
0
13
54225
23
12115
33
0
0
POLYLINE
8
S-COLS
66
1
10
0
20
0
30
0
70
1
0
VERTEX
8
S-COLS
10
53775
20
11885
30
0
0
VERTEX
8
S-COLS
10
54225
20
11885
30
0
0
VERTEX
8
S-COLS
10
54225
20
12115
30
0
0
VERTEX
8
S-COLS
10
53775
20
12115
30
0
0
SEQEND
8
S-COLS
0
LINE
8
P-DUCT
10
38760
20
11460
30
0
11
39240
21
11940
31
0
0
LINE
8
P-DUCT
10
38760
20
11940
30
0
11
39240
21
11460
31
0
0
LINE
8
P-DUCT
10
40860
20
7860
30
0
11
41640
21
8340
31
0
0
LINE
8
P-DUCT
10
40860
20
8340
30
0
11
41640
21
7860
31
0
0
LINE
8
P-DUCT
10
47760
20
11460
30
0
11
48240
21
11940
31
0
0
LINE
8
P-DUCT
10
47760
20
11940
30
0
11
48240
21
11460
31
0
0
LINE
8
P-DUCT
10
45360
20
7860
30
0
11
46140
21
8340
31
0
0
LINE
8
P-DUCT
10
45360
20
8340
30
0
11
46140
21
7860
31
0
0
LINE
8
A-STRS
10
41950
20
8400
30
0
11
43450
21
8400
31
0
0
LINE
8
A-STRS
10
43550
20
8400
30
0
11
45050
21
8400
31
0
0
LINE
8
A-STRS
10
41950
20
8650
30
0
11
43450
21
8650
31
0
0
LINE
8
A-STRS
10
43550
20
8650
30
0
11
45050
21
8650
31
0
0
LINE
8
A-STRS
10
41950
20
8900
30
0
11
43450
21
8900
31
0
0
LINE
8
A-STRS
10
43550
20
8900
30
0
11
45050
21
8900
31
0
0
LINE
8
A-STRS
10
41950
20
9150
30
0
11
43450
21
9150
31
0
0
LINE
8
A-STRS
10
43550
20
9150
30
0
11
45050
21
9150
31
0
0
LINE
8
A-STRS
10
41950
20
9400
30
0
11
43450
21
9400
31
0
0
LINE
8
A-STRS
10
43550
20
9400
30
0
11
45050
21
9400
31
0
0
LINE
8
A-STRS
10
41950
20
9650
30
0
11
43450
21
9650
31
0
0
LINE
8
A-STRS
10
43550
20
9650
30
0
11
45050
21
9650
31
0
0
LINE
8
A-STRS
10
41950
20
9900
30
0
11
43450
21
9900
31
0
0
LINE
8
A-STRS
10
43550
20
9900
30
0
11
45050
21
9900
31
0
0
LINE
8
A-STRS
10
41950
20
10150
30
0
11
43450
21
10150
31
0
0
LINE
8
A-STRS
10
43550
20
10150
30
0
11
45050
21
10150
31
0
0
LINE
8
A-STRS
10
41950
20
10400
30
0
11
43450
21
10400
31
0
0
LINE
8
A-STRS
10
43550
20
10400
30
0
11
45050
21
10400
31
0
0
LINE
8
A-STRS
10
41950
20
10650
30
0
11
43450
21
10650
31
0
0
LINE
8
A-STRS
10
43550
20
10650
30
0
11
45050
21
10650
31
0
0
LINE
8
A-STRS
10
41950
20
10900
30
0
11
43450
21
10900
31
0
0
LINE
8
A-STRS
10
43550
20
10900
30
0
11
45050
21
10900
31
0
0
LINE
8
A-STRS
10
41950
20
11150
30
0
11
43450
21
11150
31
0
0
LINE
8
A-STRS
10
43550
20
11150
30
0
11
45050
21
11150
31
0
0
LINE
8
A-STRS
10
41950
20
11400
30
0
11
43450
21
11400
31
0
0
LINE
8
A-STRS
10
43550
20
11400
30
0
11
45050
21
11400
31
0
0
LINE
8
A-STRS
10
43450
20
8400
30
0
11
43450
21
11400
31
0
0
LINE
8
A-STRS
10
43550
20
8400
30
0
11
43550
21
11400
31
0
0
LINE
8
A-LIFT
10
42800
20
5300
30
0
11
44200
21
6700
31
0
0
LINE
8
A-LIFT
10
42800
20
6700
30
0
11
44200
21
5300
31
0
0
POLYLINE
8
A-FURN
66
1
10
0
20
0
30
0
70
1
0
VERTEX
8
A-FURN
10
33600
20
9000
30
0
0
VERTEX
8
A-FURN
10
35400
20
9000
30
0
0
VERTEX
8
A-FURN
10
35400
20
11100
30
0
0
VERTEX
8
A-FURN
10
33600
20
11100
30
0
0
SEQEND
8
A-FURN
0
POLYLINE
8
A-FURN
66
1
10
0
20
0
30
0
70
1
0
VERTEX
8
A-FURN
10
33800
20
10700
30
0
0
VERTEX
8
A-FURN
10
35200
20
10700
30
0
0
VERTEX
8
A-FURN
10
35200
20
11000
30
0
0
VERTEX
8
A-FURN
10
33800
20
11000
30
0
0
SEQEND
8
A-FURN
0
POLYLINE
8
A-FURN
66
1
10
0
20
0
30
0
70
1
0
VERTEX
8
A-FURN
10
39700
20
9000
30
0
0
VERTEX
8
A-FURN
10
41300
20
9000
30
0
0
VERTEX
8
A-FURN
10
41300
20
11100
30
0
0
VERTEX
8
A-FURN
10
39700
20
11100
30
0
0
SEQEND
8
A-FURN
0
POLYLINE
8
A-FURN
66
1
10
0
20
0
30
0
70
1
0
VERTEX
8
A-FURN
10
33600
20
600
30
0
0
VERTEX
8
A-FURN
10
36000
20
600
30
0
0
VERTEX
8
A-FURN
10
36000
20
1500
30
0
0
VERTEX
8
A-FURN
10
33600
20
1500
30
0
0
SEQEND
8
A-FURN
0
POLYLINE
8
A-FURN
66
1
10
0
20
0
30
0
70
1
0
VERTEX
8
A-FURN
10
33600
20
1500
30
0
0
VERTEX
8
A-FURN
10
34500
20
1500
30
0
0
VERTEX
8
A-FURN
10
34500
20
3300
30
0
0
VERTEX
8
A-FURN
10
33600
20
3300
30
0
0
SEQEND
8
A-FURN
0
POLYLINE
8
A-FURN
66
1
10
0
20
0
30
0
70
1
0
VERTEX
8
A-FURN
10
36600
20
6000
30
0
0
VERTEX
8
A-FURN
10
38400
20
6000
30
0
0
VERTEX
8
A-FURN
10
38400
20
7200
30
0
0
VERTEX
8
A-FURN
10
36600
20
7200
30
0
0
SEQEND
8
A-FURN
0
POLYLINE
8
A-FURN
66
1
10
0
20
0
30
0
70
1
0
VERTEX
8
A-FURN
10
33300
20
5100
30
0
0
VERTEX
8
A-FURN
10
33900
20
5100
30
0
0
VERTEX
8
A-FURN
10
33900
20
8100
30
0
0
VERTEX
8
A-FURN
10
33300
20
8100
30
0
0
SEQEND
8
A-FURN
0
POLYLINE
8
A-FURN
66
1
10
0
20
0
30
0
70
1
0
VERTEX
8
A-FURN
10
51600
20
9000
30
0
0
VERTEX
8
A-FURN
10
53400
20
9000
30
0
0
VERTEX
8
A-FURN
10
53400
20
11100
30
0
0
VERTEX
8
A-FURN
10
51600
20
11100
30
0
0
SEQEND
8
A-FURN
0
POLYLINE
8
A-FURN
66
1
10
0
20
0
30
0
70
1
0
VERTEX
8
A-FURN
10
51800
20
10700
30
0
0
VERTEX
8
A-FURN
10
53200
20
10700
30
0
0
VERTEX
8
A-FURN
10
53200
20
11000
30
0
0
VERTEX
8
A-FURN
10
51800
20
11000
30
0
0
SEQEND
8
A-FURN
0
POLYLINE
8
A-FURN
66
1
10
0
20
0
30
0
70
1
0
VERTEX
8
A-FURN
10
45700
20
9000
30
0
0
VERTEX
8
A-FURN
10
47300
20
9000
30
0
0
VERTEX
8
A-FURN
10
47300
20
11100
30
0
0
VERTEX
8
A-FURN
10
45700
20
11100
30
0
0
SEQEND
8
A-FURN
0
POLYLINE
8
A-FURN
66
1
10
0
20
0
30
0
70
1
0
VERTEX
8
A-FURN
10
51000
20
600
30
0
0
VERTEX
8
A-FURN
10
53400
20
600
30
0
0
VERTEX
8
A-FURN
10
53400
20
1500
30
0
0
VERTEX
8
A-FURN
10
51000
20
1500
30
0
0
SEQEND
8
A-FURN
0
POLYLINE
8
A-FURN
66
1
10
0
20
0
30
0
70
1
0
VERTEX
8
A-FURN
10
52500
20
1500
30
0
0
VERTEX
8
A-FURN
10
53400
20
1500
30
0
0
VERTEX
8
A-FURN
10
53400
20
3300
30
0
0
VERTEX
8
A-FURN
10
52500
20
3300
30
0
0
SEQEND
8
A-FURN
0
POLYLINE
8
A-FURN
66
1
10
0
20
0
30
0
70
1
0
VERTEX
8
A-FURN
10
48600
20
6000
30
0
0
VERTEX
8
A-FURN
10
50400
20
6000
30
0
0
VERTEX
8
A-FURN
10
50400
20
7200
30
0
0
VERTEX
8
A-FURN
10
48600
20
7200
30
0
0
SEQEND
8
A-FURN
0
POLYLINE
8
A-FURN
66
1
10
0
20
0
30
0
70
1
0
VERTEX
8
A-FURN
10
53100
20
5100
30
0
0
VERTEX
8
A-FURN
10
53700
20
5100
30
0
0
VERTEX
8
A-FURN
10
53700
20
8100
30
0
0
VERTEX
8
A-FURN
10
53100
20
8100
30
0
0
SEQEND
8
A-FURN
0
TEXT
8
A-ANNO-ROOM
10
35700
20
2530
30
0
40
200
1
LIVING
50
0
72
4
11
35700
21
2530
31
0
0
TEXT
8
A-ANNO-ROOM
10
35700
20
2230
30
0
40
150
1
17'4" X 15'4"
50
0
72
4
11
35700
21
2230
31
0
0
TEXT
8
A-ANNO-ROOM
10
40050
20
2530
30
0
40
200
1
FOYER
50
0
72
4
11
40050
21
2530
31
0
0
TEXT
8
A-ANNO-ROOM
10
40050
20
2230
30
0
40
150
1
10'5" X 15'4"
50
0
72
4
11
40050
21
2230
31
0
0
TEXT
8
A-ANNO-ROOM
10
34350
20
6730
30
0
40
200
1
KITCHEN
50
0
72
4
11
34350
21
6730
31
0
0
TEXT
8
A-ANNO-ROOM
10
34350
20
6430
30
0
40
150
1
8'6" X 11'5"
50
0
72
4
11
34350
21
6430
31
0
0
TEXT
8
A-ANNO-ROOM
10
37500
20
6730
30
0
40
200
1
DINING
50
0
72
4
11
37500
21
6730
31
0
0
TEXT
8
A-ANNO-ROOM
10
37500
20
6430
30
0
40
150
1
11'5" X 11'5"
50
0
72
4
11
37500
21
6430
31
0
0
TEXT
8
A-ANNO-ROOM
10
40500
20
7330
30
0
40
200
1
TOILET
50
0
72
4
11
40500
21
7330
31
0
0
TEXT
8
A-ANNO-ROOM
10
40500
20
7030
30
0
40
150
1
7'6" X 7'6"
50
0
72
4
11
40500
21
7030
31
0
0
TEXT
8
A-ANNO-ROOM
10
40500
20
5400
30
0
40
150
1
STORE
50
0
72
4
11
40500
21
5400
31
0
0
TEXT
8
A-ANNO-ROOM
10
34950
20
10330
30
0
40
200
1
BED ROOM
50
0
72
4
11
34950
21
10330
31
0
0
TEXT
8
A-ANNO-ROOM
10
34950
20
10030
30
0
40
150
1
12'5" X 11'5"
50
0
72
4
11
34950
21
10030
31
0
0
TEXT
8
A-ANNO-ROOM
10
38100
20
9000
30
0
40
150
1
PASSAGE
50
0
72
4
11
38100
21
9000
31
0
0
TEXT
8
A-ANNO-ROOM
10
38100
20
10930
30
0
40
200
1
TOILET
50
0
72
4
11
38100
21
10930
31
0
0
TEXT
8
A-ANNO-ROOM
10
38100
20
10630
30
0
40
150
1
7'6" X 7'6"
50
0
72
4
11
38100
21
10630
31
0
0
TEXT
8
A-ANNO-ROOM
10
40500
20
10330
30
0
40
200
1
BED ROOM
50
0
72
4
11
40500
21
10330
31
0
0
TEXT
8
A-ANNO-ROOM
10
40500
20
10030
30
0
40
150
1
7'6" X 11'5"
50
0
72
4
11
40500
21
10030
31
0
0
TEXT
8
A-ANNO-ROOM
10
35850
20
-620
30
0
40
200
1
BALCONY
50
0
72
4
11
35850
21
-620
31
0
0
TEXT
8
A-ANNO-ROOM
10
51300
20
2530
30
0
40
200
1
LIVING
50
0
72
4
11
51300
21
2530
31
0
0
TEXT
8
A-ANNO-ROOM
10
51300
20
2230
30
0
40
150
1
17'4" X 15'4"
50
0
72
4
11
51300
21
2230
31
0
0
TEXT
8
A-ANNO-ROOM
10
46950
20
2530
30
0
40
200
1
FOYER
50
0
72
4
11
46950
21
2530
31
0
0
TEXT
8
A-ANNO-ROOM
10
46950
20
2230
30
0
40
150
1
10'5" X 15'4"
50
0
72
4
11
46950
21
2230
31
0
0
TEXT
8
A-ANNO-ROOM
10
52650
20
6730
30
0
40
200
1
KITCHEN
50
0
72
4
11
52650
21
6730
31
0
0
TEXT
8
A-ANNO-ROOM
10
52650
20
6430
30
0
40
150
1
8'6" X 11'5"
50
0
72
4
11
52650
21
6430
31
0
0
TEXT
8
A-ANNO-ROOM
10
49500
20
6730
30
0
40
200
1
DINING
50
0
72
4
11
49500
21
6730
31
0
0
TEXT
8
A-ANNO-ROOM
10
49500
20
6430
30
0
40
150
1
11'5" X 11'5"
50
0
72
4
11
49500
21
6430
31
0
0
TEXT
8
A-ANNO-ROOM
10
46500
20
7330
30
0
40
200
1
TOILET
50
0
72
4
11
46500
21
7330
31
0
0
TEXT
8
A-ANNO-ROOM
10
46500
20
7030
30
0
40
150
1
7'6" X 7'6"
50
0
72
4
11
46500
21
7030
31
0
0
TEXT
8
A-ANNO-ROOM
10
46500
20
5400
30
0
40
150
1
STORE
50
0
72
4
11
46500
21
5400
31
0
0
TEXT
8
A-ANNO-ROOM
10
52050
20
10330
30
0
40
200
1
BED ROOM
50
0
72
4
11
52050
21
10330
31
0
0
TEXT
8
A-ANNO-ROOM
10
52050
20
10030
30
0
40
150
1
12'5" X 11'5"
50
0
72
4
11
52050
21
10030
31
0
0
TEXT
8
A-ANNO-ROOM
10
48900
20
9000
30
0
40
150
1
PASSAGE
50
0
72
4
11
48900
21
9000
31
0
0
TEXT
8
A-ANNO-ROOM
10
48900
20
10930
30
0
40
200
1
TOILET
50
0
72
4
11
48900
21
10930
31
0
0
TEXT
8
A-ANNO-ROOM
10
48900
20
10630
30
0
40
150
1
7'6" X 7'6"
50
0
72
4
11
48900
21
10630
31
0
0
TEXT
8
A-ANNO-ROOM
10
46500
20
10330
30
0
40
200
1
BED ROOM
50
0
72
4
11
46500
21
10330
31
0
0
TEXT
8
A-ANNO-ROOM
10
46500
20
10030
30
0
40
150
1
7'6" X 11'5"
50
0
72
4
11
46500
21
10030
31
0
0
TEXT
8
A-ANNO-ROOM
10
51150
20
-620
30
0
40
200
1
BALCONY
50
0
72
4
11
51150
21
-620
31
0
0
TEXT
8
A-ANNO-ROOM
10
43500
20
9730
30
0
40
200
1
STAIRCASE
50
0
72
4
11
43500
21
9730
31
0
0
TEXT
8
A-ANNO-ROOM
10
43500
20
6130
30
0
40
200
1
LIFT
50
0
72
4
11
43500
21
6130
31
0
0
TEXT
8
A-ANNO-ROOM
10
43500
20
5830
30
0
40
150
1
5'6" X 5'6"
50
0
72
4
11
43500
21
5830
31
0
0
TEXT
8
A-ANNO-ROOM
10
43500
20
2680
30
0
40
200
1
LOBBY
50
0
72
4
11
43500
21
2680
31
0
0
DIMENSION
8
A-DIMS
2
*D14
10
35700
20
13300
30
0
11
34350
21
13444
31
0
70
0
1

13
33000
23
12000
33
0
14
35700
24
12000
34
0
50
0
0
DIMENSION
8
A-DIMS
2
*D15
10
39300
20
13300
30
0
11
37500
21
13444
31
0
70
0
1

13
35700
23
12000
33
0
14
39300
24
12000
34
0
50
0
0
DIMENSION
8
A-DIMS
2
*D16
10
41700
20
13300
30
0
11
40500
21
13444
31
0
70
0
1

13
39300
23
12000
33
0
14
41700
24
12000
34
0
50
0
0
DIMENSION
8
A-DIMS
2
*D17
10
45300
20
13300
30
0
11
43500
21
13444
31
0
70
0
1

13
41700
23
12000
33
0
14
45300
24
12000
34
0
50
0
0
DIMENSION
8
A-DIMS
2
*D18
10
47700
20
13300
30
0
11
46500
21
13444
31
0
70
0
1

13
45300
23
12000
33
0
14
47700
24
12000
34
0
50
0
0
DIMENSION
8
A-DIMS
2
*D19
10
51300
20
13300
30
0
11
49500
21
13444
31
0
70
0
1

13
47700
23
12000
33
0
14
51300
24
12000
34
0
50
0
0
DIMENSION
8
A-DIMS
2
*D20
10
54000
20
13300
30
0
11
52650
21
13444
31
0
70
0
1

13
51300
23
12000
33
0
14
54000
24
12000
34
0
50
0
0
DIMENSION
8
A-DIMS
2
*D21
10
54000
20
14300
30
0
11
43500
21
14444
31
0
70
0
1

13
33000
23
12000
33
0
14
54000
24
12000
34
0
50
0
0
DIMENSION
8
A-DIMS
2
*D22
10
31700
20
4800
30
0
11
31556
21
2400
31
0
70
0
1

13
33000
23
0
33
0
14
33000
24
4800
34
0
50
90
0
DIMENSION
8
A-DIMS
2
*D23
10
31700
20
8400
30
0
11
31556
21
6600
31
0
70
0
1

13
33000
23
4800
33
0
14
33000
24
8400
34
0
50
90
0
DIMENSION
8
A-DIMS
2
*D24
10
31700
20
12000
30
0
11
31556
21
10200
31
0
70
0
1

13
33000
23
8400
33
0
14
33000
24
12000
34
0
50
90
0
DIMENSION
8
A-DIMS
2
*D25
10
30700
20
12000
30
0
11
30556
21
6000
31
0
70
0
1

13
33000
23
0
33
0
14
33000
24
12000
34
0
50
90
0
DIMENSION
8
A-DIMS
2
*D26
10
54000
20
-3100
30
0
11
43500
21
-2956
31
0
70
0
1

13
33000
23
0
33
0
14
54000
24
0
34
0
50
0
0
TEXT
8
A-ANNO-TTLB
10
43500
20
-4700
30
0
40
450
1
FIRST FLOOR PLAN
50
0
72
1
11
43500
21
-4700
31
0
0
TEXT
8
A-ANNO-TTLB
10
43500
20
-5400
30
0
40
250
1
SCALE 1:100
50
0
72
1
11
43500
21
-5400
31
0
0
POLYLINE
8
A-WALL
66
1
10
0
20
0
30
0
70
1
0
VERTEX
8
A-WALL
10
66520
20
-1580
30
0
0
VERTEX
8
A-WALL
10
66520
20
-120
30
0
0
VERTEX
8
A-WALL
10
65880
20
-120
30
0
0
VERTEX
8
A-WALL
10
65880
20
1200
30
0
0
VERTEX
8
A-WALL
10
66120
20
1200
30
0
0
VERTEX
8
A-WALL
10
66120
20
110
30
0
0
VERTEX
8
A-WALL
10
67500
20
110
30
0
0
VERTEX
8
A-WALL
10
67500
20
-120
30
0
0
VERTEX
8
A-WALL
10
66680
20
-120
30
0
0
VERTEX
8
A-WALL
10
66680
20
-1430
30
0
0
VERTEX
8
A-WALL
10
71020
20
-1430
30
0
0
VERTEX
8
A-WALL
10
71020
20
-120
30
0
0
VERTEX
8
A-WALL
10
70500
20
-120
30
0
0
VERTEX
8
A-WALL
10
70500
20
110
30
0
0
VERTEX
8
A-WALL
10
71340
20
110
30
0
0
VERTEX
8
A-WALL
10
71340
20
1200
30
0
0
VERTEX
8
A-WALL
10
71460
20
1200
30
0
0
VERTEX
8
A-WALL
10
71460
20
110
30
0
0
VERTEX
8
A-WALL
10
74580
20
110
30
0
0
VERTEX
8
A-WALL
10
74580
20
2000
30
0
0
VERTEX
8
A-WALL
10
74820
20
2000
30
0
0
VERTEX
8
A-WALL
10
74820
20
110
30
0
0
VERTEX
8
A-WALL
10
75900
20
110
30
0
0
VERTEX
8
A-WALL
10
75900
20
-120
30
0
0
VERTEX
8
A-WALL
10
71180
20
-120
30
0
0
VERTEX
8
A-WALL
10
71180
20
-1580
30
0
0
SEQEND
8
A-WALL
0
POLYLINE
8
A-WALL
66
1
10
0
20
0
30
0
70
1
0
VERTEX
8
A-WALL
10
81820
20
-1580
30
0
0
VERTEX
8
A-WALL
10
81820
20
-120
30
0
0
VERTEX
8
A-WALL
10
77100
20
-120
30
0
0
VERTEX
8
A-WALL
10
77100
20
110
30
0
0
VERTEX
8
A-WALL
10
78180
20
110
30
0
0
VERTEX
8
A-WALL
10
78180
20
2000
30
0
0
VERTEX
8
A-WALL
10
78420
20
2000
30
0
0
VERTEX
8
A-WALL
10
78420
20
110
30
0
0
VERTEX
8
A-WALL
10
81540
20
110
30
0
0
VERTEX
8
A-WALL
10
81540
20
1200
30
0
0
VERTEX
8
A-WALL
10
81660
20
1200
30
0
0
VERTEX
8
A-WALL
10
81660
20
110
30
0
0
VERTEX
8
A-WALL
10
82500
20
110
30
0
0
VERTEX
8
A-WALL
10
82500
20
-120
30
0
0
VERTEX
8
A-WALL
10
81980
20
-120
30
0
0
VERTEX
8
A-WALL
10
81980
20
-1430
30
0
0
VERTEX
8
A-WALL
10
86320
20
-1430
30
0
0
VERTEX
8
A-WALL
10
86320
20
-120
30
0
0
VERTEX
8
A-WALL
10
85500
20
-120
30
0
0
VERTEX
8
A-WALL
10
85500
20
110
30
0
0
VERTEX
8
A-WALL
10
86880
20
110
30
0
0
VERTEX
8
A-WALL
10
86880
20
1200
30
0
0
VERTEX
8
A-WALL
10
87120
20
1200
30
0
0
VERTEX
8
A-WALL
10
87120
20
-120
30
0
0
VERTEX
8
A-WALL
10
86480
20
-120
30
0
0
VERTEX
8
A-WALL
10
86480
20
-1580
30
0
0
SEQEND
8
A-WALL
0
POLYLINE
8
A-WALL
66
1
10
0
20
0
30
0
70
1
0
VERTEX
8
A-WALL
10
74580
20
3000
30
0
0
VERTEX
8
A-WALL
10
74580
20
4740
30
0
0
VERTEX
8
A-WALL
10
74350
20
4740
30
0
0
VERTEX
8
A-WALL
10
74350
20
4860
30
0
0
VERTEX
8
A-WALL
10
74580
20
4860
30
0
0
VERTEX
8
A-WALL
10
74580
20
5940
30
0
0
VERTEX
8
A-WALL
10
72360
20
5940
30
0
0
VERTEX
8
A-WALL
10
72360
20
4860
30
0
0
VERTEX
8
A-WALL
10
73600
20
4860
30
0
0
VERTEX
8
A-WALL
10
73600
20
4740
30
0
0
VERTEX
8
A-WALL
10
72000
20
4740
30
0
0
VERTEX
8
A-WALL
10
72000
20
4860
30
0
0
VERTEX
8
A-WALL
10
72240
20
4860
30
0
0
VERTEX
8
A-WALL
10
72240
20
6600
30
0
0
VERTEX
8
A-WALL
10
72360
20
6600
30
0
0
VERTEX
8
A-WALL
10
72360
20
6060
30
0
0
VERTEX
8
A-WALL
10
74580
20
6060
30
0
0
VERTEX
8
A-WALL
10
74580
20
7740
30
0
0
VERTEX
8
A-WALL
10
73740
20
7740
30
0
0
VERTEX
8
A-WALL
10
73740
20
8340
30
0
0
VERTEX
8
A-WALL
10
72360
20
8340
30
0
0
VERTEX
8
A-WALL
10
72360
20
7350
30
0
0
VERTEX
8
A-WALL
10
72240
20
7350
30
0
0
VERTEX
8
A-WALL
10
72240
20
8340
30
0
0
VERTEX
8
A-WALL
10
72000
20
8340
30
0
0
VERTEX
8
A-WALL
10
72000
20
8460
30
0
0
VERTEX
8
A-WALL
10
72240
20
8460
30
0
0
VERTEX
8
A-WALL
10
72240
20
8700
30
0
0
VERTEX
8
A-WALL
10
72360
20
8700
30
0
0
VERTEX
8
A-WALL
10
72360
20
8460
30
0
0
VERTEX
8
A-WALL
10
74580
20
8460
30
0
0
VERTEX
8
A-WALL
10
74580
20
11880
30
0
0
VERTEX
8
A-WALL
10
74400
20
11880
30
0
0
VERTEX
8
A-WALL
10
74400
20
12110
30
0
0
VERTEX
8
A-WALL
10
78600
20
12110
30
0
0
VERTEX
8
A-WALL
10
78600
20
11880
30
0
0
VERTEX
8
A-WALL
10
78420
20
11880
30
0
0
VERTEX
8
A-WALL
10
78420
20
8460
30
0
0
VERTEX
8
A-WALL
10
80640
20
8460
30
0
0
VERTEX
8
A-WALL
10
80640
20
8700
30
0
0
VERTEX
8
A-WALL
10
80760
20
8700
30
0
0
VERTEX
8
A-WALL
10
80760
20
8460
30
0
0
VERTEX
8
A-WALL
10
81000
20
8460
30
0
0
VERTEX
8
A-WALL
10
81000
20
8340
30
0
0
VERTEX
8
A-WALL
10
80760
20
8340
30
0
0
VERTEX
8
A-WALL
10
80760
20
7350
30
0
0
VERTEX
8
A-WALL
10
80640
20
7350
30
0
0
VERTEX
8
A-WALL
10
80640
20
8340
30
0
0
VERTEX
8
A-WALL
10
79260
20
8340
30
0
0
VERTEX
8
A-WALL
10
79260
20
7740
30
0
0
VERTEX
8
A-WALL
10
78420
20
7740
30
0
0
VERTEX
8
A-WALL
10
78420
20
6060
30
0
0
VERTEX
8
A-WALL
10
80640
20
6060
30
0
0
VERTEX
8
A-WALL
10
80640
20
6600
30
0
0
VERTEX
8
A-WALL
10
80760
20
6600
30
0
0
VERTEX
8
A-WALL
10
80760
20
4860
30
0
0
VERTEX
8
A-WALL
10
81000
20
4860
30
0
0
VERTEX
8
A-WALL
10
81000
20
4740
30
0
0
VERTEX
8
A-WALL
10
79400
20
4740
30
0
0
VERTEX
8
A-WALL
10
79400
20
4860
30
0
0
VERTEX
8
A-WALL
10
80640
20
4860
30
0
0
VERTEX
8
A-WALL
10
80640
20
5940
30
0
0
VERTEX
8
A-WALL
10
78420
20
5940
30
0
0
VERTEX
8
A-WALL
10
78420
20
4860
30
0
0
VERTEX
8
A-WALL
10
78650
20
4860
30
0
0
VERTEX
8
A-WALL
10
78650
20
4740
30
0
0
VERTEX
8
A-WALL
10
78420
20
4740
30
0
0
VERTEX
8
A-WALL
10
78420
20
3000
30
0
0
VERTEX
8
A-WALL
10
78180
20
3000
30
0
0
VERTEX
8
A-WALL
10
78180
20
7140
30
0
0
VERTEX
8
A-WALL
10
78000
20
7140
30
0
0
VERTEX
8
A-WALL
10
78000
20
7260
30
0
0
VERTEX
8
A-WALL
10
78180
20
7260
30
0
0
VERTEX
8
A-WALL
10
78180
20
11880
30
0
0
VERTEX
8
A-WALL
10
74820
20
11880
30
0
0
VERTEX
8
A-WALL
10
74820
20
7260
30
0
0
VERTEX
8
A-WALL
10
75000
20
7260
30
0
0
VERTEX
8
A-WALL
10
75000
20
7140
30
0
0
VERTEX
8
A-WALL
10
74820
20
7140
30
0
0
VERTEX
8
A-WALL
10
74820
20
3000
30
0
0
SEQEND
8
A-WALL
0
POLYLINE
8
A-WALL
66
1
10
0
20
0
30
0
70
1
0
VERTEX
8
A-WALL
10
65880
20
3600
30
0
0
VERTEX
8
A-WALL
10
65880
20
6000
30
0
0
VERTEX
8
A-WALL
10
66120
20
6000
30
0
0
VERTEX
8
A-WALL
10
66120
20
4860
30
0
0
VERTEX
8
A-WALL
10
68640
20
4860
30
0
0
VERTEX
8
A-WALL
10
68640
20
5400
30
0
0
VERTEX
8
A-WALL
10
68760
20
5400
30
0
0
VERTEX
8
A-WALL
10
68760
20
4860
30
0
0
VERTEX
8
A-WALL
10
69000
20
4860
30
0
0
VERTEX
8
A-WALL
10
69000
20
4740
30
0
0
VERTEX
8
A-WALL
10
66120
20
4740
30
0
0
VERTEX
8
A-WALL
10
66120
20
3600
30
0
0
SEQEND
8
A-WALL
0
POLYLINE
8
A-WALL
66
1
10
0
20
0
30
0
70
1
0
VERTEX
8
A-WALL
10
86880
20
3600
30
0
0
VERTEX
8
A-WALL
10
86880
20
4740
30
0
0
VERTEX
8
A-WALL
10
84000
20
4740
30
0
0
VERTEX
8
A-WALL
10
84000
20
4860
30
0
0
VERTEX
8
A-WALL
10
84240
20
4860
30
0
0
VERTEX
8
A-WALL
10
84240
20
5400
30
0
0
VERTEX
8
A-WALL
10
84360
20
5400
30
0
0
VERTEX
8
A-WALL
10
84360
20
4860
30
0
0
VERTEX
8
A-WALL
10
86880
20
4860
30
0
0
VERTEX
8
A-WALL
10
86880
20
6000
30
0
0
VERTEX
8
A-WALL
10
87120
20
6000
30
0
0
VERTEX
8
A-WALL
10
87120
20
3600
30
0
0
SEQEND
8
A-WALL
0
POLYLINE
8
A-WALL
66
1
10
0
20
0
30
0
70
1
0
VERTEX
8
A-WALL
10
71340
20
3800
30
0
0
VERTEX
8
A-WALL
10
71340
20
4600
30
0
0
VERTEX
8
A-WALL
10
71460
20
4600
30
0
0
VERTEX
8
A-WALL
10
71460
20
3800
30
0
0
SEQEND
8
A-WALL
0
POLYLINE
8
A-WALL
66
1
10
0
20
0
30
0
70
1
0
VERTEX
8
A-WALL
10
81540
20
3800
30
0
0
VERTEX
8
A-WALL
10
81540
20
4600
30
0
0
VERTEX
8
A-WALL
10
81660
20
4600
30
0
0
VERTEX
8
A-WALL
10
81660
20
3800
30
0
0
SEQEND
8
A-WALL
0
POLYLINE
8
A-WALL
66
1
10
0
20
0
30
0
70
1
0
VERTEX
8
A-WALL
10
75480
20
4980
30
0
0
VERTEX
8
A-WALL
10
75480
20
7000
30
0
0
VERTEX
8
A-WALL
10
77520
20
7000
30
0
0
VERTEX
8
A-WALL
10
77520
20
4980
30
0
0
VERTEX
8
A-WALL
10
76950
20
4980
30
0
0
VERTEX
8
A-WALL
10
76950
20
5210
30
0
0
VERTEX
8
A-WALL
10
77280
20
5210
30
0
0
VERTEX
8
A-WALL
10
77280
20
6780
30
0
0
VERTEX
8
A-WALL
10
75720
20
6780
30
0
0
VERTEX
8
A-WALL
10
75720
20
5210
30
0
0
VERTEX
8
A-WALL
10
76050
20
5210
30
0
0
VERTEX
8
A-WALL
10
76050
20
4980
30
0
0
SEQEND
8
A-WALL
0
POLYLINE
8
A-WALL
66
1
10
0
20
0
30
0
70
1
0
VERTEX
8
A-WALL
10
68640
20
6300
30
0
0
VERTEX
8
A-WALL
10
68640
20
8340
30
0
0
VERTEX
8
A-WALL
10
66120
20
8340
30
0
0
VERTEX
8
A-WALL
10
66120
20
7200
30
0
0
VERTEX
8
A-WALL
10
65880
20
7200
30
0
0
VERTEX
8
A-WALL
10
65880
20
9600
30
0
0
VERTEX
8
A-WALL
10
66120
20
9600
30
0
0
VERTEX
8
A-WALL
10
66120
20
8460
30
0
0
VERTEX
8
A-WALL
10
69840
20
8460
30
0
0
VERTEX
8
A-WALL
10
69840
20
8700
30
0
0
VERTEX
8
A-WALL
10
69960
20
8700
30
0
0
VERTEX
8
A-WALL
10
69960
20
8460
30
0
0
VERTEX
8
A-WALL
10
70200
20
8460
30
0
0
VERTEX
8
A-WALL
10
70200
20
8340
30
0
0
VERTEX
8
A-WALL
10
68760
20
8340
30
0
0
VERTEX
8
A-WALL
10
68760
20
6300
30
0
0
SEQEND
8
A-WALL
0
POLYLINE
8
A-WALL
66
1
10
0
20
0
30
0
70
1
0
VERTEX
8
A-WALL
10
84240
20
6300
30
0
0
VERTEX
8
A-WALL
10
84240
20
8340
30
0
0
VERTEX
8
A-WALL
10
82800
20
8340
30
0
0
VERTEX
8
A-WALL
10
82800
20
8460
30
0
0
VERTEX
8
A-WALL
10
83040
20
8460
30
0
0
VERTEX
8
A-WALL
10
83040
20
8700
30
0
0
VERTEX
8
A-WALL
10
83160
20
8700
30
0
0
VERTEX
8
A-WALL
10
83160
20
8460
30
0
0
VERTEX
8
A-WALL
10
86880
20
8460
30
0
0
VERTEX
8
A-WALL
10
86880
20
9600
30
0
0
VERTEX
8
A-WALL
10
87120
20
9600
30
0
0
VERTEX
8
A-WALL
10
87120
20
7200
30
0
0
VERTEX
8
A-WALL
10
86880
20
7200
30
0
0
VERTEX
8
A-WALL
10
86880
20
8340
30
0
0
VERTEX
8
A-WALL
10
84360
20
8340
30
0
0
VERTEX
8
A-WALL
10
84360
20
6300
30
0
0
SEQEND
8
A-WALL
0
POLYLINE
8
A-WALL
66
1
10
0
20
0
30
0
70
1
0
VERTEX
8
A-WALL
10
74580
20
7860
30
0
0
VERTEX
8
A-WALL
10
74580
20
8340
30
0
0
VERTEX
8
A-WALL
10
73860
20
8340
30
0
0
VERTEX
8
A-WALL
10
73860
20
7860
30
0
0
SEQEND
8
A-WALL
0
POLYLINE
8
A-WALL
66
1
10
0
20
0
30
0
70
1
0
VERTEX
8
A-WALL
10
79140
20
7860
30
0
0
VERTEX
8
A-WALL
10
79140
20
8340
30
0
0
VERTEX
8
A-WALL
10
78420
20
8340
30
0
0
VERTEX
8
A-WALL
10
78420
20
7860
30
0
0
SEQEND
8
A-WALL
0
POLYLINE
8
A-WALL
66
1
10
0
20
0
30
0
70
1
0
VERTEX
8
A-WALL
10
70100
20
9540
30
0
0
VERTEX
8
A-WALL
10
70100
20
9550
30
0
0
VERTEX
8
A-WALL
10
69840
20
9550
30
0
0
VERTEX
8
A-WALL
10
69840
20
11880
30
0
0
VERTEX
8
A-WALL
10
68700
20
11880
30
0
0
VERTEX
8
A-WALL
10
68700
20
12110
30
0
0
VERTEX
8
A-WALL
10
70500
20
12110
30
0
0
VERTEX
8
A-WALL
10
70500
20
11880
30
0
0
VERTEX
8
A-WALL
10
69960
20
11880
30
0
0
VERTEX
8
A-WALL
10
69960
20
9660
30
0
0
VERTEX
8
A-WALL
10
70200
20
9660
30
0
0
VERTEX
8
A-WALL
10
70200
20
9540
30
0
0
SEQEND
8
A-WALL
0
POLYLINE
8
A-WALL
66
1
10
0
20
0
30
0
70
1
0
VERTEX
8
A-WALL
10
70950
20
9540
30
0
0
VERTEX
8
A-WALL
10
70950
20
9660
30
0
0
VERTEX
8
A-WALL
10
72240
20
9660
30
0
0
VERTEX
8
A-WALL
10
72240
20
11880
30
0
0
VERTEX
8
A-WALL
10
72060
20
11880
30
0
0
VERTEX
8
A-WALL
10
72060
20
11340
30
0
0
VERTEX
8
A-WALL
10
71340
20
11340
30
0
0
VERTEX
8
A-WALL
10
71340
20
11880
30
0
0
VERTEX
8
A-WALL
10
71100
20
11880
30
0
0
VERTEX
8
A-WALL
10
71100
20
12110
30
0
0
VERTEX
8
A-WALL
10
73200
20
12110
30
0
0
VERTEX
8
A-WALL
10
73200
20
11880
30
0
0
VERTEX
8
A-WALL
10
72360
20
11880
30
0
0
VERTEX
8
A-WALL
10
72360
20
9550
30
0
0
VERTEX
8
A-WALL
10
72100
20
9550
30
0
0
VERTEX
8
A-WALL
10
72100
20
9540
30
0
0
SEQEND
8
A-WALL
0
POLYLINE
8
A-WALL
66
1
10
0
20
0
30
0
70
1
0
VERTEX
8
A-WALL
10
80900
20
9540
30
0
0
VERTEX
8
A-WALL
10
80900
20
9550
30
0
0
VERTEX
8
A-WALL
10
80640
20
9550
30
0
0
VERTEX
8
A-WALL
10
80640
20
11880
30
0
0
VERTEX
8
A-WALL
10
79800
20
11880
30
0
0
VERTEX
8
A-WALL
10
79800
20
12110
30
0
0
VERTEX
8
A-WALL
10
81900
20
12110
30
0
0
VERTEX
8
A-WALL
10
81900
20
11880
30
0
0
VERTEX
8
A-WALL
10
81360
20
11880
30
0
0
VERTEX
8
A-WALL
10
81360
20
11340
30
0
0
VERTEX
8
A-WALL
10
80760
20
11340
30
0
0
VERTEX
8
A-WALL
10
80760
20
9660
30
0
0
VERTEX
8
A-WALL
10
82050
20
9660
30
0
0
VERTEX
8
A-WALL
10
82050
20
9540
30
0
0
SEQEND
8
A-WALL
0
POLYLINE
8
A-WALL
66
1
10
0
20
0
30
0
70
1
0
VERTEX
8
A-WALL
10
82800
20
9540
30
0
0
VERTEX
8
A-WALL
10
82800
20
9660
30
0
0
VERTEX
8
A-WALL
10
83040
20
9660
30
0
0
VERTEX
8
A-WALL
10
83040
20
11880
30
0
0
VERTEX
8
A-WALL
10
82500
20
11880
30
0
0
VERTEX
8
A-WALL
10
82500
20
12110
30
0
0
VERTEX
8
A-WALL
10
84300
20
12110
30
0
0
VERTEX
8
A-WALL
10
84300
20
11880
30
0
0
VERTEX
8
A-WALL
10
83160
20
11880
30
0
0
VERTEX
8
A-WALL
10
83160
20
9550
30
0
0
VERTEX
8
A-WALL
10
82900
20
9550
30
0
0
VERTEX
8
A-WALL
10
82900
20
9540
30
0
0
SEQEND
8
A-WALL
0
POLYLINE
8
A-WALL
66
1
10
0
20
0
30
0
70
1
0
VERTEX
8
A-WALL
10
65880
20
11100
30
0
0
VERTEX
8
A-WALL
10
65880
20
12110
30
0
0
VERTEX
8
A-WALL
10
67200
20
12110
30
0
0
VERTEX
8
A-WALL
10
67200
20
11880
30
0
0
VERTEX
8
A-WALL
10
66120
20
11880
30
0
0
VERTEX
8
A-WALL
10
66120
20
11100
30
0
0
SEQEND
8
A-WALL
0
POLYLINE
8
A-WALL
66
1
10
0
20
0
30
0
70
1
0
VERTEX
8
A-WALL
10
86880
20
11100
30
0
0
VERTEX
8
A-WALL
10
86880
20
11880
30
0
0
VERTEX
8
A-WALL
10
85800
20
11880
30
0
0
VERTEX
8
A-WALL
10
85800
20
12110
30
0
0
VERTEX
8
A-WALL
10
87120
20
12110
30
0
0
VERTEX
8
A-WALL
10
87120
20
11100
30
0
0
SEQEND
8
A-WALL
0
POLYLINE
8
A-WALL
66
1
10
0
20
0
30
0
70
1
0
VERTEX
8
A-WALL
10
71940
20
11460
30
0
0
VERTEX
8
A-WALL
10
71940
20
11880
30
0
0
VERTEX
8
A-WALL
10
71460
20
11880
30
0
0
VERTEX
8
A-WALL
10
71460
20
11460
30
0
0
SEQEND
8
A-WALL
0
POLYLINE
8
A-WALL
66
1
10
0
20
0
30
0
70
1
0
VERTEX
8
A-WALL
10
81240
20
11460
30
0
0
VERTEX
8
A-WALL
10
81240
20
11880
30
0
0
VERTEX
8
A-WALL
10
80760
20
11880
30
0
0
VERTEX
8
A-WALL
10
80760
20
11460
30
0
0
SEQEND
8
A-WALL
0
LINE
8
A-GLAZ
10
65885
20
1200
30
0
11
65885
21
3600
31
0
0
LINE
8
A-GLAZ
10
65975
20
1200
30
0
11
65975
21
3600
31
0
0
LINE
8
A-GLAZ
10
66025
20
1200
30
0
11
66025
21
3600
31
0
0
LINE
8
A-GLAZ
10
66115
20
1200
30
0
11
66115
21
3600
31
0
0
LINE
8
A-GLAZ
10
65885
20
6000
30
0
11
65885
21
7200
31
0
0
LINE
8
A-GLAZ
10
65975
20
6000
30
0
11
65975
21
7200
31
0
0
LINE
8
A-GLAZ
10
66025
20
6000
30
0
11
66025
21
7200
31
0
0
LINE
8
A-GLAZ
10
66115
20
6000
30
0
11
66115
21
7200
31
0
0
LINE
8
A-GLAZ
10
65885
20
9600
30
0
11
65885
21
11100
31
0
0
LINE
8
A-GLAZ
10
65975
20
9600
30
0
11
65975
21
11100
31
0
0
LINE
8
A-GLAZ
10
66025
20
9600
30
0
11
66025
21
11100
31
0
0
LINE
8
A-GLAZ
10
66115
20
9600
30
0
11
66115
21
11100
31
0
0
LINE
8
A-GLAZ
10
67200
20
11885
30
0
11
68700
21
11885
31
0
0
LINE
8
A-GLAZ
10
67200
20
11975
30
0
11
68700
21
11975
31
0
0
LINE
8
A-GLAZ
10
67200
20
12025
30
0
11
68700
21
12025
31
0
0
LINE
8
A-GLAZ
10
67200
20
12115
30
0
11
68700
21
12115
31
0
0
LINE
8
A-GLAZ
10
70500
20
11885
30
0
11
71100
21
11885
31
0
0
LINE
8
A-GLAZ
10
70500
20
11975
30
0
11
71100
21
11975
31
0
0
LINE
8
A-GLAZ
10
70500
20
12025
30
0
11
71100
21
12025
31
0
0
LINE
8
A-GLAZ
10
70500
20
12115
30
0
11
71100
21
12115
31
0
0
LINE
8
A-GLAZ
10
73200
20
11885
30
0
11
74400
21
11885
31
0
0
LINE
8
A-GLAZ
10
73200
20
11975
30
0
11
74400
21
11975
31
0
0
LINE
8
A-GLAZ
10
73200
20
12025
30
0
11
74400
21
12025
31
0
0
LINE
8
A-GLAZ
10
73200
20
12115
30
0
11
74400
21
12115
31
0
0
LINE
8
A-GLAZ
10
67500
20
-115
30
0
11
70500
21
-115
31
0
0
LINE
8
A-GLAZ
10
67500
20
-25
30
0
11
70500
21
-25
31
0
0
LINE
8
A-GLAZ
10
67500
20
25
30
0
11
70500
21
25
31
0
0
LINE
8
A-GLAZ
10
67500
20
115
30
0
11
70500
21
115
31
0
0
LINE
8
A-GLAZ
10
86885
20
1200
30
0
11
86885
21
3600
31
0
0
LINE
8
A-GLAZ
10
86975
20
1200
30
0
11
86975
21
3600
31
0
0
LINE
8
A-GLAZ
10
87025
20
1200
30
0
11
87025
21
3600
31
0
0
LINE
8
A-GLAZ
10
87115
20
1200
30
0
11
87115
21
3600
31
0
0
LINE
8
A-GLAZ
10
86885
20
6000
30
0
11
86885
21
7200
31
0
0
LINE
8
A-GLAZ
10
86975
20
6000
30
0
11
86975
21
7200
31
0
0
LINE
8
A-GLAZ
10
87025
20
6000
30
0
11
87025
21
7200
31
0
0
LINE
8
A-GLAZ
10
87115
20
6000
30
0
11
87115
21
7200
31
0
0
LINE
8
A-GLAZ
10
86885
20
9600
30
0
11
86885
21
11100
31
0
0
LINE
8
A-GLAZ
10
86975
20
9600
30
0
11
86975
21
11100
31
0
0
LINE
8
A-GLAZ
10
87025
20
9600
30
0
11
87025
21
11100
31
0
0
LINE
8
A-GLAZ
10
87115
20
9600
30
0
11
87115
21
11100
31
0
0
LINE
8
A-GLAZ
10
84300
20
11885
30
0
11
85800
21
11885
31
0
0
LINE
8
A-GLAZ
10
84300
20
11975
30
0
11
85800
21
11975
31
0
0
LINE
8
A-GLAZ
10
84300
20
12025
30
0
11
85800
21
12025
31
0
0
LINE
8
A-GLAZ
10
84300
20
12115
30
0
11
85800
21
12115
31
0
0
LINE
8
A-GLAZ
10
81900
20
11885
30
0
11
82500
21
11885
31
0
0
LINE
8
A-GLAZ
10
81900
20
11975
30
0
11
82500
21
11975
31
0
0
LINE
8
A-GLAZ
10
81900
20
12025
30
0
11
82500
21
12025
31
0
0
LINE
8
A-GLAZ
10
81900
20
12115
30
0
11
82500
21
12115
31
0
0
LINE
8
A-GLAZ
10
78600
20
11885
30
0
11
79800
21
11885
31
0
0
LINE
8
A-GLAZ
10
78600
20
11975
30
0
11
79800
21
11975
31
0
0
LINE
8
A-GLAZ
10
78600
20
12025
30
0
11
79800
21
12025
31
0
0
LINE
8
A-GLAZ
10
78600
20
12115
30
0
11
79800
21
12115
31
0
0
LINE
8
A-GLAZ
10
82500
20
-115
30
0
11
85500
21
-115
31
0
0
LINE
8
A-GLAZ
10
82500
20
-25
30
0
11
85500
21
-25
31
0
0
LINE
8
A-GLAZ
10
82500
20
25
30
0
11
85500
21
25
31
0
0
LINE
8
A-GLAZ
10
82500
20
115
30
0
11
85500
21
115
31
0
0
LINE
8
A-GLAZ
10
75900
20
-115
30
0
11
77100
21
-115
31
0
0
LINE
8
A-GLAZ
10
75900
20
-25
30
0
11
77100
21
-25
31
0
0
LINE
8
A-GLAZ
10
75900
20
25
30
0
11
77100
21
25
31
0
0
LINE
8
A-GLAZ
10
75900
20
115
30
0
11
77100
21
115
31
0
0
LINE
8
A-DOOR
10
69900
20
8700
30
0
11
69050
21
8700
31
0
0
ARC
8
A-DOOR
10
69900
20
8700
30
0
40
850
50
90
51
180
0
LINE
8
A-DOOR
10
70200
20
9600
30
0
11
70200
21
10350
31
0
0
ARC
8
A-DOOR
10
70200
20
9600
30
0
40
750
50
0
51
90
0
LINE
8
A-DOOR
10
72300
20
8700
30
0
11
73150
21
8700
31
0
0
ARC
8
A-DOOR
10
72300
20
8700
30
0
40
850
50
0
51
90
0
LINE
8
A-DOOR
10
72300
20
6600
30
0
11
73050
21
6600
31
0
0
ARC
8
A-DOOR
10
72300
20
6600
30
0
40
750
50
0
51
90
0
LINE
8
A-DOOR
10
73600
20
4800
30
0
11
73600
21
5550
31
0
0
ARC
8
A-DOOR
10
73600
20
4800
30
0
40
750
50
0
51
90
0
LINE
8
A-DOOR
10
74700
20
2000
30
0
11
73700
21
2000
31
0
0
ARC
8
A-DOOR
10
74700
20
2000
30
0
40
1000
50
90
51
180
0
LINE
8
A-DOOR
10
83100
20
8700
30
0
11
83950
21
8700
31
0
0
ARC
8
A-DOOR
10
83100
20
8700
30
0
40
850
50
0
51
90
0
LINE
8
A-DOOR
10
82800
20
9600
30
0
11
82800
21
10350
31
0
0
ARC
8
A-DOOR
10
82800
20
9600
30
0
40
750
50
90
51
180
0
LINE
8
A-DOOR
10
80700
20
8700
30
0
11
79850
21
8700
31
0
0
ARC
8
A-DOOR
10
80700
20
8700
30
0
40
850
50
90
51
180
0
LINE
8
A-DOOR
10
80700
20
6600
30
0
11
79950
21
6600
31
0
0
ARC
8
A-DOOR
10
80700
20
6600
30
0
40
750
50
90
51
180
0
LINE
8
A-DOOR
10
79400
20
4800
30
0
11
79400
21
5550
31
0
0
ARC
8
A-DOOR
10
79400
20
4800
30
0
40
750
50
90
51
180
0
LINE
8
A-DOOR
10
78300
20
2000
30
0
11
79300
21
2000
31
0
0
ARC
8
A-DOOR
10
78300
20
2000
30
0
40
1000
50
0
51
90
0
SOLID
8
S-COLS
10
65775
20
-115
30
0
11
66225
21
-115
31
0
12
65775
22
115
32
0
13
66225
23
115
33
0
0
POLYLINE
8
S-COLS
66
1
10
0
20
0
30
0
70
1
0
VERTEX
8
S-COLS
10
65775
20
-115
30
0
0
VERTEX
8
S-COLS
10
66225
20
-115
30
0
0
VERTEX
8
S-COLS
10
66225
20
115
30
0
0
VERTEX
8
S-COLS
10
65775
20
115
30
0
0
SEQEND
8
S-COLS
0
SOLID
8
S-COLS
10
65885
20
4575
30
0
11
66115
21
4575
31
0
12
65885
22
5025
32
0
13
66115
23
5025
33
0
0
POLYLINE
8
S-COLS
66
1
10
0
20
0
30
0
70
1
0
VERTEX
8
S-COLS
10
65885
20
4575
30
0
0
VERTEX
8
S-COLS
10
66115
20
4575
30
0
0
VERTEX
8
S-COLS
10
66115
20
5025
30
0
0
VERTEX
8
S-COLS
10
65885
20
5025
30
0
0
SEQEND
8
S-COLS
0
SOLID
8
S-COLS
10
65885
20
8175
30
0
11
66115
21
8175
31
0
12
65885
22
8625
32
0
13
66115
23
8625
33
0
0
POLYLINE
8
S-COLS
66
1
10
0
20
0
30
0
70
1
0
VERTEX
8
S-COLS
10
65885
20
8175
30
0
0
VERTEX
8
S-COLS
10
66115
20
8175
30
0
0
VERTEX
8
S-COLS
10
66115
20
8625
30
0
0
VERTEX
8
S-COLS
10
65885
20
8625
30
0
0
SEQEND
8
S-COLS
0
SOLID
8
S-COLS
10
65775
20
11885
30
0
11
66225
21
11885
31
0
12
65775
22
12115
32
0
13
66225
23
12115
33
0
0
POLYLINE
8
S-COLS
66
1
10
0
20
0
30
0
70
1
0
VERTEX
8
S-COLS
10
65775
20
11885
30
0
0
VERTEX
8
S-COLS
10
66225
20
11885
30
0
0
VERTEX
8
S-COLS
10
66225
20
12115
30
0
0
VERTEX
8
S-COLS
10
65775
20
12115
30
0
0
SEQEND
8
S-COLS
0
SOLID
8
S-COLS
10
68475
20
-115
30
0
11
68925
21
-115
31
0
12
68475
22
115
32
0
13
68925
23
115
33
0
0
POLYLINE
8
S-COLS
66
1
10
0
20
0
30
0
70
1
0
VERTEX
8
S-COLS
10
68475
20
-115
30
0
0
VERTEX
8
S-COLS
10
68925
20
-115
30
0
0
VERTEX
8
S-COLS
10
68925
20
115
30
0
0
VERTEX
8
S-COLS
10
68475
20
115
30
0
0
SEQEND
8
S-COLS
0
SOLID
8
S-COLS
10
68585
20
4575
30
0
11
68815
21
4575
31
0
12
68585
22
5025
32
0
13
68815
23
5025
33
0
0
POLYLINE
8
S-COLS
66
1
10
0
20
0
30
0
70
1
0
VERTEX
8
S-COLS
10
68585
20
4575
30
0
0
VERTEX
8
S-COLS
10
68815
20
4575
30
0
0
VERTEX
8
S-COLS
10
68815
20
5025
30
0
0
VERTEX
8
S-COLS
10
68585
20
5025
30
0
0
SEQEND
8
S-COLS
0
SOLID
8
S-COLS
10
68585
20
8175
30
0
11
68815
21
8175
31
0
12
68585
22
8625
32
0
13
68815
23
8625
33
0
0
POLYLINE
8
S-COLS
66
1
10
0
20
0
30
0
70
1
0
VERTEX
8
S-COLS
10
68585
20
8175
30
0
0
VERTEX
8
S-COLS
10
68815
20
8175
30
0
0
VERTEX
8
S-COLS
10
68815
20
8625
30
0
0
VERTEX
8
S-COLS
10
68585
20
8625
30
0
0
SEQEND
8
S-COLS
0
SOLID
8
S-COLS
10
68475
20
11885
30
0
11
68925
21
11885
31
0
12
68475
22
12115
32
0
13
68925
23
12115
33
0
0
POLYLINE
8
S-COLS
66
1
10
0
20
0
30
0
70
1
0
VERTEX
8
S-COLS
10
68475
20
11885
30
0
0
VERTEX
8
S-COLS
10
68925
20
11885
30
0
0
VERTEX
8
S-COLS
10
68925
20
12115
30
0
0
VERTEX
8
S-COLS
10
68475
20
12115
30
0
0
SEQEND
8
S-COLS
0
SOLID
8
S-COLS
10
72075
20
-115
30
0
11
72525
21
-115
31
0
12
72075
22
115
32
0
13
72525
23
115
33
0
0
POLYLINE
8
S-COLS
66
1
10
0
20
0
30
0
70
1
0
VERTEX
8
S-COLS
10
72075
20
-115
30
0
0
VERTEX
8
S-COLS
10
72525
20
-115
30
0
0
VERTEX
8
S-COLS
10
72525
20
115
30
0
0
VERTEX
8
S-COLS
10
72075
20
115
30
0
0
SEQEND
8
S-COLS
0
SOLID
8
S-COLS
10
72185
20
4575
30
0
11
72415
21
4575
31
0
12
72185
22
5025
32
0
13
72415
23
5025
33
0
0
POLYLINE
8
S-COLS
66
1
10
0
20
0
30
0
70
1
0
VERTEX
8
S-COLS
10
72185
20
4575
30
0
0
VERTEX
8
S-COLS
10
72415
20
4575
30
0
0
VERTEX
8
S-COLS
10
72415
20
5025
30
0
0
VERTEX
8
S-COLS
10
72185
20
5025
30
0
0
SEQEND
8
S-COLS
0
SOLID
8
S-COLS
10
72185
20
8175
30
0
11
72415
21
8175
31
0
12
72185
22
8625
32
0
13
72415
23
8625
33
0
0
POLYLINE
8
S-COLS
66
1
10
0
20
0
30
0
70
1
0
VERTEX
8
S-COLS
10
72185
20
8175
30
0
0
VERTEX
8
S-COLS
10
72415
20
8175
30
0
0
VERTEX
8
S-COLS
10
72415
20
8625
30
0
0
VERTEX
8
S-COLS
10
72185
20
8625
30
0
0
SEQEND
8
S-COLS
0
SOLID
8
S-COLS
10
72225
20
11885
30
0
11
72675
21
11885
31
0
12
72225
22
12115
32
0
13
72675
23
12115
33
0
0
POLYLINE
8
S-COLS
66
1
10
0
20
0
30
0
70
1
0
VERTEX
8
S-COLS
10
72225
20
11885
30
0
0
VERTEX
8
S-COLS
10
72675
20
11885
30
0
0
VERTEX
8
S-COLS
10
72675
20
12115
30
0
0
VERTEX
8
S-COLS
10
72225
20
12115
30
0
0
SEQEND
8
S-COLS
0
SOLID
8
S-COLS
10
74475
20
-115
30
0
11
74925
21
-115
31
0
12
74475
22
115
32
0
13
74925
23
115
33
0
0
POLYLINE
8
S-COLS
66
1
10
0
20
0
30
0
70
1
0
VERTEX
8
S-COLS
10
74475
20
-115
30
0
0
VERTEX
8
S-COLS
10
74925
20
-115
30
0
0
VERTEX
8
S-COLS
10
74925
20
115
30
0
0
VERTEX
8
S-COLS
10
74475
20
115
30
0
0
SEQEND
8
S-COLS
0
SOLID
8
S-COLS
10
74585
20
4575
30
0
11
74815
21
4575
31
0
12
74585
22
5025
32
0
13
74815
23
5025
33
0
0
POLYLINE
8
S-COLS
66
1
10
0
20
0
30
0
70
1
0
VERTEX
8
S-COLS
10
74585
20
4575
30
0
0
VERTEX
8
S-COLS
10
74815
20
4575
30
0
0
VERTEX
8
S-COLS
10
74815
20
5025
30
0
0
VERTEX
8
S-COLS
10
74585
20
5025
30
0
0
SEQEND
8
S-COLS
0
SOLID
8
S-COLS
10
74585
20
8175
30
0
11
74815
21
8175
31
0
12
74585
22
8625
32
0
13
74815
23
8625
33
0
0
POLYLINE
8
S-COLS
66
1
10
0
20
0
30
0
70
1
0
VERTEX
8
S-COLS
10
74585
20
8175
30
0
0
VERTEX
8
S-COLS
10
74815
20
8175
30
0
0
VERTEX
8
S-COLS
10
74815
20
8625
30
0
0
VERTEX
8
S-COLS
10
74585
20
8625
30
0
0
SEQEND
8
S-COLS
0
SOLID
8
S-COLS
10
74475
20
11885
30
0
11
74925
21
11885
31
0
12
74475
22
12115
32
0
13
74925
23
12115
33
0
0
POLYLINE
8
S-COLS
66
1
10
0
20
0
30
0
70
1
0
VERTEX
8
S-COLS
10
74475
20
11885
30
0
0
VERTEX
8
S-COLS
10
74925
20
11885
30
0
0
VERTEX
8
S-COLS
10
74925
20
12115
30
0
0
VERTEX
8
S-COLS
10
74475
20
12115
30
0
0
SEQEND
8
S-COLS
0
SOLID
8
S-COLS
10
78075
20
-115
30
0
11
78525
21
-115
31
0
12
78075
22
115
32
0
13
78525
23
115
33
0
0
POLYLINE
8
S-COLS
66
1
10
0
20
0
30
0
70
1
0
VERTEX
8
S-COLS
10
78075
20
-115
30
0
0
VERTEX
8
S-COLS
10
78525
20
-115
30
0
0
VERTEX
8
S-COLS
10
78525
20
115
30
0
0
VERTEX
8
S-COLS
10
78075
20
115
30
0
0
SEQEND
8
S-COLS
0
SOLID
8
S-COLS
10
78185
20
4575
30
0
11
78415
21
4575
31
0
12
78185
22
5025
32
0
13
78415
23
5025
33
0
0
POLYLINE
8
S-COLS
66
1
10
0
20
0
30
0
70
1
0
VERTEX
8
S-COLS
10
78185
20
4575
30
0
0
VERTEX
8
S-COLS
10
78415
20
4575
30
0
0
VERTEX
8
S-COLS
10
78415
20
5025
30
0
0
VERTEX
8
S-COLS
10
78185
20
5025
30
0
0
SEQEND
8
S-COLS
0
SOLID
8
S-COLS
10
78185
20
8175
30
0
11
78415
21
8175
31
0
12
78185
22
8625
32
0
13
78415
23
8625
33
0
0
POLYLINE
8
S-COLS
66
1
10
0
20
0
30
0
70
1
0
VERTEX
8
S-COLS
10
78185
20
8175
30
0
0
VERTEX
8
S-COLS
10
78415
20
8175
30
0
0
VERTEX
8
S-COLS
10
78415
20
8625
30
0
0
VERTEX
8
S-COLS
10
78185
20
8625
30
0
0
SEQEND
8
S-COLS
0
SOLID
8
S-COLS
10
78075
20
11885
30
0
11
78525
21
11885
31
0
12
78075
22
12115
32
0
13
78525
23
12115
33
0
0
POLYLINE
8
S-COLS
66
1
10
0
20
0
30
0
70
1
0
VERTEX
8
S-COLS
10
78075
20
11885
30
0
0
VERTEX
8
S-COLS
10
78525
20
11885
30
0
0
VERTEX
8
S-COLS
10
78525
20
12115
30
0
0
VERTEX
8
S-COLS
10
78075
20
12115
30
0
0
SEQEND
8
S-COLS
0
SOLID
8
S-COLS
10
80475
20
-115
30
0
11
80925
21
-115
31
0
12
80475
22
115
32
0
13
80925
23
115
33
0
0
POLYLINE
8
S-COLS
66
1
10
0
20
0
30
0
70
1
0
VERTEX
8
S-COLS
10
80475
20
-115
30
0
0
VERTEX
8
S-COLS
10
80925
20
-115
30
0
0
VERTEX
8
S-COLS
10
80925
20
115
30
0
0
VERTEX
8
S-COLS
10
80475
20
115
30
0
0
SEQEND
8
S-COLS
0
SOLID
8
S-COLS
10
80585
20
4575
30
0
11
80815
21
4575
31
0
12
80585
22
5025
32
0
13
80815
23
5025
33
0
0
POLYLINE
8
S-COLS
66
1
10
0
20
0
30
0
70
1
0
VERTEX
8
S-COLS
10
80585
20
4575
30
0
0
VERTEX
8
S-COLS
10
80815
20
4575
30
0
0
VERTEX
8
S-COLS
10
80815
20
5025
30
0
0
VERTEX
8
S-COLS
10
80585
20
5025
30
0
0
SEQEND
8
S-COLS
0
SOLID
8
S-COLS
10
80585
20
8175
30
0
11
80815
21
8175
31
0
12
80585
22
8625
32
0
13
80815
23
8625
33
0
0
POLYLINE
8
S-COLS
66
1
10
0
20
0
30
0
70
1
0
VERTEX
8
S-COLS
10
80585
20
8175
30
0
0
VERTEX
8
S-COLS
10
80815
20
8175
30
0
0
VERTEX
8
S-COLS
10
80815
20
8625
30
0
0
VERTEX
8
S-COLS
10
80585
20
8625
30
0
0
SEQEND
8
S-COLS
0
SOLID
8
S-COLS
10
80475
20
11885
30
0
11
80925
21
11885
31
0
12
80475
22
12115
32
0
13
80925
23
12115
33
0
0
POLYLINE
8
S-COLS
66
1
10
0
20
0
30
0
70
1
0
VERTEX
8
S-COLS
10
80475
20
11885
30
0
0
VERTEX
8
S-COLS
10
80925
20
11885
30
0
0
VERTEX
8
S-COLS
10
80925
20
12115
30
0
0
VERTEX
8
S-COLS
10
80475
20
12115
30
0
0
SEQEND
8
S-COLS
0
SOLID
8
S-COLS
10
84075
20
-115
30
0
11
84525
21
-115
31
0
12
84075
22
115
32
0
13
84525
23
115
33
0
0
POLYLINE
8
S-COLS
66
1
10
0
20
0
30
0
70
1
0
VERTEX
8
S-COLS
10
84075
20
-115
30
0
0
VERTEX
8
S-COLS
10
84525
20
-115
30
0
0
VERTEX
8
S-COLS
10
84525
20
115
30
0
0
VERTEX
8
S-COLS
10
84075
20
115
30
0
0
SEQEND
8
S-COLS
0
SOLID
8
S-COLS
10
84185
20
4575
30
0
11
84415
21
4575
31
0
12
84185
22
5025
32
0
13
84415
23
5025
33
0
0
POLYLINE
8
S-COLS
66
1
10
0
20
0
30
0
70
1
0
VERTEX
8
S-COLS
10
84185
20
4575
30
0
0
VERTEX
8
S-COLS
10
84415
20
4575
30
0
0
VERTEX
8
S-COLS
10
84415
20
5025
30
0
0
VERTEX
8
S-COLS
10
84185
20
5025
30
0
0
SEQEND
8
S-COLS
0
SOLID
8
S-COLS
10
84185
20
8175
30
0
11
84415
21
8175
31
0
12
84185
22
8625
32
0
13
84415
23
8625
33
0
0
POLYLINE
8
S-COLS
66
1
10
0
20
0
30
0
70
1
0
VERTEX
8
S-COLS
10
84185
20
8175
30
0
0
VERTEX
8
S-COLS
10
84415
20
8175
30
0
0
VERTEX
8
S-COLS
10
84415
20
8625
30
0
0
VERTEX
8
S-COLS
10
84185
20
8625
30
0
0
SEQEND
8
S-COLS
0
SOLID
8
S-COLS
10
84075
20
11885
30
0
11
84525
21
11885
31
0
12
84075
22
12115
32
0
13
84525
23
12115
33
0
0
POLYLINE
8
S-COLS
66
1
10
0
20
0
30
0
70
1
0
VERTEX
8
S-COLS
10
84075
20
11885
30
0
0
VERTEX
8
S-COLS
10
84525
20
11885
30
0
0
VERTEX
8
S-COLS
10
84525
20
12115
30
0
0
VERTEX
8
S-COLS
10
84075
20
12115
30
0
0
SEQEND
8
S-COLS
0
SOLID
8
S-COLS
10
86775
20
-115
30
0
11
87225
21
-115
31
0
12
86775
22
115
32
0
13
87225
23
115
33
0
0
POLYLINE
8
S-COLS
66
1
10
0
20
0
30
0
70
1
0
VERTEX
8
S-COLS
10
86775
20
-115
30
0
0
VERTEX
8
S-COLS
10
87225
20
-115
30
0
0
VERTEX
8
S-COLS
10
87225
20
115
30
0
0
VERTEX
8
S-COLS
10
86775
20
115
30
0
0
SEQEND
8
S-COLS
0
SOLID
8
S-COLS
10
86885
20
4575
30
0
11
87115
21
4575
31
0
12
86885
22
5025
32
0
13
87115
23
5025
33
0
0
POLYLINE
8
S-COLS
66
1
10
0
20
0
30
0
70
1
0
VERTEX
8
S-COLS
10
86885
20
4575
30
0
0
VERTEX
8
S-COLS
10
87115
20
4575
30
0
0
VERTEX
8
S-COLS
10
87115
20
5025
30
0
0
VERTEX
8
S-COLS
10
86885
20
5025
30
0
0
SEQEND
8
S-COLS
0
SOLID
8
S-COLS
10
86885
20
8175
30
0
11
87115
21
8175
31
0
12
86885
22
8625
32
0
13
87115
23
8625
33
0
0
POLYLINE
8
S-COLS
66
1
10
0
20
0
30
0
70
1
0
VERTEX
8
S-COLS
10
86885
20
8175
30
0
0
VERTEX
8
S-COLS
10
87115
20
8175
30
0
0
VERTEX
8
S-COLS
10
87115
20
8625
30
0
0
VERTEX
8
S-COLS
10
86885
20
8625
30
0
0
SEQEND
8
S-COLS
0
SOLID
8
S-COLS
10
86775
20
11885
30
0
11
87225
21
11885
31
0
12
86775
22
12115
32
0
13
87225
23
12115
33
0
0
POLYLINE
8
S-COLS
66
1
10
0
20
0
30
0
70
1
0
VERTEX
8
S-COLS
10
86775
20
11885
30
0
0
VERTEX
8
S-COLS
10
87225
20
11885
30
0
0
VERTEX
8
S-COLS
10
87225
20
12115
30
0
0
VERTEX
8
S-COLS
10
86775
20
12115
30
0
0
SEQEND
8
S-COLS
0
LINE
8
P-DUCT
10
71460
20
11460
30
0
11
71940
21
11940
31
0
0
LINE
8
P-DUCT
10
71460
20
11940
30
0
11
71940
21
11460
31
0
0
LINE
8
P-DUCT
10
73860
20
7860
30
0
11
74640
21
8340
31
0
0
LINE
8
P-DUCT
10
73860
20
8340
30
0
11
74640
21
7860
31
0
0
LINE
8
P-DUCT
10
80760
20
11460
30
0
11
81240
21
11940
31
0
0
LINE
8
P-DUCT
10
80760
20
11940
30
0
11
81240
21
11460
31
0
0
LINE
8
P-DUCT
10
78360
20
7860
30
0
11
79140
21
8340
31
0
0
LINE
8
P-DUCT
10
78360
20
8340
30
0
11
79140
21
7860
31
0
0
LINE
8
A-STRS
10
74950
20
8400
30
0
11
76450
21
8400
31
0
0
LINE
8
A-STRS
10
76550
20
8400
30
0
11
78050
21
8400
31
0
0
LINE
8
A-STRS
10
74950
20
8650
30
0
11
76450
21
8650
31
0
0
LINE
8
A-STRS
10
76550
20
8650
30
0
11
78050
21
8650
31
0
0
LINE
8
A-STRS
10
74950
20
8900
30
0
11
76450
21
8900
31
0
0
LINE
8
A-STRS
10
76550
20
8900
30
0
11
78050
21
8900
31
0
0
LINE
8
A-STRS
10
74950
20
9150
30
0
11
76450
21
9150
31
0
0
LINE
8
A-STRS
10
76550
20
9150
30
0
11
78050
21
9150
31
0
0
LINE
8
A-STRS
10
74950
20
9400
30
0
11
76450
21
9400
31
0
0
LINE
8
A-STRS
10
76550
20
9400
30
0
11
78050
21
9400
31
0
0
LINE
8
A-STRS
10
74950
20
9650
30
0
11
76450
21
9650
31
0
0
LINE
8
A-STRS
10
76550
20
9650
30
0
11
78050
21
9650
31
0
0
LINE
8
A-STRS
10
74950
20
9900
30
0
11
76450
21
9900
31
0
0
LINE
8
A-STRS
10
76550
20
9900
30
0
11
78050
21
9900
31
0
0
LINE
8
A-STRS
10
74950
20
10150
30
0
11
76450
21
10150
31
0
0
LINE
8
A-STRS
10
76550
20
10150
30
0
11
78050
21
10150
31
0
0
LINE
8
A-STRS
10
74950
20
10400
30
0
11
76450
21
10400
31
0
0
LINE
8
A-STRS
10
76550
20
10400
30
0
11
78050
21
10400
31
0
0
LINE
8
A-STRS
10
74950
20
10650
30
0
11
76450
21
10650
31
0
0
LINE
8
A-STRS
10
76550
20
10650
30
0
11
78050
21
10650
31
0
0
LINE
8
A-STRS
10
74950
20
10900
30
0
11
76450
21
10900
31
0
0
LINE
8
A-STRS
10
76550
20
10900
30
0
11
78050
21
10900
31
0
0
LINE
8
A-STRS
10
74950
20
11150
30
0
11
76450
21
11150
31
0
0
LINE
8
A-STRS
10
76550
20
11150
30
0
11
78050
21
11150
31
0
0
LINE
8
A-STRS
10
74950
20
11400
30
0
11
76450
21
11400
31
0
0
LINE
8
A-STRS
10
76550
20
11400
30
0
11
78050
21
11400
31
0
0
LINE
8
A-STRS
10
76450
20
8400
30
0
11
76450
21
11400
31
0
0
LINE
8
A-STRS
10
76550
20
8400
30
0
11
76550
21
11400
31
0
0
LINE
8
A-LIFT
10
75800
20
5300
30
0
11
77200
21
6700
31
0
0
LINE
8
A-LIFT
10
75800
20
6700
30
0
11
77200
21
5300
31
0
0
POLYLINE
8
A-FURN
66
1
10
0
20
0
30
0
70
1
0
VERTEX
8
A-FURN
10
66600
20
9000
30
0
0
VERTEX
8
A-FURN
10
68400
20
9000
30
0
0
VERTEX
8
A-FURN
10
68400
20
11100
30
0
0
VERTEX
8
A-FURN
10
66600
20
11100
30
0
0
SEQEND
8
A-FURN
0
POLYLINE
8
A-FURN
66
1
10
0
20
0
30
0
70
1
0
VERTEX
8
A-FURN
10
66800
20
10700
30
0
0
VERTEX
8
A-FURN
10
68200
20
10700
30
0
0
VERTEX
8
A-FURN
10
68200
20
11000
30
0
0
VERTEX
8
A-FURN
10
66800
20
11000
30
0
0
SEQEND
8
A-FURN
0
POLYLINE
8
A-FURN
66
1
10
0
20
0
30
0
70
1
0
VERTEX
8
A-FURN
10
72700
20
9000
30
0
0
VERTEX
8
A-FURN
10
74300
20
9000
30
0
0
VERTEX
8
A-FURN
10
74300
20
11100
30
0
0
VERTEX
8
A-FURN
10
72700
20
11100
30
0
0
SEQEND
8
A-FURN
0
POLYLINE
8
A-FURN
66
1
10
0
20
0
30
0
70
1
0
VERTEX
8
A-FURN
10
66600
20
600
30
0
0
VERTEX
8
A-FURN
10
69000
20
600
30
0
0
VERTEX
8
A-FURN
10
69000
20
1500
30
0
0
VERTEX
8
A-FURN
10
66600
20
1500
30
0
0
SEQEND
8
A-FURN
0
POLYLINE
8
A-FURN
66
1
10
0
20
0
30
0
70
1
0
VERTEX
8
A-FURN
10
66600
20
1500
30
0
0
VERTEX
8
A-FURN
10
67500
20
1500
30
0
0
VERTEX
8
A-FURN
10
67500
20
3300
30
0
0
VERTEX
8
A-FURN
10
66600
20
3300
30
0
0
SEQEND
8
A-FURN
0
POLYLINE
8
A-FURN
66
1
10
0
20
0
30
0
70
1
0
VERTEX
8
A-FURN
10
69600
20
6000
30
0
0
VERTEX
8
A-FURN
10
71400
20
6000
30
0
0
VERTEX
8
A-FURN
10
71400
20
7200
30
0
0
VERTEX
8
A-FURN
10
69600
20
7200
30
0
0
SEQEND
8
A-FURN
0
POLYLINE
8
A-FURN
66
1
10
0
20
0
30
0
70
1
0
VERTEX
8
A-FURN
10
66300
20
5100
30
0
0
VERTEX
8
A-FURN
10
66900
20
5100
30
0
0
VERTEX
8
A-FURN
10
66900
20
8100
30
0
0
VERTEX
8
A-FURN
10
66300
20
8100
30
0
0
SEQEND
8
A-FURN
0
POLYLINE
8
A-FURN
66
1
10
0
20
0
30
0
70
1
0
VERTEX
8
A-FURN
10
84600
20
9000
30
0
0
VERTEX
8
A-FURN
10
86400
20
9000
30
0
0
VERTEX
8
A-FURN
10
86400
20
11100
30
0
0
VERTEX
8
A-FURN
10
84600
20
11100
30
0
0
SEQEND
8
A-FURN
0
POLYLINE
8
A-FURN
66
1
10
0
20
0
30
0
70
1
0
VERTEX
8
A-FURN
10
84800
20
10700
30
0
0
VERTEX
8
A-FURN
10
86200
20
10700
30
0
0
VERTEX
8
A-FURN
10
86200
20
11000
30
0
0
VERTEX
8
A-FURN
10
84800
20
11000
30
0
0
SEQEND
8
A-FURN
0
POLYLINE
8
A-FURN
66
1
10
0
20
0
30
0
70
1
0
VERTEX
8
A-FURN
10
78700
20
9000
30
0
0
VERTEX
8
A-FURN
10
80300
20
9000
30
0
0
VERTEX
8
A-FURN
10
80300
20
11100
30
0
0
VERTEX
8
A-FURN
10
78700
20
11100
30
0
0
SEQEND
8
A-FURN
0
POLYLINE
8
A-FURN
66
1
10
0
20
0
30
0
70
1
0
VERTEX
8
A-FURN
10
84000
20
600
30
0
0
VERTEX
8
A-FURN
10
86400
20
600
30
0
0
VERTEX
8
A-FURN
10
86400
20
1500
30
0
0
VERTEX
8
A-FURN
10
84000
20
1500
30
0
0
SEQEND
8
A-FURN
0
POLYLINE
8
A-FURN
66
1
10
0
20
0
30
0
70
1
0
VERTEX
8
A-FURN
10
85500
20
1500
30
0
0
VERTEX
8
A-FURN
10
86400
20
1500
30
0
0
VERTEX
8
A-FURN
10
86400
20
3300
30
0
0
VERTEX
8
A-FURN
10
85500
20
3300
30
0
0
SEQEND
8
A-FURN
0
POLYLINE
8
A-FURN
66
1
10
0
20
0
30
0
70
1
0
VERTEX
8
A-FURN
10
81600
20
6000
30
0
0
VERTEX
8
A-FURN
10
83400
20
6000
30
0
0
VERTEX
8
A-FURN
10
83400
20
7200
30
0
0
VERTEX
8
A-FURN
10
81600
20
7200
30
0
0
SEQEND
8
A-FURN
0
POLYLINE
8
A-FURN
66
1
10
0
20
0
30
0
70
1
0
VERTEX
8
A-FURN
10
86100
20
5100
30
0
0
VERTEX
8
A-FURN
10
86700
20
5100
30
0
0
VERTEX
8
A-FURN
10
86700
20
8100
30
0
0
VERTEX
8
A-FURN
10
86100
20
8100
30
0
0
SEQEND
8
A-FURN
0
TEXT
8
A-ANNO-ROOM
10
68700
20
2530
30
0
40
200
1
LIVING
50
0
72
4
11
68700
21
2530
31
0
0
TEXT
8
A-ANNO-ROOM
10
68700
20
2230
30
0
40
150
1
17'4" X 15'4"
50
0
72
4
11
68700
21
2230
31
0
0
TEXT
8
A-ANNO-ROOM
10
73050
20
2530
30
0
40
200
1
FOYER
50
0
72
4
11
73050
21
2530
31
0
0
TEXT
8
A-ANNO-ROOM
10
73050
20
2230
30
0
40
150
1
10'5" X 15'4"
50
0
72
4
11
73050
21
2230
31
0
0
TEXT
8
A-ANNO-ROOM
10
67350
20
6730
30
0
40
200
1
KITCHEN
50
0
72
4
11
67350
21
6730
31
0
0
TEXT
8
A-ANNO-ROOM
10
67350
20
6430
30
0
40
150
1
8'6" X 11'5"
50
0
72
4
11
67350
21
6430
31
0
0
TEXT
8
A-ANNO-ROOM
10
70500
20
6730
30
0
40
200
1
DINING
50
0
72
4
11
70500
21
6730
31
0
0
TEXT
8
A-ANNO-ROOM
10
70500
20
6430
30
0
40
150
1
11'5" X 11'5"
50
0
72
4
11
70500
21
6430
31
0
0
TEXT
8
A-ANNO-ROOM
10
73500
20
7330
30
0
40
200
1
TOILET
50
0
72
4
11
73500
21
7330
31
0
0
TEXT
8
A-ANNO-ROOM
10
73500
20
7030
30
0
40
150
1
7'6" X 7'6"
50
0
72
4
11
73500
21
7030
31
0
0
TEXT
8
A-ANNO-ROOM
10
73500
20
5400
30
0
40
150
1
STORE
50
0
72
4
11
73500
21
5400
31
0
0
TEXT
8
A-ANNO-ROOM
10
67950
20
10330
30
0
40
200
1
BED ROOM
50
0
72
4
11
67950
21
10330
31
0
0
TEXT
8
A-ANNO-ROOM
10
67950
20
10030
30
0
40
150
1
12'5" X 11'5"
50
0
72
4
11
67950
21
10030
31
0
0
TEXT
8
A-ANNO-ROOM
10
71100
20
9000
30
0
40
150
1
PASSAGE
50
0
72
4
11
71100
21
9000
31
0
0
TEXT
8
A-ANNO-ROOM
10
71100
20
10930
30
0
40
200
1
TOILET
50
0
72
4
11
71100
21
10930
31
0
0
TEXT
8
A-ANNO-ROOM
10
71100
20
10630
30
0
40
150
1
7'6" X 7'6"
50
0
72
4
11
71100
21
10630
31
0
0
TEXT
8
A-ANNO-ROOM
10
73500
20
10330
30
0
40
200
1
BED ROOM
50
0
72
4
11
73500
21
10330
31
0
0
TEXT
8
A-ANNO-ROOM
10
73500
20
10030
30
0
40
150
1
7'6" X 11'5"
50
0
72
4
11
73500
21
10030
31
0
0
TEXT
8
A-ANNO-ROOM
10
68850
20
-620
30
0
40
200
1
BALCONY
50
0
72
4
11
68850
21
-620
31
0
0
TEXT
8
A-ANNO-ROOM
10
84300
20
2530
30
0
40
200
1
LIVING
50
0
72
4
11
84300
21
2530
31
0
0
TEXT
8
A-ANNO-ROOM
10
84300
20
2230
30
0
40
150
1
17'4" X 15'4"
50
0
72
4
11
84300
21
2230
31
0
0
TEXT
8
A-ANNO-ROOM
10
79950
20
2530
30
0
40
200
1
FOYER
50
0
72
4
11
79950
21
2530
31
0
0
TEXT
8
A-ANNO-ROOM
10
79950
20
2230
30
0
40
150
1
10'5" X 15'4"
50
0
72
4
11
79950
21
2230
31
0
0
TEXT
8
A-ANNO-ROOM
10
85650
20
6730
30
0
40
200
1
KITCHEN
50
0
72
4
11
85650
21
6730
31
0
0
TEXT
8
A-ANNO-ROOM
10
85650
20
6430
30
0
40
150
1
8'6" X 11'5"
50
0
72
4
11
85650
21
6430
31
0
0
TEXT
8
A-ANNO-ROOM
10
82500
20
6730
30
0
40
200
1
DINING
50
0
72
4
11
82500
21
6730
31
0
0
TEXT
8
A-ANNO-ROOM
10
82500
20
6430
30
0
40
150
1
11'5" X 11'5"
50
0
72
4
11
82500
21
6430
31
0
0
TEXT
8
A-ANNO-ROOM
10
79500
20
7330
30
0
40
200
1
TOILET
50
0
72
4
11
79500
21
7330
31
0
0
TEXT
8
A-ANNO-ROOM
10
79500
20
7030
30
0
40
150
1
7'6" X 7'6"
50
0
72
4
11
79500
21
7030
31
0
0
TEXT
8
A-ANNO-ROOM
10
79500
20
5400
30
0
40
150
1
STORE
50
0
72
4
11
79500
21
5400
31
0
0
TEXT
8
A-ANNO-ROOM
10
85050
20
10330
30
0
40
200
1
BED ROOM
50
0
72
4
11
85050
21
10330
31
0
0
TEXT
8
A-ANNO-ROOM
10
85050
20
10030
30
0
40
150
1
12'5" X 11'5"
50
0
72
4
11
85050
21
10030
31
0
0
TEXT
8
A-ANNO-ROOM
10
81900
20
9000
30
0
40
150
1
PASSAGE
50
0
72
4
11
81900
21
9000
31
0
0
TEXT
8
A-ANNO-ROOM
10
81900
20
10930
30
0
40
200
1
TOILET
50
0
72
4
11
81900
21
10930
31
0
0
TEXT
8
A-ANNO-ROOM
10
81900
20
10630
30
0
40
150
1
7'6" X 7'6"
50
0
72
4
11
81900
21
10630
31
0
0
TEXT
8
A-ANNO-ROOM
10
79500
20
10330
30
0
40
200
1
BED ROOM
50
0
72
4
11
79500
21
10330
31
0
0
TEXT
8
A-ANNO-ROOM
10
79500
20
10030
30
0
40
150
1
7'6" X 11'5"
50
0
72
4
11
79500
21
10030
31
0
0
TEXT
8
A-ANNO-ROOM
10
84150
20
-620
30
0
40
200
1
BALCONY
50
0
72
4
11
84150
21
-620
31
0
0
TEXT
8
A-ANNO-ROOM
10
76500
20
9730
30
0
40
200
1
STAIRCASE
50
0
72
4
11
76500
21
9730
31
0
0
TEXT
8
A-ANNO-ROOM
10
76500
20
6130
30
0
40
200
1
LIFT
50
0
72
4
11
76500
21
6130
31
0
0
TEXT
8
A-ANNO-ROOM
10
76500
20
5830
30
0
40
150
1
5'6" X 5'6"
50
0
72
4
11
76500
21
5830
31
0
0
TEXT
8
A-ANNO-ROOM
10
76500
20
2680
30
0
40
200
1
LOBBY
50
0
72
4
11
76500
21
2680
31
0
0
DIMENSION
8
A-DIMS
2
*D27
10
68700
20
13300
30
0
11
67350
21
13444
31
0
70
0
1

13
66000
23
12000
33
0
14
68700
24
12000
34
0
50
0
0
DIMENSION
8
A-DIMS
2
*D28
10
72300
20
13300
30
0
11
70500
21
13444
31
0
70
0
1

13
68700
23
12000
33
0
14
72300
24
12000
34
0
50
0
0
DIMENSION
8
A-DIMS
2
*D29
10
74700
20
13300
30
0
11
73500
21
13444
31
0
70
0
1

13
72300
23
12000
33
0
14
74700
24
12000
34
0
50
0
0
DIMENSION
8
A-DIMS
2
*D30
10
78300
20
13300
30
0
11
76500
21
13444
31
0
70
0
1

13
74700
23
12000
33
0
14
78300
24
12000
34
0
50
0
0
DIMENSION
8
A-DIMS
2
*D31
10
80700
20
13300
30
0
11
79500
21
13444
31
0
70
0
1

13
78300
23
12000
33
0
14
80700
24
12000
34
0
50
0
0
DIMENSION
8
A-DIMS
2
*D32
10
84300
20
13300
30
0
11
82500
21
13444
31
0
70
0
1

13
80700
23
12000
33
0
14
84300
24
12000
34
0
50
0
0
DIMENSION
8
A-DIMS
2
*D33
10
87000
20
13300
30
0
11
85650
21
13444
31
0
70
0
1

13
84300
23
12000
33
0
14
87000
24
12000
34
0
50
0
0
DIMENSION
8
A-DIMS
2
*D34
10
87000
20
14300
30
0
11
76500
21
14444
31
0
70
0
1

13
66000
23
12000
33
0
14
87000
24
12000
34
0
50
0
0
DIMENSION
8
A-DIMS
2
*D35
10
64700
20
4800
30
0
11
64556
21
2400
31
0
70
0
1

13
66000
23
0
33
0
14
66000
24
4800
34
0
50
90
0
DIMENSION
8
A-DIMS
2
*D36
10
64700
20
8400
30
0
11
64556
21
6600
31
0
70
0
1

13
66000
23
4800
33
0
14
66000
24
8400
34
0
50
90
0
DIMENSION
8
A-DIMS
2
*D37
10
64700
20
12000
30
0
11
64556
21
10200
31
0
70
0
1

13
66000
23
8400
33
0
14
66000
24
12000
34
0
50
90
0
DIMENSION
8
A-DIMS
2
*D38
10
63700
20
12000
30
0
11
63556
21
6000
31
0
70
0
1

13
66000
23
0
33
0
14
66000
24
12000
34
0
50
90
0
DIMENSION
8
A-DIMS
2
*D39
10
87000
20
-3100
30
0
11
76500
21
-2956
31
0
70
0
1

13
66000
23
0
33
0
14
87000
24
0
34
0
50
0
0
TEXT
8
A-ANNO-TTLB
10
76500
20
-4700
30
0
40
450
1
SECOND FLOOR PLAN
50
0
72
1
11
76500
21
-4700
31
0
0
TEXT
8
A-ANNO-TTLB
10
76500
20
-5400
30
0
40
250
1
SCALE 1:100
50
0
72
1
11
76500
21
-5400
31
0
0
POLYLINE
8
A-WALL
66
1
10
0
20
0
30
0
70
1
0
VERTEX
8
A-WALL
10
99520
20
-2180
30
0
0
VERTEX
8
A-WALL
10
99520
20
-120
30
0
0
VERTEX
8
A-WALL
10
98880
20
-120
30
0
0
VERTEX
8
A-WALL
10
98880
20
1200
30
0
0
VERTEX
8
A-WALL
10
99120
20
1200
30
0
0
VERTEX
8
A-WALL
10
99120
20
110
30
0
0
VERTEX
8
A-WALL
10
100500
20
110
30
0
0
VERTEX
8
A-WALL
10
100500
20
-120
30
0
0
VERTEX
8
A-WALL
10
99680
20
-120
30
0
0
VERTEX
8
A-WALL
10
99680
20
-2030
30
0
0
VERTEX
8
A-WALL
10
104020
20
-2030
30
0
0
VERTEX
8
A-WALL
10
104020
20
-120
30
0
0
VERTEX
8
A-WALL
10
103500
20
-120
30
0
0
VERTEX
8
A-WALL
10
103500
20
110
30
0
0
VERTEX
8
A-WALL
10
104340
20
110
30
0
0
VERTEX
8
A-WALL
10
104340
20
1200
30
0
0
VERTEX
8
A-WALL
10
104460
20
1200
30
0
0
VERTEX
8
A-WALL
10
104460
20
110
30
0
0
VERTEX
8
A-WALL
10
107580
20
110
30
0
0
VERTEX
8
A-WALL
10
107580
20
2000
30
0
0
VERTEX
8
A-WALL
10
107820
20
2000
30
0
0
VERTEX
8
A-WALL
10
107820
20
110
30
0
0
VERTEX
8
A-WALL
10
108900
20
110
30
0
0
VERTEX
8
A-WALL
10
108900
20
-120
30
0
0
VERTEX
8
A-WALL
10
104180
20
-120
30
0
0
VERTEX
8
A-WALL
10
104180
20
-2180
30
0
0
SEQEND
8
A-WALL
0
POLYLINE
8
A-WALL
66
1
10
0
20
0
30
0
70
1
0
VERTEX
8
A-WALL
10
114820
20
-1580
30
0
0
VERTEX
8
A-WALL
10
114820
20
-120
30
0
0
VERTEX
8
A-WALL
10
110100
20
-120
30
0
0
VERTEX
8
A-WALL
10
110100
20
110
30
0
0
VERTEX
8
A-WALL
10
111180
20
110
30
0
0
VERTEX
8
A-WALL
10
111180
20
2000
30
0
0
VERTEX
8
A-WALL
10
111420
20
2000
30
0
0
VERTEX
8
A-WALL
10
111420
20
110
30
0
0
VERTEX
8
A-WALL
10
114540
20
110
30
0
0
VERTEX
8
A-WALL
10
114540
20
1200
30
0
0
VERTEX
8
A-WALL
10
114660
20
1200
30
0
0
VERTEX
8
A-WALL
10
114660
20
110
30
0
0
VERTEX
8
A-WALL
10
115500
20
110
30
0
0
VERTEX
8
A-WALL
10
115500
20
-120
30
0
0
VERTEX
8
A-WALL
10
114980
20
-120
30
0
0
VERTEX
8
A-WALL
10
114980
20
-1430
30
0
0
VERTEX
8
A-WALL
10
119320
20
-1430
30
0
0
VERTEX
8
A-WALL
10
119320
20
-120
30
0
0
VERTEX
8
A-WALL
10
118500
20
-120
30
0
0
VERTEX
8
A-WALL
10
118500
20
110
30
0
0
VERTEX
8
A-WALL
10
119880
20
110
30
0
0
VERTEX
8
A-WALL
10
119880
20
1200
30
0
0
VERTEX
8
A-WALL
10
120120
20
1200
30
0
0
VERTEX
8
A-WALL
10
120120
20
-120
30
0
0
VERTEX
8
A-WALL
10
119480
20
-120
30
0
0
VERTEX
8
A-WALL
10
119480
20
-1580
30
0
0
SEQEND
8
A-WALL
0
POLYLINE
8
A-WALL
66
1
10
0
20
0
30
0
70
1
0
VERTEX
8
A-WALL
10
107580
20
3000
30
0
0
VERTEX
8
A-WALL
10
107580
20
4740
30
0
0
VERTEX
8
A-WALL
10
107350
20
4740
30
0
0
VERTEX
8
A-WALL
10
107350
20
4860
30
0
0
VERTEX
8
A-WALL
10
107580
20
4860
30
0
0
VERTEX
8
A-WALL
10
107580
20
5940
30
0
0
VERTEX
8
A-WALL
10
105360
20
5940
30
0
0
VERTEX
8
A-WALL
10
105360
20
4860
30
0
0
VERTEX
8
A-WALL
10
106600
20
4860
30
0
0
VERTEX
8
A-WALL
10
106600
20
4740
30
0
0
VERTEX
8
A-WALL
10
105000
20
4740
30
0
0
VERTEX
8
A-WALL
10
105000
20
4860
30
0
0
VERTEX
8
A-WALL
10
105240
20
4860
30
0
0
VERTEX
8
A-WALL
10
105240
20
6600
30
0
0
VERTEX
8
A-WALL
10
105360
20
6600
30
0
0
VERTEX
8
A-WALL
10
105360
20
6060
30
0
0
VERTEX
8
A-WALL
10
107580
20
6060
30
0
0
VERTEX
8
A-WALL
10
107580
20
7740
30
0
0
VERTEX
8
A-WALL
10
106740
20
7740
30
0
0
VERTEX
8
A-WALL
10
106740
20
8340
30
0
0
VERTEX
8
A-WALL
10
105360
20
8340
30
0
0
VERTEX
8
A-WALL
10
105360
20
7350
30
0
0
VERTEX
8
A-WALL
10
105240
20
7350
30
0
0
VERTEX
8
A-WALL
10
105240
20
8340
30
0
0
VERTEX
8
A-WALL
10
105000
20
8340
30
0
0
VERTEX
8
A-WALL
10
105000
20
8460
30
0
0
VERTEX
8
A-WALL
10
105240
20
8460
30
0
0
VERTEX
8
A-WALL
10
105240
20
8700
30
0
0
VERTEX
8
A-WALL
10
105360
20
8700
30
0
0
VERTEX
8
A-WALL
10
105360
20
8460
30
0
0
VERTEX
8
A-WALL
10
107580
20
8460
30
0
0
VERTEX
8
A-WALL
10
107580
20
11880
30
0
0
VERTEX
8
A-WALL
10
107400
20
11880
30
0
0
VERTEX
8
A-WALL
10
107400
20
12110
30
0
0
VERTEX
8
A-WALL
10
111600
20
12110
30
0
0
VERTEX
8
A-WALL
10
111600
20
11880
30
0
0
VERTEX
8
A-WALL
10
111420
20
11880
30
0
0
VERTEX
8
A-WALL
10
111420
20
8460
30
0
0
VERTEX
8
A-WALL
10
113640
20
8460
30
0
0
VERTEX
8
A-WALL
10
113640
20
8700
30
0
0
VERTEX
8
A-WALL
10
113760
20
8700
30
0
0
VERTEX
8
A-WALL
10
113760
20
8460
30
0
0
VERTEX
8
A-WALL
10
114000
20
8460
30
0
0
VERTEX
8
A-WALL
10
114000
20
8340
30
0
0
VERTEX
8
A-WALL
10
113760
20
8340
30
0
0
VERTEX
8
A-WALL
10
113760
20
7350
30
0
0
VERTEX
8
A-WALL
10
113640
20
7350
30
0
0
VERTEX
8
A-WALL
10
113640
20
8340
30
0
0
VERTEX
8
A-WALL
10
112260
20
8340
30
0
0
VERTEX
8
A-WALL
10
112260
20
7740
30
0
0
VERTEX
8
A-WALL
10
111420
20
7740
30
0
0
VERTEX
8
A-WALL
10
111420
20
6060
30
0
0
VERTEX
8
A-WALL
10
113640
20
6060
30
0
0
VERTEX
8
A-WALL
10
113640
20
6600
30
0
0
VERTEX
8
A-WALL
10
113760
20
6600
30
0
0
VERTEX
8
A-WALL
10
113760
20
4860
30
0
0
VERTEX
8
A-WALL
10
114000
20
4860
30
0
0
VERTEX
8
A-WALL
10
114000
20
4740
30
0
0
VERTEX
8
A-WALL
10
112400
20
4740
30
0
0
VERTEX
8
A-WALL
10
112400
20
4860
30
0
0
VERTEX
8
A-WALL
10
113640
20
4860
30
0
0
VERTEX
8
A-WALL
10
113640
20
5940
30
0
0
VERTEX
8
A-WALL
10
111420
20
5940
30
0
0
VERTEX
8
A-WALL
10
111420
20
4860
30
0
0
VERTEX
8
A-WALL
10
111650
20
4860
30
0
0
VERTEX
8
A-WALL
10
111650
20
4740
30
0
0
VERTEX
8
A-WALL
10
111420
20
4740
30
0
0
VERTEX
8
A-WALL
10
111420
20
3000
30
0
0
VERTEX
8
A-WALL
10
111180
20
3000
30
0
0
VERTEX
8
A-WALL
10
111180
20
7140
30
0
0
VERTEX
8
A-WALL
10
111000
20
7140
30
0
0
VERTEX
8
A-WALL
10
111000
20
7260
30
0
0
VERTEX
8
A-WALL
10
111180
20
7260
30
0
0
VERTEX
8
A-WALL
10
111180
20
11880
30
0
0
VERTEX
8
A-WALL
10
107820
20
11880
30
0
0
VERTEX
8
A-WALL
10
107820
20
7260
30
0
0
VERTEX
8
A-WALL
10
108000
20
7260
30
0
0
VERTEX
8
A-WALL
10
108000
20
7140
30
0
0
VERTEX
8
A-WALL
10
107820
20
7140
30
0
0
VERTEX
8
A-WALL
10
107820
20
3000
30
0
0
SEQEND
8
A-WALL
0
POLYLINE
8
A-WALL
66
1
10
0
20
0
30
0
70
1
0
VERTEX
8
A-WALL
10
98880
20
3600
30
0
0
VERTEX
8
A-WALL
10
98880
20
6000
30
0
0
VERTEX
8
A-WALL
10
99120
20
6000
30
0
0
VERTEX
8
A-WALL
10
99120
20
4860
30
0
0
VERTEX
8
A-WALL
10
101640
20
4860
30
0
0
VERTEX
8
A-WALL
10
101640
20
5400
30
0
0
VERTEX
8
A-WALL
10
101760
20
5400
30
0
0
VERTEX
8
A-WALL
10
101760
20
4860
30
0
0
VERTEX
8
A-WALL
10
102000
20
4860
30
0
0
VERTEX
8
A-WALL
10
102000
20
4740
30
0
0
VERTEX
8
A-WALL
10
99120
20
4740
30
0
0
VERTEX
8
A-WALL
10
99120
20
3600
30
0
0
SEQEND
8
A-WALL
0
POLYLINE
8
A-WALL
66
1
10
0
20
0
30
0
70
1
0
VERTEX
8
A-WALL
10
119880
20
3600
30
0
0
VERTEX
8
A-WALL
10
119880
20
4740
30
0
0
VERTEX
8
A-WALL
10
117000
20
4740
30
0
0
VERTEX
8
A-WALL
10
117000
20
4860
30
0
0
VERTEX
8
A-WALL
10
117240
20
4860
30
0
0
VERTEX
8
A-WALL
10
117240
20
5400
30
0
0
VERTEX
8
A-WALL
10
117360
20
5400
30
0
0
VERTEX
8
A-WALL
10
117360
20
4860
30
0
0
VERTEX
8
A-WALL
10
119880
20
4860
30
0
0
VERTEX
8
A-WALL
10
119880
20
6000
30
0
0
VERTEX
8
A-WALL
10
120120
20
6000
30
0
0
VERTEX
8
A-WALL
10
120120
20
3600
30
0
0
SEQEND
8
A-WALL
0
POLYLINE
8
A-WALL
66
1
10
0
20
0
30
0
70
1
0
VERTEX
8
A-WALL
10
104340
20
3800
30
0
0
VERTEX
8
A-WALL
10
104340
20
4600
30
0
0
VERTEX
8
A-WALL
10
104460
20
4600
30
0
0
VERTEX
8
A-WALL
10
104460
20
3800
30
0
0
SEQEND
8
A-WALL
0
POLYLINE
8
A-WALL
66
1
10
0
20
0
30
0
70
1
0
VERTEX
8
A-WALL
10
114540
20
3800
30
0
0
VERTEX
8
A-WALL
10
114540
20
4600
30
0
0
VERTEX
8
A-WALL
10
114660
20
4600
30
0
0
VERTEX
8
A-WALL
10
114660
20
3800
30
0
0
SEQEND
8
A-WALL
0
POLYLINE
8
A-WALL
66
1
10
0
20
0
30
0
70
1
0
VERTEX
8
A-WALL
10
108480
20
4980
30
0
0
VERTEX
8
A-WALL
10
108480
20
7000
30
0
0
VERTEX
8
A-WALL
10
110520
20
7000
30
0
0
VERTEX
8
A-WALL
10
110520
20
4980
30
0
0
VERTEX
8
A-WALL
10
109950
20
4980
30
0
0
VERTEX
8
A-WALL
10
109950
20
5210
30
0
0
VERTEX
8
A-WALL
10
110280
20
5210
30
0
0
VERTEX
8
A-WALL
10
110280
20
6780
30
0
0
VERTEX
8
A-WALL
10
108720
20
6780
30
0
0
VERTEX
8
A-WALL
10
108720
20
5210
30
0
0
VERTEX
8
A-WALL
10
109050
20
5210
30
0
0
VERTEX
8
A-WALL
10
109050
20
4980
30
0
0
SEQEND
8
A-WALL
0
POLYLINE
8
A-WALL
66
1
10
0
20
0
30
0
70
1
0
VERTEX
8
A-WALL
10
101640
20
6300
30
0
0
VERTEX
8
A-WALL
10
101640
20
8340
30
0
0
VERTEX
8
A-WALL
10
99120
20
8340
30
0
0
VERTEX
8
A-WALL
10
99120
20
7200
30
0
0
VERTEX
8
A-WALL
10
98880
20
7200
30
0
0
VERTEX
8
A-WALL
10
98880
20
9600
30
0
0
VERTEX
8
A-WALL
10
99120
20
9600
30
0
0
VERTEX
8
A-WALL
10
99120
20
8460
30
0
0
VERTEX
8
A-WALL
10
102840
20
8460
30
0
0
VERTEX
8
A-WALL
10
102840
20
8700
30
0
0
VERTEX
8
A-WALL
10
102960
20
8700
30
0
0
VERTEX
8
A-WALL
10
102960
20
8460
30
0
0
VERTEX
8
A-WALL
10
103200
20
8460
30
0
0
VERTEX
8
A-WALL
10
103200
20
8340
30
0
0
VERTEX
8
A-WALL
10
101760
20
8340
30
0
0
VERTEX
8
A-WALL
10
101760
20
6300
30
0
0
SEQEND
8
A-WALL
0
POLYLINE
8
A-WALL
66
1
10
0
20
0
30
0
70
1
0
VERTEX
8
A-WALL
10
117240
20
6300
30
0
0
VERTEX
8
A-WALL
10
117240
20
8340
30
0
0
VERTEX
8
A-WALL
10
115800
20
8340
30
0
0
VERTEX
8
A-WALL
10
115800
20
8460
30
0
0
VERTEX
8
A-WALL
10
116040
20
8460
30
0
0
VERTEX
8
A-WALL
10
116040
20
8700
30
0
0
VERTEX
8
A-WALL
10
116160
20
8700
30
0
0
VERTEX
8
A-WALL
10
116160
20
8460
30
0
0
VERTEX
8
A-WALL
10
119880
20
8460
30
0
0
VERTEX
8
A-WALL
10
119880
20
9600
30
0
0
VERTEX
8
A-WALL
10
120120
20
9600
30
0
0
VERTEX
8
A-WALL
10
120120
20
7200
30
0
0
VERTEX
8
A-WALL
10
119880
20
7200
30
0
0
VERTEX
8
A-WALL
10
119880
20
8340
30
0
0
VERTEX
8
A-WALL
10
117360
20
8340
30
0
0
VERTEX
8
A-WALL
10
117360
20
6300
30
0
0
SEQEND
8
A-WALL
0
POLYLINE
8
A-WALL
66
1
10
0
20
0
30
0
70
1
0
VERTEX
8
A-WALL
10
107580
20
7860
30
0
0
VERTEX
8
A-WALL
10
107580
20
8340
30
0
0
VERTEX
8
A-WALL
10
106860
20
8340
30
0
0
VERTEX
8
A-WALL
10
106860
20
7860
30
0
0
SEQEND
8
A-WALL
0
POLYLINE
8
A-WALL
66
1
10
0
20
0
30
0
70
1
0
VERTEX
8
A-WALL
10
112140
20
7860
30
0
0
VERTEX
8
A-WALL
10
112140
20
8340
30
0
0
VERTEX
8
A-WALL
10
111420
20
8340
30
0
0
VERTEX
8
A-WALL
10
111420
20
7860
30
0
0
SEQEND
8
A-WALL
0
POLYLINE
8
A-WALL
66
1
10
0
20
0
30
0
70
1
0
VERTEX
8
A-WALL
10
103100
20
9540
30
0
0
VERTEX
8
A-WALL
10
103100
20
9550
30
0
0
VERTEX
8
A-WALL
10
102840
20
9550
30
0
0
VERTEX
8
A-WALL
10
102840
20
11880
30
0
0
VERTEX
8
A-WALL
10
101700
20
11880
30
0
0
VERTEX
8
A-WALL
10
101700
20
12110
30
0
0
VERTEX
8
A-WALL
10
103500
20
12110
30
0
0
VERTEX
8
A-WALL
10
103500
20
11880
30
0
0
VERTEX
8
A-WALL
10
102960
20
11880
30
0
0
VERTEX
8
A-WALL
10
102960
20
9660
30
0
0
VERTEX
8
A-WALL
10
103200
20
9660
30
0
0
VERTEX
8
A-WALL
10
103200
20
9540
30
0
0
SEQEND
8
A-WALL
0
POLYLINE
8
A-WALL
66
1
10
0
20
0
30
0
70
1
0
VERTEX
8
A-WALL
10
103950
20
9540
30
0
0
VERTEX
8
A-WALL
10
103950
20
9660
30
0
0
VERTEX
8
A-WALL
10
105240
20
9660
30
0
0
VERTEX
8
A-WALL
10
105240
20
11340
30
0
0
VERTEX
8
A-WALL
10
104640
20
11340
30
0
0
VERTEX
8
A-WALL
10
104640
20
11880
30
0
0
VERTEX
8
A-WALL
10
104100
20
11880
30
0
0
VERTEX
8
A-WALL
10
104100
20
12110
30
0
0
VERTEX
8
A-WALL
10
106200
20
12110
30
0
0
VERTEX
8
A-WALL
10
106200
20
11880
30
0
0
VERTEX
8
A-WALL
10
105360
20
11880
30
0
0
VERTEX
8
A-WALL
10
105360
20
9550
30
0
0
VERTEX
8
A-WALL
10
105100
20
9550
30
0
0
VERTEX
8
A-WALL
10
105100
20
9540
30
0
0
SEQEND
8
A-WALL
0
POLYLINE
8
A-WALL
66
1
10
0
20
0
30
0
70
1
0
VERTEX
8
A-WALL
10
113900
20
9540
30
0
0
VERTEX
8
A-WALL
10
113900
20
9550
30
0
0
VERTEX
8
A-WALL
10
113640
20
9550
30
0
0
VERTEX
8
A-WALL
10
113640
20
10140
30
0
0
VERTEX
8
A-WALL
10
113400
20
10140
30
0
0
VERTEX
8
A-WALL
10
113400
20
10260
30
0
0
VERTEX
8
A-WALL
10
113640
20
10260
30
0
0
VERTEX
8
A-WALL
10
113640
20
11880
30
0
0
VERTEX
8
A-WALL
10
112800
20
11880
30
0
0
VERTEX
8
A-WALL
10
112800
20
12110
30
0
0
VERTEX
8
A-WALL
10
114900
20
12110
30
0
0
VERTEX
8
A-WALL
10
114900
20
11880
30
0
0
VERTEX
8
A-WALL
10
114360
20
11880
30
0
0
VERTEX
8
A-WALL
10
114360
20
11340
30
0
0
VERTEX
8
A-WALL
10
113760
20
11340
30
0
0
VERTEX
8
A-WALL
10
113760
20
9660
30
0
0
VERTEX
8
A-WALL
10
115050
20
9660
30
0
0
VERTEX
8
A-WALL
10
115050
20
9540
30
0
0
SEQEND
8
A-WALL
0
POLYLINE
8
A-WALL
66
1
10
0
20
0
30
0
70
1
0
VERTEX
8
A-WALL
10
115800
20
9540
30
0
0
VERTEX
8
A-WALL
10
115800
20
9660
30
0
0
VERTEX
8
A-WALL
10
116040
20
9660
30
0
0
VERTEX
8
A-WALL
10
116040
20
11880
30
0
0
VERTEX
8
A-WALL
10
115500
20
11880
30
0
0
VERTEX
8
A-WALL
10
115500
20
12110
30
0
0
VERTEX
8
A-WALL
10
117300
20
12110
30
0
0
VERTEX
8
A-WALL
10
117300
20
11880
30
0
0
VERTEX
8
A-WALL
10
116160
20
11880
30
0
0
VERTEX
8
A-WALL
10
116160
20
9550
30
0
0
VERTEX
8
A-WALL
10
115900
20
9550
30
0
0
VERTEX
8
A-WALL
10
115900
20
9540
30
0
0
SEQEND
8
A-WALL
0
POLYLINE
8
A-WALL
66
1
10
0
20
0
30
0
70
1
0
VERTEX
8
A-WALL
10
111840
20
10140
30
0
0
VERTEX
8
A-WALL
10
111840
20
11800
30
0
0
VERTEX
8
A-WALL
10
111960
20
11800
30
0
0
VERTEX
8
A-WALL
10
111960
20
10260
30
0
0
VERTEX
8
A-WALL
10
112700
20
10260
30
0
0
VERTEX
8
A-WALL
10
112700
20
10140
30
0
0
SEQEND
8
A-WALL
0
POLYLINE
8
A-WALL
66
1
10
0
20
0
30
0
70
1
0
VERTEX
8
A-WALL
10
98880
20
11100
30
0
0
VERTEX
8
A-WALL
10
98880
20
12110
30
0
0
VERTEX
8
A-WALL
10
100200
20
12110
30
0
0
VERTEX
8
A-WALL
10
100200
20
11880
30
0
0
VERTEX
8
A-WALL
10
99120
20
11880
30
0
0
VERTEX
8
A-WALL
10
99120
20
11100
30
0
0
SEQEND
8
A-WALL
0
POLYLINE
8
A-WALL
66
1
10
0
20
0
30
0
70
1
0
VERTEX
8
A-WALL
10
119880
20
11100
30
0
0
VERTEX
8
A-WALL
10
119880
20
11880
30
0
0
VERTEX
8
A-WALL
10
118800
20
11880
30
0
0
VERTEX
8
A-WALL
10
118800
20
12110
30
0
0
VERTEX
8
A-WALL
10
120120
20
12110
30
0
0
VERTEX
8
A-WALL
10
120120
20
11100
30
0
0
SEQEND
8
A-WALL
0
POLYLINE
8
A-WALL
66
1
10
0
20
0
30
0
70
1
0
VERTEX
8
A-WALL
10
105240
20
11460
30
0
0
VERTEX
8
A-WALL
10
105240
20
11880
30
0
0
VERTEX
8
A-WALL
10
104760
20
11880
30
0
0
VERTEX
8
A-WALL
10
104760
20
11460
30
0
0
SEQEND
8
A-WALL
0
POLYLINE
8
A-WALL
66
1
10
0
20
0
30
0
70
1
0
VERTEX
8
A-WALL
10
114240
20
11460
30
0
0
VERTEX
8
A-WALL
10
114240
20
11880
30
0
0
VERTEX
8
A-WALL
10
113760
20
11880
30
0
0
VERTEX
8
A-WALL
10
113760
20
11460
30
0
0
SEQEND
8
A-WALL
0
LINE
8
A-GLAZ
10
98885
20
1200
30
0
11
98885
21
3600
31
0
0
LINE
8
A-GLAZ
10
98975
20
1200
30
0
11
98975
21
3600
31
0
0
LINE
8
A-GLAZ
10
99025
20
1200
30
0
11
99025
21
3600
31
0
0
LINE
8
A-GLAZ
10
99115
20
1200
30
0
11
99115
21
3600
31
0
0
LINE
8
A-GLAZ
10
98885
20
6000
30
0
11
98885
21
7200
31
0
0
LINE
8
A-GLAZ
10
98975
20
6000
30
0
11
98975
21
7200
31
0
0
LINE
8
A-GLAZ
10
99025
20
6000
30
0
11
99025
21
7200
31
0
0
LINE
8
A-GLAZ
10
99115
20
6000
30
0
11
99115
21
7200
31
0
0
LINE
8
A-GLAZ
10
98885
20
9600
30
0
11
98885
21
11100
31
0
0
LINE
8
A-GLAZ
10
98975
20
9600
30
0
11
98975
21
11100
31
0
0
LINE
8
A-GLAZ
10
99025
20
9600
30
0
11
99025
21
11100
31
0
0
LINE
8
A-GLAZ
10
99115
20
9600
30
0
11
99115
21
11100
31
0
0
LINE
8
A-GLAZ
10
100200
20
11885
30
0
11
101700
21
11885
31
0
0
LINE
8
A-GLAZ
10
100200
20
11975
30
0
11
101700
21
11975
31
0
0
LINE
8
A-GLAZ
10
100200
20
12025
30
0
11
101700
21
12025
31
0
0
LINE
8
A-GLAZ
10
100200
20
12115
30
0
11
101700
21
12115
31
0
0
LINE
8
A-GLAZ
10
103500
20
11885
30
0
11
104100
21
11885
31
0
0
LINE
8
A-GLAZ
10
103500
20
11975
30
0
11
104100
21
11975
31
0
0
LINE
8
A-GLAZ
10
103500
20
12025
30
0
11
104100
21
12025
31
0
0
LINE
8
A-GLAZ
10
103500
20
12115
30
0
11
104100
21
12115
31
0
0
LINE
8
A-GLAZ
10
106200
20
11885
30
0
11
107400
21
11885
31
0
0
LINE
8
A-GLAZ
10
106200
20
11975
30
0
11
107400
21
11975
31
0
0
LINE
8
A-GLAZ
10
106200
20
12025
30
0
11
107400
21
12025
31
0
0
LINE
8
A-GLAZ
10
106200
20
12115
30
0
11
107400
21
12115
31
0
0
LINE
8
A-GLAZ
10
100500
20
-115
30
0
11
103500
21
-115
31
0
0
LINE
8
A-GLAZ
10
100500
20
-25
30
0
11
103500
21
-25
31
0
0
LINE
8
A-GLAZ
10
100500
20
25
30
0
11
103500
21
25
31
0
0
LINE
8
A-GLAZ
10
100500
20
115
30
0
11
103500
21
115
31
0
0
LINE
8
A-GLAZ
10
119885
20
1200
30
0
11
119885
21
3600
31
0
0
LINE
8
A-GLAZ
10
119975
20
1200
30
0
11
119975
21
3600
31
0
0
LINE
8
A-GLAZ
10
120025
20
1200
30
0
11
120025
21
3600
31
0
0
LINE
8
A-GLAZ
10
120115
20
1200
30
0
11
120115
21
3600
31
0
0
LINE
8
A-GLAZ
10
119885
20
6000
30
0
11
119885
21
7200
31
0
0
LINE
8
A-GLAZ
10
119975
20
6000
30
0
11
119975
21
7200
31
0
0
LINE
8
A-GLAZ
10
120025
20
6000
30
0
11
120025
21
7200
31
0
0
LINE
8
A-GLAZ
10
120115
20
6000
30
0
11
120115
21
7200
31
0
0
LINE
8
A-GLAZ
10
119885
20
9600
30
0
11
119885
21
11100
31
0
0
LINE
8
A-GLAZ
10
119975
20
9600
30
0
11
119975
21
11100
31
0
0
LINE
8
A-GLAZ
10
120025
20
9600
30
0
11
120025
21
11100
31
0
0
LINE
8
A-GLAZ
10
120115
20
9600
30
0
11
120115
21
11100
31
0
0
LINE
8
A-GLAZ
10
117300
20
11885
30
0
11
118800
21
11885
31
0
0
LINE
8
A-GLAZ
10
117300
20
11975
30
0
11
118800
21
11975
31
0
0
LINE
8
A-GLAZ
10
117300
20
12025
30
0
11
118800
21
12025
31
0
0
LINE
8
A-GLAZ
10
117300
20
12115
30
0
11
118800
21
12115
31
0
0
LINE
8
A-GLAZ
10
114900
20
11885
30
0
11
115500
21
11885
31
0
0
LINE
8
A-GLAZ
10
114900
20
11975
30
0
11
115500
21
11975
31
0
0
LINE
8
A-GLAZ
10
114900
20
12025
30
0
11
115500
21
12025
31
0
0
LINE
8
A-GLAZ
10
114900
20
12115
30
0
11
115500
21
12115
31
0
0
LINE
8
A-GLAZ
10
111600
20
11885
30
0
11
112800
21
11885
31
0
0
LINE
8
A-GLAZ
10
111600
20
11975
30
0
11
112800
21
11975
31
0
0
LINE
8
A-GLAZ
10
111600
20
12025
30
0
11
112800
21
12025
31
0
0
LINE
8
A-GLAZ
10
111600
20
12115
30
0
11
112800
21
12115
31
0
0
LINE
8
A-GLAZ
10
115500
20
-115
30
0
11
118500
21
-115
31
0
0
LINE
8
A-GLAZ
10
115500
20
-25
30
0
11
118500
21
-25
31
0
0
LINE
8
A-GLAZ
10
115500
20
25
30
0
11
118500
21
25
31
0
0
LINE
8
A-GLAZ
10
115500
20
115
30
0
11
118500
21
115
31
0
0
LINE
8
A-GLAZ
10
108900
20
-115
30
0
11
110100
21
-115
31
0
0
LINE
8
A-GLAZ
10
108900
20
-25
30
0
11
110100
21
-25
31
0
0
LINE
8
A-GLAZ
10
108900
20
25
30
0
11
110100
21
25
31
0
0
LINE
8
A-GLAZ
10
108900
20
115
30
0
11
110100
21
115
31
0
0
LINE
8
A-DOOR
10
102900
20
8700
30
0
11
102050
21
8700
31
0
0
ARC
8
A-DOOR
10
102900
20
8700
30
0
40
850
50
90
51
180
0
LINE
8
A-DOOR
10
103200
20
9600
30
0
11
103200
21
10350
31
0
0
ARC
8
A-DOOR
10
103200
20
9600
30
0
40
750
50
0
51
90
0
LINE
8
A-DOOR
10
105300
20
8700
30
0
11
106150
21
8700
31
0
0
ARC
8
A-DOOR
10
105300
20
8700
30
0
40
850
50
0
51
90
0
LINE
8
A-DOOR
10
105300
20
6600
30
0
11
106050
21
6600
31
0
0
ARC
8
A-DOOR
10
105300
20
6600
30
0
40
750
50
0
51
90
0
LINE
8
A-DOOR
10
106600
20
4800
30
0
11
106600
21
5550
31
0
0
ARC
8
A-DOOR
10
106600
20
4800
30
0
40
750
50
0
51
90
0
LINE
8
A-DOOR
10
107700
20
2000
30
0
11
106700
21
2000
31
0
0
ARC
8
A-DOOR
10
107700
20
2000
30
0
40
1000
50
90
51
180
0
LINE
8
A-DOOR
10
116100
20
8700
30
0
11
116950
21
8700
31
0
0
ARC
8
A-DOOR
10
116100
20
8700
30
0
40
850
50
0
51
90
0
LINE
8
A-DOOR
10
115800
20
9600
30
0
11
115800
21
10350
31
0
0
ARC
8
A-DOOR
10
115800
20
9600
30
0
40
750
50
90
51
180
0
LINE
8
A-DOOR
10
113700
20
8700
30
0
11
112850
21
8700
31
0
0
ARC
8
A-DOOR
10
113700
20
8700
30
0
40
850
50
90
51
180
0
LINE
8
A-DOOR
10
113700
20
6600
30
0
11
112950
21
6600
31
0
0
ARC
8
A-DOOR
10
113700
20
6600
30
0
40
750
50
90
51
180
0
LINE
8
A-DOOR
10
112400
20
4800
30
0
11
112400
21
5550
31
0
0
ARC
8
A-DOOR
10
112400
20
4800
30
0
40
750
50
90
51
180
0
LINE
8
A-DOOR
10
111300
20
2000
30
0
11
112300
21
2000
31
0
0
ARC
8
A-DOOR
10
111300
20
2000
30
0
40
1000
50
0
51
90
0
LINE
8
A-DOOR
10
113400
20
10200
30
0
11
113400
21
9500
31
0
0
ARC
8
A-DOOR
10
113400
20
10200
30
0
40
700
50
180
51
270
0
SOLID
8
S-COLS
10
98775
20
-115
30
0
11
99225
21
-115
31
0
12
98775
22
115
32
0
13
99225
23
115
33
0
0
POLYLINE
8
S-COLS
66
1
10
0
20
0
30
0
70
1
0
VERTEX
8
S-COLS
10
98775
20
-115
30
0
0
VERTEX
8
S-COLS
10
99225
20
-115
30
0
0
VERTEX
8
S-COLS
10
99225
20
115
30
0
0
VERTEX
8
S-COLS
10
98775
20
115
30
0
0
SEQEND
8
S-COLS
0
SOLID
8
S-COLS
10
98885
20
4575
30
0
11
99115
21
4575
31
0
12
98885
22
5025
32
0
13
99115
23
5025
33
0
0
POLYLINE
8
S-COLS
66
1
10
0
20
0
30
0
70
1
0
VERTEX
8
S-COLS
10
98885
20
4575
30
0
0
VERTEX
8
S-COLS
10
99115
20
4575
30
0
0
VERTEX
8
S-COLS
10
99115
20
5025
30
0
0
VERTEX
8
S-COLS
10
98885
20
5025
30
0
0
SEQEND
8
S-COLS
0
SOLID
8
S-COLS
10
98885
20
8175
30
0
11
99115
21
8175
31
0
12
98885
22
8625
32
0
13
99115
23
8625
33
0
0
POLYLINE
8
S-COLS
66
1
10
0
20
0
30
0
70
1
0
VERTEX
8
S-COLS
10
98885
20
8175
30
0
0
VERTEX
8
S-COLS
10
99115
20
8175
30
0
0
VERTEX
8
S-COLS
10
99115
20
8625
30
0
0
VERTEX
8
S-COLS
10
98885
20
8625
30
0
0
SEQEND
8
S-COLS
0
SOLID
8
S-COLS
10
98775
20
11885
30
0
11
99225
21
11885
31
0
12
98775
22
12115
32
0
13
99225
23
12115
33
0
0
POLYLINE
8
S-COLS
66
1
10
0
20
0
30
0
70
1
0
VERTEX
8
S-COLS
10
98775
20
11885
30
0
0
VERTEX
8
S-COLS
10
99225
20
11885
30
0
0
VERTEX
8
S-COLS
10
99225
20
12115
30
0
0
VERTEX
8
S-COLS
10
98775
20
12115
30
0
0
SEQEND
8
S-COLS
0
SOLID
8
S-COLS
10
101475
20
-115
30
0
11
101925
21
-115
31
0
12
101475
22
115
32
0
13
101925
23
115
33
0
0
POLYLINE
8
S-COLS
66
1
10
0
20
0
30
0
70
1
0
VERTEX
8
S-COLS
10
101475
20
-115
30
0
0
VERTEX
8
S-COLS
10
101925
20
-115
30
0
0
VERTEX
8
S-COLS
10
101925
20
115
30
0
0
VERTEX
8
S-COLS
10
101475
20
115
30
0
0
SEQEND
8
S-COLS
0
SOLID
8
S-COLS
10
101585
20
4575
30
0
11
101815
21
4575
31
0
12
101585
22
5025
32
0
13
101815
23
5025
33
0
0
POLYLINE
8
S-COLS
66
1
10
0
20
0
30
0
70
1
0
VERTEX
8
S-COLS
10
101585
20
4575
30
0
0
VERTEX
8
S-COLS
10
101815
20
4575
30
0
0
VERTEX
8
S-COLS
10
101815
20
5025
30
0
0
VERTEX
8
S-COLS
10
101585
20
5025
30
0
0
SEQEND
8
S-COLS
0
SOLID
8
S-COLS
10
101585
20
8175
30
0
11
101815
21
8175
31
0
12
101585
22
8625
32
0
13
101815
23
8625
33
0
0
POLYLINE
8
S-COLS
66
1
10
0
20
0
30
0
70
1
0
VERTEX
8
S-COLS
10
101585
20
8175
30
0
0
VERTEX
8
S-COLS
10
101815
20
8175
30
0
0
VERTEX
8
S-COLS
10
101815
20
8625
30
0
0
VERTEX
8
S-COLS
10
101585
20
8625
30
0
0
SEQEND
8
S-COLS
0
SOLID
8
S-COLS
10
101475
20
11885
30
0
11
101925
21
11885
31
0
12
101475
22
12115
32
0
13
101925
23
12115
33
0
0
POLYLINE
8
S-COLS
66
1
10
0
20
0
30
0
70
1
0
VERTEX
8
S-COLS
10
101475
20
11885
30
0
0
VERTEX
8
S-COLS
10
101925
20
11885
30
0
0
VERTEX
8
S-COLS
10
101925
20
12115
30
0
0
VERTEX
8
S-COLS
10
101475
20
12115
30
0
0
SEQEND
8
S-COLS
0
SOLID
8
S-COLS
10
105075
20
-115
30
0
11
105525
21
-115
31
0
12
105075
22
115
32
0
13
105525
23
115
33
0
0
POLYLINE
8
S-COLS
66
1
10
0
20
0
30
0
70
1
0
VERTEX
8
S-COLS
10
105075
20
-115
30
0
0
VERTEX
8
S-COLS
10
105525
20
-115
30
0
0
VERTEX
8
S-COLS
10
105525
20
115
30
0
0
VERTEX
8
S-COLS
10
105075
20
115
30
0
0
SEQEND
8
S-COLS
0
SOLID
8
S-COLS
10
105185
20
4575
30
0
11
105415
21
4575
31
0
12
105185
22
5025
32
0
13
105415
23
5025
33
0
0
POLYLINE
8
S-COLS
66
1
10
0
20
0
30
0
70
1
0
VERTEX
8
S-COLS
10
105185
20
4575
30
0
0
VERTEX
8
S-COLS
10
105415
20
4575
30
0
0
VERTEX
8
S-COLS
10
105415
20
5025
30
0
0
VERTEX
8
S-COLS
10
105185
20
5025
30
0
0
SEQEND
8
S-COLS
0
SOLID
8
S-COLS
10
105185
20
8175
30
0
11
105415
21
8175
31
0
12
105185
22
8625
32
0
13
105415
23
8625
33
0
0
POLYLINE
8
S-COLS
66
1
10
0
20
0
30
0
70
1
0
VERTEX
8
S-COLS
10
105185
20
8175
30
0
0
VERTEX
8
S-COLS
10
105415
20
8175
30
0
0
VERTEX
8
S-COLS
10
105415
20
8625
30
0
0
VERTEX
8
S-COLS
10
105185
20
8625
30
0
0
SEQEND
8
S-COLS
0
SOLID
8
S-COLS
10
105075
20
11885
30
0
11
105525
21
11885
31
0
12
105075
22
12115
32
0
13
105525
23
12115
33
0
0
POLYLINE
8
S-COLS
66
1
10
0
20
0
30
0
70
1
0
VERTEX
8
S-COLS
10
105075
20
11885
30
0
0
VERTEX
8
S-COLS
10
105525
20
11885
30
0
0
VERTEX
8
S-COLS
10
105525
20
12115
30
0
0
VERTEX
8
S-COLS
10
105075
20
12115
30
0
0
SEQEND
8
S-COLS
0
SOLID
8
S-COLS
10
107475
20
-115
30
0
11
107925
21
-115
31
0
12
107475
22
115
32
0
13
107925
23
115
33
0
0
POLYLINE
8
S-COLS
66
1
10
0
20
0
30
0
70
1
0
VERTEX
8
S-COLS
10
107475
20
-115
30
0
0
VERTEX
8
S-COLS
10
107925
20
-115
30
0
0
VERTEX
8
S-COLS
10
107925
20
115
30
0
0
VERTEX
8
S-COLS
10
107475
20
115
30
0
0
SEQEND
8
S-COLS
0
SOLID
8
S-COLS
10
107585
20
4575
30
0
11
107815
21
4575
31
0
12
107585
22
5025
32
0
13
107815
23
5025
33
0
0
POLYLINE
8
S-COLS
66
1
10
0
20
0
30
0
70
1
0
VERTEX
8
S-COLS
10
107585
20
4575
30
0
0
VERTEX
8
S-COLS
10
107815
20
4575
30
0
0
VERTEX
8
S-COLS
10
107815
20
5025
30
0
0
VERTEX
8
S-COLS
10
107585
20
5025
30
0
0
SEQEND
8
S-COLS
0
SOLID
8
S-COLS
10
107585
20
8175
30
0
11
107815
21
8175
31
0
12
107585
22
8625
32
0
13
107815
23
8625
33
0
0
POLYLINE
8
S-COLS
66
1
10
0
20
0
30
0
70
1
0
VERTEX
8
S-COLS
10
107585
20
8175
30
0
0
VERTEX
8
S-COLS
10
107815
20
8175
30
0
0
VERTEX
8
S-COLS
10
107815
20
8625
30
0
0
VERTEX
8
S-COLS
10
107585
20
8625
30
0
0
SEQEND
8
S-COLS
0
SOLID
8
S-COLS
10
107475
20
11885
30
0
11
107925
21
11885
31
0
12
107475
22
12115
32
0
13
107925
23
12115
33
0
0
POLYLINE
8
S-COLS
66
1
10
0
20
0
30
0
70
1
0
VERTEX
8
S-COLS
10
107475
20
11885
30
0
0
VERTEX
8
S-COLS
10
107925
20
11885
30
0
0
VERTEX
8
S-COLS
10
107925
20
12115
30
0
0
VERTEX
8
S-COLS
10
107475
20
12115
30
0
0
SEQEND
8
S-COLS
0
SOLID
8
S-COLS
10
111075
20
-115
30
0
11
111525
21
-115
31
0
12
111075
22
115
32
0
13
111525
23
115
33
0
0
POLYLINE
8
S-COLS
66
1
10
0
20
0
30
0
70
1
0
VERTEX
8
S-COLS
10
111075
20
-115
30
0
0
VERTEX
8
S-COLS
10
111525
20
-115
30
0
0
VERTEX
8
S-COLS
10
111525
20
115
30
0
0
VERTEX
8
S-COLS
10
111075
20
115
30
0
0
SEQEND
8
S-COLS
0
SOLID
8
S-COLS
10
111185
20
4575
30
0
11
111415
21
4575
31
0
12
111185
22
5025
32
0
13
111415
23
5025
33
0
0
POLYLINE
8
S-COLS
66
1
10
0
20
0
30
0
70
1
0
VERTEX
8
S-COLS
10
111185
20
4575
30
0
0
VERTEX
8
S-COLS
10
111415
20
4575
30
0
0
VERTEX
8
S-COLS
10
111415
20
5025
30
0
0
VERTEX
8
S-COLS
10
111185
20
5025
30
0
0
SEQEND
8
S-COLS
0
SOLID
8
S-COLS
10
111185
20
8175
30
0
11
111415
21
8175
31
0
12
111185
22
8625
32
0
13
111415
23
8625
33
0
0
POLYLINE
8
S-COLS
66
1
10
0
20
0
30
0
70
1
0
VERTEX
8
S-COLS
10
111185
20
8175
30
0
0
VERTEX
8
S-COLS
10
111415
20
8175
30
0
0
VERTEX
8
S-COLS
10
111415
20
8625
30
0
0
VERTEX
8
S-COLS
10
111185
20
8625
30
0
0
SEQEND
8
S-COLS
0
SOLID
8
S-COLS
10
111075
20
11885
30
0
11
111525
21
11885
31
0
12
111075
22
12115
32
0
13
111525
23
12115
33
0
0
POLYLINE
8
S-COLS
66
1
10
0
20
0
30
0
70
1
0
VERTEX
8
S-COLS
10
111075
20
11885
30
0
0
VERTEX
8
S-COLS
10
111525
20
11885
30
0
0
VERTEX
8
S-COLS
10
111525
20
12115
30
0
0
VERTEX
8
S-COLS
10
111075
20
12115
30
0
0
SEQEND
8
S-COLS
0
SOLID
8
S-COLS
10
113475
20
-115
30
0
11
113925
21
-115
31
0
12
113475
22
115
32
0
13
113925
23
115
33
0
0
POLYLINE
8
S-COLS
66
1
10
0
20
0
30
0
70
1
0
VERTEX
8
S-COLS
10
113475
20
-115
30
0
0
VERTEX
8
S-COLS
10
113925
20
-115
30
0
0
VERTEX
8
S-COLS
10
113925
20
115
30
0
0
VERTEX
8
S-COLS
10
113475
20
115
30
0
0
SEQEND
8
S-COLS
0
SOLID
8
S-COLS
10
113585
20
4575
30
0
11
113815
21
4575
31
0
12
113585
22
5025
32
0
13
113815
23
5025
33
0
0
POLYLINE
8
S-COLS
66
1
10
0
20
0
30
0
70
1
0
VERTEX
8
S-COLS
10
113585
20
4575
30
0
0
VERTEX
8
S-COLS
10
113815
20
4575
30
0
0
VERTEX
8
S-COLS
10
113815
20
5025
30
0
0
VERTEX
8
S-COLS
10
113585
20
5025
30
0
0
SEQEND
8
S-COLS
0
SOLID
8
S-COLS
10
113585
20
8175
30
0
11
113815
21
8175
31
0
12
113585
22
8625
32
0
13
113815
23
8625
33
0
0
POLYLINE
8
S-COLS
66
1
10
0
20
0
30
0
70
1
0
VERTEX
8
S-COLS
10
113585
20
8175
30
0
0
VERTEX
8
S-COLS
10
113815
20
8175
30
0
0
VERTEX
8
S-COLS
10
113815
20
8625
30
0
0
VERTEX
8
S-COLS
10
113585
20
8625
30
0
0
SEQEND
8
S-COLS
0
SOLID
8
S-COLS
10
113475
20
11885
30
0
11
113925
21
11885
31
0
12
113475
22
12115
32
0
13
113925
23
12115
33
0
0
POLYLINE
8
S-COLS
66
1
10
0
20
0
30
0
70
1
0
VERTEX
8
S-COLS
10
113475
20
11885
30
0
0
VERTEX
8
S-COLS
10
113925
20
11885
30
0
0
VERTEX
8
S-COLS
10
113925
20
12115
30
0
0
VERTEX
8
S-COLS
10
113475
20
12115
30
0
0
SEQEND
8
S-COLS
0
SOLID
8
S-COLS
10
117075
20
-115
30
0
11
117525
21
-115
31
0
12
117075
22
115
32
0
13
117525
23
115
33
0
0
POLYLINE
8
S-COLS
66
1
10
0
20
0
30
0
70
1
0
VERTEX
8
S-COLS
10
117075
20
-115
30
0
0
VERTEX
8
S-COLS
10
117525
20
-115
30
0
0
VERTEX
8
S-COLS
10
117525
20
115
30
0
0
VERTEX
8
S-COLS
10
117075
20
115
30
0
0
SEQEND
8
S-COLS
0
SOLID
8
S-COLS
10
117185
20
4575
30
0
11
117415
21
4575
31
0
12
117185
22
5025
32
0
13
117415
23
5025
33
0
0
POLYLINE
8
S-COLS
66
1
10
0
20
0
30
0
70
1
0
VERTEX
8
S-COLS
10
117185
20
4575
30
0
0
VERTEX
8
S-COLS
10
117415
20
4575
30
0
0
VERTEX
8
S-COLS
10
117415
20
5025
30
0
0
VERTEX
8
S-COLS
10
117185
20
5025
30
0
0
SEQEND
8
S-COLS
0
SOLID
8
S-COLS
10
117185
20
8175
30
0
11
117415
21
8175
31
0
12
117185
22
8625
32
0
13
117415
23
8625
33
0
0
POLYLINE
8
S-COLS
66
1
10
0
20
0
30
0
70
1
0
VERTEX
8
S-COLS
10
117185
20
8175
30
0
0
VERTEX
8
S-COLS
10
117415
20
8175
30
0
0
VERTEX
8
S-COLS
10
117415
20
8625
30
0
0
VERTEX
8
S-COLS
10
117185
20
8625
30
0
0
SEQEND
8
S-COLS
0
SOLID
8
S-COLS
10
117075
20
11885
30
0
11
117525
21
11885
31
0
12
117075
22
12115
32
0
13
117525
23
12115
33
0
0
POLYLINE
8
S-COLS
66
1
10
0
20
0
30
0
70
1
0
VERTEX
8
S-COLS
10
117075
20
11885
30
0
0
VERTEX
8
S-COLS
10
117525
20
11885
30
0
0
VERTEX
8
S-COLS
10
117525
20
12115
30
0
0
VERTEX
8
S-COLS
10
117075
20
12115
30
0
0
SEQEND
8
S-COLS
0
SOLID
8
S-COLS
10
119775
20
-115
30
0
11
120225
21
-115
31
0
12
119775
22
115
32
0
13
120225
23
115
33
0
0
POLYLINE
8
S-COLS
66
1
10
0
20
0
30
0
70
1
0
VERTEX
8
S-COLS
10
119775
20
-115
30
0
0
VERTEX
8
S-COLS
10
120225
20
-115
30
0
0
VERTEX
8
S-COLS
10
120225
20
115
30
0
0
VERTEX
8
S-COLS
10
119775
20
115
30
0
0
SEQEND
8
S-COLS
0
SOLID
8
S-COLS
10
119885
20
4575
30
0
11
120115
21
4575
31
0
12
119885
22
5025
32
0
13
120115
23
5025
33
0
0
POLYLINE
8
S-COLS
66
1
10
0
20
0
30
0
70
1
0
VERTEX
8
S-COLS
10
119885
20
4575
30
0
0
VERTEX
8
S-COLS
10
120115
20
4575
30
0
0
VERTEX
8
S-COLS
10
120115
20
5025
30
0
0
VERTEX
8
S-COLS
10
119885
20
5025
30
0
0
SEQEND
8
S-COLS
0
SOLID
8
S-COLS
10
119885
20
8175
30
0
11
120115
21
8175
31
0
12
119885
22
8625
32
0
13
120115
23
8625
33
0
0
POLYLINE
8
S-COLS
66
1
10
0
20
0
30
0
70
1
0
VERTEX
8
S-COLS
10
119885
20
8175
30
0
0
VERTEX
8
S-COLS
10
120115
20
8175
30
0
0
VERTEX
8
S-COLS
10
120115
20
8625
30
0
0
VERTEX
8
S-COLS
10
119885
20
8625
30
0
0
SEQEND
8
S-COLS
0
SOLID
8
S-COLS
10
119775
20
11885
30
0
11
120225
21
11885
31
0
12
119775
22
12115
32
0
13
120225
23
12115
33
0
0
POLYLINE
8
S-COLS
66
1
10
0
20
0
30
0
70
1
0
VERTEX
8
S-COLS
10
119775
20
11885
30
0
0
VERTEX
8
S-COLS
10
120225
20
11885
30
0
0
VERTEX
8
S-COLS
10
120225
20
12115
30
0
0
VERTEX
8
S-COLS
10
119775
20
12115
30
0
0
SEQEND
8
S-COLS
0
LINE
8
P-DUCT
10
104760
20
11460
30
0
11
105240
21
11940
31
0
0
LINE
8
P-DUCT
10
104760
20
11940
30
0
11
105240
21
11460
31
0
0
LINE
8
P-DUCT
10
106860
20
7860
30
0
11
107640
21
8340
31
0
0
LINE
8
P-DUCT
10
106860
20
8340
30
0
11
107640
21
7860
31
0
0
LINE
8
P-DUCT
10
113760
20
11460
30
0
11
114240
21
11940
31
0
0
LINE
8
P-DUCT
10
113760
20
11940
30
0
11
114240
21
11460
31
0
0
LINE
8
P-DUCT
10
111360
20
7860
30
0
11
112140
21
8340
31
0
0
LINE
8
P-DUCT
10
111360
20
8340
30
0
11
112140
21
7860
31
0
0
LINE
8
A-STRS
10
107950
20
8400
30
0
11
109450
21
8400
31
0
0
LINE
8
A-STRS
10
109550
20
8400
30
0
11
111050
21
8400
31
0
0
LINE
8
A-STRS
10
107950
20
8650
30
0
11
109450
21
8650
31
0
0
LINE
8
A-STRS
10
109550
20
8650
30
0
11
111050
21
8650
31
0
0
LINE
8
A-STRS
10
107950
20
8900
30
0
11
109450
21
8900
31
0
0
LINE
8
A-STRS
10
109550
20
8900
30
0
11
111050
21
8900
31
0
0
LINE
8
A-STRS
10
107950
20
9150
30
0
11
109450
21
9150
31
0
0
LINE
8
A-STRS
10
109550
20
9150
30
0
11
111050
21
9150
31
0
0
LINE
8
A-STRS
10
107950
20
9400
30
0
11
109450
21
9400
31
0
0
LINE
8
A-STRS
10
109550
20
9400
30
0
11
111050
21
9400
31
0
0
LINE
8
A-STRS
10
107950
20
9650
30
0
11
109450
21
9650
31
0
0
LINE
8
A-STRS
10
109550
20
9650
30
0
11
111050
21
9650
31
0
0
LINE
8
A-STRS
10
107950
20
9900
30
0
11
109450
21
9900
31
0
0
LINE
8
A-STRS
10
109550
20
9900
30
0
11
111050
21
9900
31
0
0
LINE
8
A-STRS
10
107950
20
10150
30
0
11
109450
21
10150
31
0
0
LINE
8
A-STRS
10
109550
20
10150
30
0
11
111050
21
10150
31
0
0
LINE
8
A-STRS
10
107950
20
10400
30
0
11
109450
21
10400
31
0
0
LINE
8
A-STRS
10
109550
20
10400
30
0
11
111050
21
10400
31
0
0
LINE
8
A-STRS
10
107950
20
10650
30
0
11
109450
21
10650
31
0
0
LINE
8
A-STRS
10
109550
20
10650
30
0
11
111050
21
10650
31
0
0
LINE
8
A-STRS
10
107950
20
10900
30
0
11
109450
21
10900
31
0
0
LINE
8
A-STRS
10
109550
20
10900
30
0
11
111050
21
10900
31
0
0
LINE
8
A-STRS
10
107950
20
11150
30
0
11
109450
21
11150
31
0
0
LINE
8
A-STRS
10
109550
20
11150
30
0
11
111050
21
11150
31
0
0
LINE
8
A-STRS
10
107950
20
11400
30
0
11
109450
21
11400
31
0
0
LINE
8
A-STRS
10
109550
20
11400
30
0
11
111050
21
11400
31
0
0
LINE
8
A-STRS
10
109450
20
8400
30
0
11
109450
21
11400
31
0
0
LINE
8
A-STRS
10
109550
20
8400
30
0
11
109550
21
11400
31
0
0
LINE
8
A-LIFT
10
108800
20
5300
30
0
11
110200
21
6700
31
0
0
LINE
8
A-LIFT
10
108800
20
6700
30
0
11
110200
21
5300
31
0
0
POLYLINE
8
A-FURN
66
1
10
0
20
0
30
0
70
1
0
VERTEX
8
A-FURN
10
99600
20
9000
30
0
0
VERTEX
8
A-FURN
10
101400
20
9000
30
0
0
VERTEX
8
A-FURN
10
101400
20
11100
30
0
0
VERTEX
8
A-FURN
10
99600
20
11100
30
0
0
SEQEND
8
A-FURN
0
POLYLINE
8
A-FURN
66
1
10
0
20
0
30
0
70
1
0
VERTEX
8
A-FURN
10
99800
20
10700
30
0
0
VERTEX
8
A-FURN
10
101200
20
10700
30
0
0
VERTEX
8
A-FURN
10
101200
20
11000
30
0
0
VERTEX
8
A-FURN
10
99800
20
11000
30
0
0
SEQEND
8
A-FURN
0
POLYLINE
8
A-FURN
66
1
10
0
20
0
30
0
70
1
0
VERTEX
8
A-FURN
10
105700
20
9000
30
0
0
VERTEX
8
A-FURN
10
107300
20
9000
30
0
0
VERTEX
8
A-FURN
10
107300
20
11100
30
0
0
VERTEX
8
A-FURN
10
105700
20
11100
30
0
0
SEQEND
8
A-FURN
0
POLYLINE
8
A-FURN
66
1
10
0
20
0
30
0
70
1
0
VERTEX
8
A-FURN
10
99600
20
600
30
0
0
VERTEX
8
A-FURN
10
102000
20
600
30
0
0
VERTEX
8
A-FURN
10
102000
20
1500
30
0
0
VERTEX
8
A-FURN
10
99600
20
1500
30
0
0
SEQEND
8
A-FURN
0
POLYLINE
8
A-FURN
66
1
10
0
20
0
30
0
70
1
0
VERTEX
8
A-FURN
10
99600
20
1500
30
0
0
VERTEX
8
A-FURN
10
100500
20
1500
30
0
0
VERTEX
8
A-FURN
10
100500
20
3300
30
0
0
VERTEX
8
A-FURN
10
99600
20
3300
30
0
0
SEQEND
8
A-FURN
0
POLYLINE
8
A-FURN
66
1
10
0
20
0
30
0
70
1
0
VERTEX
8
A-FURN
10
102600
20
6000
30
0
0
VERTEX
8
A-FURN
10
104400
20
6000
30
0
0
VERTEX
8
A-FURN
10
104400
20
7200
30
0
0
VERTEX
8
A-FURN
10
102600
20
7200
30
0
0
SEQEND
8
A-FURN
0
POLYLINE
8
A-FURN
66
1
10
0
20
0
30
0
70
1
0
VERTEX
8
A-FURN
10
99300
20
5100
30
0
0
VERTEX
8
A-FURN
10
99900
20
5100
30
0
0
VERTEX
8
A-FURN
10
99900
20
8100
30
0
0
VERTEX
8
A-FURN
10
99300
20
8100
30
0
0
SEQEND
8
A-FURN
0
POLYLINE
8
A-FURN
66
1
10
0
20
0
30
0
70
1
0
VERTEX
8
A-FURN
10
117600
20
9000
30
0
0
VERTEX
8
A-FURN
10
119400
20
9000
30
0
0
VERTEX
8
A-FURN
10
119400
20
11100
30
0
0
VERTEX
8
A-FURN
10
117600
20
11100
30
0
0
SEQEND
8
A-FURN
0
POLYLINE
8
A-FURN
66
1
10
0
20
0
30
0
70
1
0
VERTEX
8
A-FURN
10
117800
20
10700
30
0
0
VERTEX
8
A-FURN
10
119200
20
10700
30
0
0
VERTEX
8
A-FURN
10
119200
20
11000
30
0
0
VERTEX
8
A-FURN
10
117800
20
11000
30
0
0
SEQEND
8
A-FURN
0
POLYLINE
8
A-FURN
66
1
10
0
20
0
30
0
70
1
0
VERTEX
8
A-FURN
10
111700
20
9000
30
0
0
VERTEX
8
A-FURN
10
113300
20
9000
30
0
0
VERTEX
8
A-FURN
10
113300
20
11100
30
0
0
VERTEX
8
A-FURN
10
111700
20
11100
30
0
0
SEQEND
8
A-FURN
0
POLYLINE
8
A-FURN
66
1
10
0
20
0
30
0
70
1
0
VERTEX
8
A-FURN
10
117000
20
600
30
0
0
VERTEX
8
A-FURN
10
119400
20
600
30
0
0
VERTEX
8
A-FURN
10
119400
20
1500
30
0
0
VERTEX
8
A-FURN
10
117000
20
1500
30
0
0
SEQEND
8
A-FURN
0
POLYLINE
8
A-FURN
66
1
10
0
20
0
30
0
70
1
0
VERTEX
8
A-FURN
10
118500
20
1500
30
0
0
VERTEX
8
A-FURN
10
119400
20
1500
30
0
0
VERTEX
8
A-FURN
10
119400
20
3300
30
0
0
VERTEX
8
A-FURN
10
118500
20
3300
30
0
0
SEQEND
8
A-FURN
0
POLYLINE
8
A-FURN
66
1
10
0
20
0
30
0
70
1
0
VERTEX
8
A-FURN
10
114600
20
6000
30
0
0
VERTEX
8
A-FURN
10
116400
20
6000
30
0
0
VERTEX
8
A-FURN
10
116400
20
7200
30
0
0
VERTEX
8
A-FURN
10
114600
20
7200
30
0
0
SEQEND
8
A-FURN
0
POLYLINE
8
A-FURN
66
1
10
0
20
0
30
0
70
1
0
VERTEX
8
A-FURN
10
119100
20
5100
30
0
0
VERTEX
8
A-FURN
10
119700
20
5100
30
0
0
VERTEX
8
A-FURN
10
119700
20
8100
30
0
0
VERTEX
8
A-FURN
10
119100
20
8100
30
0
0
SEQEND
8
A-FURN
0
TEXT
8
A-ANNO-ROOM
10
101700
20
2530
30
0
40
200
1
LIVING
50
0
72
4
11
101700
21
2530
31
0
0
TEXT
8
A-ANNO-ROOM
10
101700
20
2230
30
0
40
150
1
17'4" X 15'4"
50
0
72
4
11
101700
21
2230
31
0
0
TEXT
8
A-ANNO-ROOM
10
106050
20
2530
30
0
40
200
1
FOYER
50
0
72
4
11
106050
21
2530
31
0
0
TEXT
8
A-ANNO-ROOM
10
106050
20
2230
30
0
40
150
1
10'5" X 15'4"
50
0
72
4
11
106050
21
2230
31
0
0
TEXT
8
A-ANNO-ROOM
10
100350
20
6730
30
0
40
200
1
KITCHEN
50
0
72
4
11
100350
21
6730
31
0
0
TEXT
8
A-ANNO-ROOM
10
100350
20
6430
30
0
40
150
1
8'6" X 11'5"
50
0
72
4
11
100350
21
6430
31
0
0
TEXT
8
A-ANNO-ROOM
10
103500
20
6730
30
0
40
200
1
DINING
50
0
72
4
11
103500
21
6730
31
0
0
TEXT
8
A-ANNO-ROOM
10
103500
20
6430
30
0
40
150
1
11'5" X 11'5"
50
0
72
4
11
103500
21
6430
31
0
0
TEXT
8
A-ANNO-ROOM
10
106500
20
7330
30
0
40
200
1
TOILET
50
0
72
4
11
106500
21
7330
31
0
0
TEXT
8
A-ANNO-ROOM
10
106500
20
7030
30
0
40
150
1
7'6" X 7'6"
50
0
72
4
11
106500
21
7030
31
0
0
TEXT
8
A-ANNO-ROOM
10
106500
20
5400
30
0
40
150
1
STORE
50
0
72
4
11
106500
21
5400
31
0
0
TEXT
8
A-ANNO-ROOM
10
100950
20
10330
30
0
40
200
1
BED ROOM
50
0
72
4
11
100950
21
10330
31
0
0
TEXT
8
A-ANNO-ROOM
10
100950
20
10030
30
0
40
150
1
12'5" X 11'5"
50
0
72
4
11
100950
21
10030
31
0
0
TEXT
8
A-ANNO-ROOM
10
104100
20
9000
30
0
40
150
1
PASSAGE
50
0
72
4
11
104100
21
9000
31
0
0
TEXT
8
A-ANNO-ROOM
10
104100
20
10930
30
0
40
200
1
TOILET
50
0
72
4
11
104100
21
10930
31
0
0
TEXT
8
A-ANNO-ROOM
10
104100
20
10630
30
0
40
150
1
7'6" X 7'6"
50
0
72
4
11
104100
21
10630
31
0
0
TEXT
8
A-ANNO-ROOM
10
106500
20
10330
30
0
40
200
1
BED ROOM
50
0
72
4
11
106500
21
10330
31
0
0
TEXT
8
A-ANNO-ROOM
10
106500
20
10030
30
0
40
150
1
7'6" X 11'5"
50
0
72
4
11
106500
21
10030
31
0
0
TEXT
8
A-ANNO-ROOM
10
101850
20
-920
30
0
40
200
1
BALCONY
50
0
72
4
11
101850
21
-920
31
0
0
TEXT
8
A-ANNO-ROOM
10
117300
20
2530
30
0
40
200
1
LIVING
50
0
72
4
11
117300
21
2530
31
0
0
TEXT
8
A-ANNO-ROOM
10
117300
20
2230
30
0
40
150
1
17'4" X 15'4"
50
0
72
4
11
117300
21
2230
31
0
0
TEXT
8
A-ANNO-ROOM
10
112950
20
2530
30
0
40
200
1
FOYER
50
0
72
4
11
112950
21
2530
31
0
0
TEXT
8
A-ANNO-ROOM
10
112950
20
2230
30
0
40
150
1
10'5" X 15'4"
50
0
72
4
11
112950
21
2230
31
0
0
TEXT
8
A-ANNO-ROOM
10
118650
20
6730
30
0
40
200
1
KITCHEN
50
0
72
4
11
118650
21
6730
31
0
0
TEXT
8
A-ANNO-ROOM
10
118650
20
6430
30
0
40
150
1
8'6" X 11'5"
50
0
72
4
11
118650
21
6430
31
0
0
TEXT
8
A-ANNO-ROOM
10
115500
20
6730
30
0
40
200
1
DINING
50
0
72
4
11
115500
21
6730
31
0
0
TEXT
8
A-ANNO-ROOM
10
115500
20
6430
30
0
40
150
1
11'5" X 11'5"
50
0
72
4
11
115500
21
6430
31
0
0
TEXT
8
A-ANNO-ROOM
10
112500
20
7330
30
0
40
200
1
TOILET
50
0
72
4
11
112500
21
7330
31
0
0
TEXT
8
A-ANNO-ROOM
10
112500
20
7030
30
0
40
150
1
7'6" X 7'6"
50
0
72
4
11
112500
21
7030
31
0
0
TEXT
8
A-ANNO-ROOM
10
112500
20
5400
30
0
40
150
1
STORE
50
0
72
4
11
112500
21
5400
31
0
0
TEXT
8
A-ANNO-ROOM
10
118050
20
10330
30
0
40
200
1
BED ROOM
50
0
72
4
11
118050
21
10330
31
0
0
TEXT
8
A-ANNO-ROOM
10
118050
20
10030
30
0
40
150
1
12'5" X 11'5"
50
0
72
4
11
118050
21
10030
31
0
0
TEXT
8
A-ANNO-ROOM
10
114900
20
9000
30
0
40
150
1
PASSAGE
50
0
72
4
11
114900
21
9000
31
0
0
TEXT
8
A-ANNO-ROOM
10
114900
20
10930
30
0
40
200
1
TOILET
50
0
72
4
11
114900
21
10930
31
0
0
TEXT
8
A-ANNO-ROOM
10
114900
20
10630
30
0
40
150
1
7'6" X 7'6"
50
0
72
4
11
114900
21
10630
31
0
0
TEXT
8
A-ANNO-ROOM
10
112500
20
9430
30
0
40
200
1
BED ROOM
50
0
72
4
11
112500
21
9430
31
0
0
TEXT
8
A-ANNO-ROOM
10
112500
20
9130
30
0
40
150
1
7'6" X 5'6"
50
0
72
4
11
112500
21
9130
31
0
0
TEXT
8
A-ANNO-ROOM
10
112800
20
11230
30
0
40
200
1
TOILET
50
0
72
4
11
112800
21
11230
31
0
0
TEXT
8
A-ANNO-ROOM
10
112800
20
10930
30
0
40
150
1
5'6" X 5'6"
50
0
72
4
11
112800
21
10930
31
0
0
TEXT
8
A-ANNO-ROOM
10
117150
20
-620
30
0
40
200
1
BALCONY
50
0
72
4
11
117150
21
-620
31
0
0
TEXT
8
A-ANNO-ROOM
10
109500
20
9730
30
0
40
200
1
STAIRCASE
50
0
72
4
11
109500
21
9730
31
0
0
TEXT
8
A-ANNO-ROOM
10
109500
20
6130
30
0
40
200
1
LIFT
50
0
72
4
11
109500
21
6130
31
0
0
TEXT
8
A-ANNO-ROOM
10
109500
20
5830
30
0
40
150
1
5'6" X 5'6"
50
0
72
4
11
109500
21
5830
31
0
0
TEXT
8
A-ANNO-ROOM
10
109500
20
2680
30
0
40
200
1
LOBBY
50
0
72
4
11
109500
21
2680
31
0
0
DIMENSION
8
A-DIMS
2
*D40
10
101700
20
13300
30
0
11
100350
21
13444
31
0
70
0
1

13
99000
23
12000
33
0
14
101700
24
12000
34
0
50
0
0
DIMENSION
8
A-DIMS
2
*D41
10
105300
20
13300
30
0
11
103500
21
13444
31
0
70
0
1

13
101700
23
12000
33
0
14
105300
24
12000
34
0
50
0
0
DIMENSION
8
A-DIMS
2
*D42
10
107700
20
13300
30
0
11
106500
21
13444
31
0
70
0
1

13
105300
23
12000
33
0
14
107700
24
12000
34
0
50
0
0
DIMENSION
8
A-DIMS
2
*D43
10
111300
20
13300
30
0
11
109500
21
13444
31
0
70
0
1

13
107700
23
12000
33
0
14
111300
24
12000
34
0
50
0
0
DIMENSION
8
A-DIMS
2
*D44
10
113700
20
13300
30
0
11
112500
21
13444
31
0
70
0
1

13
111300
23
12000
33
0
14
113700
24
12000
34
0
50
0
0
DIMENSION
8
A-DIMS
2
*D45
10
117300
20
13300
30
0
11
115500
21
13444
31
0
70
0
1

13
113700
23
12000
33
0
14
117300
24
12000
34
0
50
0
0
DIMENSION
8
A-DIMS
2
*D46
10
120000
20
13300
30
0
11
118650
21
13444
31
0
70
0
1

13
117300
23
12000
33
0
14
120000
24
12000
34
0
50
0
0
DIMENSION
8
A-DIMS
2
*D47
10
120000
20
14300
30
0
11
109500
21
14444
31
0
70
0
1

13
99000
23
12000
33
0
14
120000
24
12000
34
0
50
0
0
DIMENSION
8
A-DIMS
2
*D48
10
97700
20
4800
30
0
11
97556
21
2400
31
0
70
0
1

13
99000
23
0
33
0
14
99000
24
4800
34
0
50
90
0
DIMENSION
8
A-DIMS
2
*D49
10
97700
20
8400
30
0
11
97556
21
6600
31
0
70
0
1

13
99000
23
4800
33
0
14
99000
24
8400
34
0
50
90
0
DIMENSION
8
A-DIMS
2
*D50
10
97700
20
12000
30
0
11
97556
21
10200
31
0
70
0
1

13
99000
23
8400
33
0
14
99000
24
12000
34
0
50
90
0
DIMENSION
8
A-DIMS
2
*D51
10
96700
20
12000
30
0
11
96556
21
6000
31
0
70
0
1

13
99000
23
0
33
0
14
99000
24
12000
34
0
50
90
0
DIMENSION
8
A-DIMS
2
*D52
10
120000
20
-3100
30
0
11
109500
21
-2956
31
0
70
0
1

13
99000
23
0
33
0
14
120000
24
0
34
0
50
0
0
TEXT
8
A-ANNO-TTLB
10
109500
20
-4700
30
0
40
450
1
THIRD FLOOR PLAN
50
0
72
1
11
109500
21
-4700
31
0
0
TEXT
8
A-ANNO-TTLB
10
109500
20
-5400
30
0
40
250
1
SCALE 1:100
50
0
72
1
11
109500
21
-5400
31
0
0
POLYLINE
8
A-ANNO-TTLB
66
1
10
0
20
0
30
0
70
1
0
VERTEX
8
A-ANNO-TTLB
10
132000
20
-6000
30
0
0
VERTEX
8
A-ANNO-TTLB
10
144000
20
-6000
30
0
0
VERTEX
8
A-ANNO-TTLB
10
144000
20
14000
30
0
0
VERTEX
8
A-ANNO-TTLB
10
132000
20
14000
30
0
0
SEQEND
8
A-ANNO-TTLB
0
TEXT
8
A-ANNO-TTLB
10
132600
20
12800
30
0
40
400
1
RIVERSIDE RESIDENCY
50
0
0
TEXT
8
A-ANNO-TTLB
10
132600
20
12100
30
0
40
250
1
PROPOSED G+3 RESIDENTIAL BUILDING
50
0
0
TEXT
8
A-ANNO-TTLB
10
132600
20
11500
30
0
40
250
1
FLOOR PLANS — FOR COORDINATION
50
0
0
TEXT
8
A-ANNO-TTLB
10
132600
20
10900
30
0
40
200
1
DRG. NO. A-101   REV. B
50
0
0
ENDSEC
0
EOF
