<svg xmlns="http://www.w3.org/2000/svg" width="1200" height="630" viewBox="0 0 1200 630" font-family="system-ui,-apple-system,'Segoe UI',Roboto,sans-serif">
  <rect width="1200" height="630" fill="#0d0f16"/>
  <!-- keyprint barcode -->
  <g fill="#7cf5c8">
    <rect x="70" y="360" width="18" height="150"/><rect x="104" y="390" width="12" height="120"/><rect x="132" y="340" width="24" height="170"/>
    <rect x="172" y="400" width="14" height="110"/><rect x="202" y="380" width="10" height="130"/><rect x="228" y="330" width="26" height="180"/>
    <rect x="270" y="395" width="16" height="115"/><rect x="302" y="410" width="10" height="100"/><rect x="328" y="360" width="20" height="150"/>
    <rect x="364" y="392" width="13" height="118"/><rect x="393" y="345" width="23" height="165"/><rect x="432" y="405" width="12" height="105"/>
    <rect x="460" y="370" width="18" height="140"/><rect x="494" y="385" width="14" height="125"/><rect x="524" y="400" width="11" height="110"/>
    <rect x="551" y="335" width="25" height="175"/><rect x="592" y="392" width="15" height="118"/>
  </g>
  <text x="70" y="150" font-size="66" font-weight="800" fill="#eaeefb">⌨️ <tspan fill="#7cf5c8">KEYPRINT</tspan></text>
  <text x="72" y="212" font-size="32" font-weight="600" fill="#8f99b3">Your typing rhythm is a fingerprint.</text>
  <text x="72" y="262" font-size="30" font-weight="800" fill="#eaeefb">Can your friends <tspan fill="#7c9bff">forge it?</tspan></text>
  <text x="72" y="285" font-size="0"> </text>
  <text x="705" y="580" font-size="24" font-weight="700" fill="#7cf5c8" font-family="ui-monospace,Menlo,monospace" text-anchor="end">the rhythm lives in the URL</text>
</svg>
